<?xml version="1.0" encoding="UTF-8" standalone="no"?>
<svg
   xmlns:dc="http://purl.org/dc/elements/1.1/"
   xmlns:cc="http://creativecommons.org/ns#"
   xmlns:rdf="http://www.w3.org/1999/02/22-rdf-syntax-ns#"
   xmlns:svg="http://www.w3.org/2000/svg"
   xmlns="http://www.w3.org/2000/svg"
   xmlns:sodipodi="http://sodipodi.sourceforge.net/DTD/sodipodi-0.dtd"
   xmlns:inkscape="http://www.inkscape.org/namespaces/inkscape"
   version="1.0"
   width="64"
   height="64"
   viewBox="0 0 51.2 51.2"
   preserveAspectRatio="xMidYMid meet"
   id="svg2"
   sodipodi:version="0.32"
   inkscape:version="0.91 r13725"
   sodipodi:docname="explosive.svg"
   inkscape:output_extension="org.inkscape.output.svg.inkscape"
   inkscape:export-filename="/home/edwin/workspace/godot/godot_fps_crawler/textures/items/explosive.png"
   inkscape:export-xdpi="90"
   inkscape:export-ydpi="90">
  <defs
     id="defs43" />
  <sodipodi:namedview
     inkscape:window-height="1056"
     inkscape:window-width="1878"
     inkscape:pageshadow="2"
     inkscape:pageopacity="0"
     guidetolerance="10.0"
     gridtolerance="10.0"
     objecttolerance="10.0"
     borderopacity="1.0"
     bordercolor="#666666"
     pagecolor="#000000"
     id="base"
     inkscape:zoom="4.8082902"
     inkscape:cx="68.327367"
     inkscape:cy="-6.6371508"
     inkscape:window-x="42"
     inkscape:window-y="0"
     inkscape:current-layer="svg2"
     showgrid="false"
     units="px"
     inkscape:window-maximized="1" />
  <metadata
     id="metadata4">
Created by potrace 1.8, written by Peter Selinger 2001-2007
<rdf:RDF>
  <cc:Work
     rdf:about="">
    <dc:format>image/svg+xml</dc:format>
    <dc:type
       rdf:resource="http://purl.org/dc/dcmitype/StillImage" />
    <dc:title></dc:title>
  </cc:Work>
</rdf:RDF>
</metadata>
  <g
     id="g4865"
     transform="matrix(0.1395236,0,0,0.1395236,-14.947226,64.794775)">
    <path
       inkscape:connector-curvature="0"
       d="m 314.62324,-390.33276 c -0.0473,0.14174 -9.07104,25.88081 -20.05078,57.1948 -10.97974,31.31399 -19.99408,56.96802 -20.03188,57.01527 -0.11339,0.11338 -0.89765,-0.17954 -0.88821,-0.33072 0.009,-0.10394 23.47132,-73.06912 23.70755,-73.71165 0.0283,-0.0756 -0.67088,-0.54804 -2.09768,-1.39845 -2.12603,-1.26617 -2.3906,-1.4079 -2.3906,-1.25672 0,0.13229 -19.53108,76.28178 -19.56888,76.31958 -0.0189,0.0283 -0.54804,-0.10394 -1.17167,-0.28347 -1.49295,-0.42521 -4.02528,-0.93546 -5.6694,-1.14333 -1.84256,-0.22678 -6.03792,-0.22678 -7.70094,0.009 -7.76708,1.08663 -14.06956,4.28984 -19.55943,9.94034 -3.85519,3.96858 -6.92612,9.11829 -8.55134,14.35303 -0.19843,0.62364 -0.38741,1.17168 -0.42521,1.20948 -0.0378,0.0378 -3.03313,-2.16382 -6.66154,-4.89459 -3.62842,-2.73076 -6.6143,-4.95127 -6.6332,-4.92292 -0.0189,0.0189 0.33071,0.78426 0.78426,1.69137 l 0.83152,1.65357 5.69774,3.80795 c 5.50877,3.69456 5.6883,3.82684 5.64106,4.07252 -0.0473,0.23622 0.13228,0.463 1.71971,2.17327 0.97325,1.05829 2.04099,2.20161 2.3717,2.55123 l 0.61419,0.64253 1.68192,-0.10394 1.68192,-0.10394 3.15597,2.09768 c 1.72917,1.14333 3.02368,1.97484 2.86305,1.84255 -0.15119,-0.13228 -1.39846,-1.07718 -2.76856,-2.10712 -1.36066,-1.02049 -2.42839,-1.8709 -2.36225,-1.88035 0.0661,-0.009 2.24886,-0.13229 4.84734,-0.27402 l 4.7245,-0.25513 6.82217,3.42054 c 3.76071,1.8709 6.85053,3.41109 6.87888,3.41109 0.0283,0 1.74806,-2.05043 3.83629,-4.56387 2.08823,-2.50398 3.85519,-4.62056 3.92133,-4.69615 0.10394,-0.12284 -0.16063,-0.83151 -1.61577,-4.39379 -0.95435,-2.3339 -1.72917,-4.26149 -1.71027,-4.28039 0.0189,-0.009 2.40004,0.23622 5.30089,0.54804 2.90084,0.31182 5.29144,0.54804 5.32923,0.51969 0.0283,-0.0378 0.40631,-1.47404 0.82206,-3.19376 l 0.76537,-3.13707 2.3528,-0.0283 c 1.29452,-0.009 2.73077,0.009 3.19377,0.0472 l 0.85041,0.0756 -8.06,8.78757 c -4.44103,4.82844 -8.15449,8.89151 -8.25843,9.0238 -0.35906,0.4252 2.84415,-2.77801 10.32776,-10.34666 l 7.37967,-7.46471 2.74021,-0.0472 2.74021,-0.0473 -0.49135,-0.70867 c -0.27402,-0.38741 -0.78427,-1.06774 -1.14333,-1.50239 -0.35906,-0.43465 -0.63308,-0.82206 -0.62363,-0.85986 0.0189,-0.0378 1.03939,-1.09608 2.26776,-2.36225 l 2.23941,-2.28666 0.24568,0.53859 c 0.13228,0.30237 0.23622,0.58584 0.23622,0.63309 0,0.15118 0.11339,0.10394 3.86464,-1.62523 1.93705,-0.88821 3.56227,-1.58743 3.60007,-1.54019 0.0378,0.0378 0.39686,1.24727 0.80316,2.67407 0.39686,1.4268 0.76537,2.63627 0.80317,2.67407 0.0661,0.0756 11.48998,-9.13719 11.8207,-9.53404 0.0756,-0.10394 1.50239,-2.69297 3.15597,-5.75445 1.65357,-3.07092 3.10872,-5.76389 3.241,-5.99066 0.13229,-0.22678 0.19843,-0.39686 0.13229,-0.37796 -0.0567,0.0189 -2.4095,1.94649 -5.2253,4.2804 l -5.13081,4.2426 -3.68511,0.085 c -2.03153,0.0472 -3.82684,0.0756 -3.98747,0.0567 -0.27402,-0.0283 1.75751,-2.08823 34.37546,-35.01799 19.05863,-19.23817 34.65893,-35.018 34.65893,-35.05579 0,-0.0378 -0.88821,-0.9638 -1.98429,-2.05044 -1.8709,-1.8709 -1.99374,-1.97484 -2.14492,-1.8142 -0.085,0.085 -15.94047,17.34836 -35.22587,38.35349 l -35.0558,38.2023 -2.778,1.95595 c -1.52129,1.06773 -2.8158,1.99374 -2.8725,2.05043 -0.0661,0.0661 0,0.31182 0.21733,0.80317 0.26457,0.62363 0.29292,0.73702 0.17953,0.87875 -0.10394,0.13229 -3.75125,4.14811 -4.45048,4.89458 -0.17008,0.17954 -0.17953,0.17009 -1.00159,-0.62363 -1.59688,-1.57798 -3.09927,-2.7969 -4.94183,-4.05362 l -0.9071,-0.62363 17.36726,-29.8494 c 13.70105,-23.53745 17.34836,-29.87773 17.25387,-29.96277 -0.0567,-0.0661 -0.95435,-0.62364 -1.97484,-1.24727 l -1.8709,-1.13388 -0.32127,0.57639 c -0.17008,0.32126 -7.20958,14.22074 -15.64754,30.88878 -8.70253,17.21608 -15.38297,30.31239 -15.45856,30.31239 -0.0945,0 -0.085,-0.11339 0.0472,-0.5008 0.10394,-0.26457 9.32616,-25.9753 20.50433,-57.12865 11.18762,-31.15335 20.31535,-56.68455 20.29645,-56.74125 -0.0378,-0.085 -6.82217,-3.241 -7.5403,-3.50558 -0.11339,-0.0378 -0.17953,0.0189 -0.25512,0.20788 z"
       id="path10"
       style="fill:#ffffff;fill-opacity:1;stroke:none" />
    <path
       inkscape:connector-curvature="0"
       d="m 279.35957,-344.49566 -0.9638,2.44729 -1.852,-0.73702 c -1.02994,-0.40631 -1.8898,-0.70867 -1.91815,-0.67088 -0.0284,0.0378 -0.463,2.08823 -0.97325,4.55442 -0.50079,2.46619 -0.93545,4.55442 -0.96379,4.63946 -0.0283,0.11339 0.4063,0.35906 1.91814,1.06774 1.08664,0.51024 1.99374,0.95434 2.04099,0.99214 0.0378,0.0378 0.51024,1.70082 1.05829,3.69456 0.53859,1.98429 1.00159,3.62842 1.02049,3.64731 0.0189,0.0189 0.79371,-1.07718 1.72916,-2.44729 1.77642,-2.59847 1.75752,-2.57957 7.36078,-8.66473 l 0.30236,-0.33072 -1.61578,-5.24419 -1.62522,-5.2442 -0.70868,-0.0567 c -0.38741,-0.0378 -1.4079,-0.0661 -2.27721,-0.0756 l -1.56853,-0.009 -0.9638,2.43784 z"
       id="path12"
       style="fill:#ffffff;fill-opacity:1;stroke:none" />
    <path
       inkscape:connector-curvature="0"
       d="m 409.0471,-323.38659 c -0.29292,0.97324 -3.28826,10.24271 -3.32605,10.28051 -0.0189,0.0284 -2.05044,0.13229 -4.50718,0.24567 l -4.46937,0.19843 -1.26617,0.97325 c -0.69922,0.53859 -1.27561,0.9827 -1.29451,0.99214 -0.0284,0.0284 -1.23782,7.64425 -1.21892,7.67259 0.0378,0.0283 6.98281,3.99693 7.01116,3.99693 0.0189,0 1.27561,-1.34176 2.7969,-2.97644 1.53074,-1.63467 2.7969,-2.97643 2.82525,-2.96698 0.0283,0 2.53233,1.69137 5.57491,3.7607 l 5.52767,3.7607 0.0283,-1.37955 c 0.009,-0.75592 -0.009,-3.82685 -0.0661,-6.81273 l -0.085,-5.43318 -3.66621,-6.26468 c -2.02209,-3.43944 -3.70401,-6.25524 -3.74181,-6.25524 -0.0378,0 -0.0945,0.0945 -0.12283,0.20788 z"
       id="path14"
       style="fill:#ffffff;fill-opacity:1;stroke:none" />
    <path
       inkscape:connector-curvature="0"
       d="m 317.7792,-318.90777 -0.84096,0.90711 -0.8882,-0.88821 -0.88821,-0.87876 -0.18898,0.22678 c -0.0945,0.12284 -0.67088,0.926 -1.28506,1.78586 l -1.09609,1.55909 -0.69922,3.50558 c -0.37796,1.92759 -0.68978,3.59062 -0.68978,3.69455 0.009,0.13229 0.79372,0.86931 2.46619,2.31501 1.36066,1.17168 2.50398,2.12602 2.56068,2.12602 0.0472,0 0.8882,-0.97324 1.86145,-2.15437 l 1.77641,-2.16382 0.40631,-1.94649 c 0.21733,-1.06774 0.4441,-2.20162 0.5008,-2.51344 l 0.0945,-0.57639 -1.06774,-2.88194 c -0.58584,-1.58743 -1.09608,-2.91029 -1.12443,-2.94809 -0.0378,-0.0378 -0.43465,0.34017 -0.89766,0.83151 z"
       id="path16"
       style="fill:#ffffff;fill-opacity:1;stroke:none" />
    <path
       inkscape:connector-curvature="0"
       d="m 326.59512,-281.99052 c -25.44616,17.94365 -46.2623,32.62739 -46.2434,32.64629 0.009,0.0189 20.86339,-12.90733 46.33789,-28.71551 l 46.30955,-28.74386 0,-3.91188 c 0,-2.14493 -0.0284,-3.90244 -0.0661,-3.89299 -0.0473,0 -20.89174,14.68374 -46.3379,32.61795 z"
       id="path18"
       style="fill:#ffffff;fill-opacity:1;stroke:none" />
    <path
       inkscape:connector-curvature="0"
       d="m 361.89659,-287.00794 -1.8898,2.08823 -0.91656,2.41894 c -0.50079,1.33231 -0.89765,2.42839 -0.8882,2.44729 0.0378,0.0378 16.51685,2.01264 16.55464,1.97484 0.0189,-0.009 -2.44729,-2.50398 -5.47097,-5.51821 l -5.49931,-5.49932 -1.8898,2.08823 z"
       id="path20"
       style="fill:#ffffff;fill-opacity:1;stroke:none" />
    <path
       inkscape:connector-curvature="0"
       d="m 358.19258,-266.54141 c -44.80716,11.62227 -81.45038,21.14686 -81.43148,21.16576 0.0283,0.0283 165.22521,-37.39914 165.29135,-37.45583 0.0567,-0.0378 -2.22996,-4.8001 -2.30555,-4.81899 -0.0472,-0.009 -36.74716,9.48679 -81.55432,21.10906 z"
       id="path22"
       style="fill:#ffffff;fill-opacity:1;stroke:none" />
    <path
       inkscape:connector-curvature="0"
       d="m 316.58863,-263.64057 c -14.89162,7.03951 -27.13753,12.83175 -27.21312,12.88844 -0.10394,0.0756 -0.0756,0.0756 0.0945,0.0189 0.33072,-0.11339 54.75696,-21.09962 54.7664,-21.11852 0.009,0 -0.0756,-1.03939 -0.18898,-2.30555 -0.11338,-1.38901 -0.22677,-2.28666 -0.29291,-2.28666 -0.0472,0.009 -12.27426,5.76389 -27.16588,12.80339 z"
       id="path24"
       style="fill:#ffffff;fill-opacity:1;stroke:none" />
    <path
       inkscape:connector-curvature="0"
       d="m 372.29049,-255.59947 c -49.10646,8.32457 -89.39699,15.14675 -89.52928,15.14675 -0.16063,0.009 -0.59529,-0.27402 -1.32286,-0.85041 l -1.08663,-0.85986 -0.0473,3.61897 -0.0472,3.61897 -2.8347,1.91814 c -1.55909,1.04884 -2.8914,1.9087 -2.95754,1.91815 -0.0661,0 -1.25672,-0.82206 -2.64572,-1.82366 -3.68511,-2.66462 -3.72291,-2.65517 -0.20788,0.0756 1.32286,1.02995 2.44729,1.89925 2.48509,1.93705 0.0945,0.085 -4.43158,3.14652 -4.56387,3.09927 -0.0661,-0.0189 -11.23486,-9.52459 -13.99397,-11.90574 l -0.62363,-0.54804 -5.16861,4.48827 c -2.84414,2.46619 -5.20639,4.48828 -5.24419,4.48828 -0.0472,0 -2.96699,-0.76537 -6.49146,-1.70082 l -6.41587,-1.70082 1.79531,0.0472 c 0.99214,0.0283 2.49453,0.0661 3.35439,0.0945 1.48349,0.0378 -2.74966,-0.29291 -7.80487,-0.61418 -0.93545,-0.0661 -5.99067,-0.39686 -11.23486,-0.73702 l -9.54349,-0.63309 -0.0472,-0.27402 c -0.0567,-0.32126 -0.0189,-0.32126 -0.85041,-0.0378 -0.59529,0.19843 -0.66143,0.19843 -2.50398,0.085 -1.03939,-0.0567 -2.12603,-0.13229 -2.4095,-0.16063 l -0.52914,-0.0567 -0.44411,-0.82206 -0.45355,-0.82206 -3.23156,-0.16064 c -1.77641,-0.0945 -3.44888,-0.16063 -3.71345,-0.16063 l -0.4819,0 -0.41576,0.68033 -0.41575,0.68978 -0.47245,-0.0283 c -0.26458,-0.009 -10.14823,-0.66143 -21.96893,-1.4457 -11.8207,-0.77482 -21.64766,-1.39845 -21.84609,-1.389 l -0.34016,0.0283 1.09608,1.18112 c 0.95435,1.03939 1.13388,1.18112 1.4268,1.20947 0.18898,0.0189 9.53404,0.40631 20.7689,0.85986 11.23486,0.45355 20.45709,0.84096 20.48544,0.86931 0.0283,0.0284 -0.42521,0.83151 -1.0016,1.78586 -0.56694,0.9449 -1.01104,1.75751 -0.9638,1.80476 0.0378,0.0378 1.39846,1.02049 3.01423,2.18272 l 2.93864,2.11657 3.23156,0.54805 c 1.76696,0.30236 3.2788,0.52914 3.34495,0.50079 0.0661,-0.0189 0.55749,-0.77482 1.10553,-1.66302 l 0.9827,-1.61578 2.05988,0 2.05988,0 0,-0.36851 c 0,-0.19843 -0.085,-1.31341 -0.18898,-2.46619 -0.10394,-1.16223 -0.17008,-2.12603 -0.14173,-2.15437 0.0567,-0.0567 20.39094,0.71812 20.91063,0.79371 0.24568,0.0378 0.30237,0.085 0.30237,0.29292 0,0.34962 0.5008,2.53233 0.87876,3.8363 0.32126,1.09608 0.32126,1.10553 0.12283,1.15277 -0.10393,0.0189 -25.13434,2.90085 -55.61681,6.38753 -30.48247,3.49613 -55.42783,6.35918 -55.43728,6.35918 -0.0283,0.0189 -0.22678,2.44729 -0.19843,2.47563 0.0189,0.009 25.05875,-3.35439 55.63571,-7.4836 30.57696,-4.12922 55.67351,-7.50251 55.75855,-7.50251 0.10394,0 0.22678,0.18898 0.36851,0.58584 0.12284,0.33071 0.38741,1.01104 0.58584,1.53074 0.19843,0.51024 0.35906,0.9449 0.34016,0.95434 -0.0189,0.009 -18.73736,4.15756 -41.60394,9.20333 -22.86658,5.04577 -41.66065,9.21278 -41.76458,9.26002 -0.16064,0.0661 -0.23623,0.31182 -0.45356,1.4268 -0.15118,0.73702 -0.24567,1.3701 -0.21732,1.39845 0.0472,0.0378 83.82208,-20.58937 84.20004,-20.74055 0.0567,-0.0189 0.23622,0.24567 0.39685,0.57639 0.20788,0.41575 0.26458,0.62363 0.18898,0.65198 -0.0661,0.0189 -6.38752,1.71027 -14.06011,3.7607 l -13.95617,3.71346 -0.18898,1.41735 c -0.10394,0.78426 -0.17953,1.43624 -0.17008,1.44569 0.009,0.009 6.51981,-2.12602 14.46642,-4.75284 14.49476,-4.7812 14.58925,-4.80955 14.5987,-4.42214 0,0.0567 -10.18602,5.60326 -22.63035,12.33095 l -22.63036,12.227 0.0567,0.89766 c 0.0378,0.49135 0.085,1.05829 0.12284,1.25672 l 0.0567,0.34961 22.48862,-13.23805 c 12.36874,-7.27573 22.55476,-13.27584 22.6398,-13.31364 0.12284,-0.0756 0.29292,0.14173 0.91655,1.16223 0.70868,1.17167 1.68192,2.56068 2.66462,3.79849 0.37796,0.49135 0.40631,0.54805 0.25512,0.66143 -0.085,0.0567 -12.00023,9.57184 -26.47609,21.12797 l -26.31547,21.01457 1.86145,1.82366 c 1.02994,1.0016 1.93705,1.85201 2.01264,1.89925 0.11339,0.0661 3.63787,-3.11817 15.73259,-14.20185 8.57969,-7.87101 15.60029,-14.28688 15.61919,-14.27744 0.0189,0.0189 -0.0945,0.28347 -0.25512,0.60474 -0.16063,0.31182 -0.29292,0.60474 -0.29292,0.65198 0,0.0661 2.59848,3.01423 3.20321,3.63787 0.16063,0.16063 0.24568,0.13228 2.05043,-0.68033 l 1.88036,-0.85041 0.9449,0.9449 0.9449,0.93545 1.8898,-1.13388 1.8898,-1.13388 0.72757,-2.42839 c 0.40631,-1.34176 0.72757,-2.50399 0.73702,-2.57958 0,-0.085 -0.71812,-0.59529 -1.72917,-1.22837 l -1.71971,-1.08664 -2.73077,-0.0472 -2.73076,-0.0473 6.71824,-6.17019 c 3.69456,-3.38274 6.73714,-6.16075 6.75604,-6.16075 0.009,0 0.76537,0.73702 1.67247,1.63468 0.9071,0.89765 2.07878,1.97484 2.59848,2.39059 6.30248,5.04577 13.45537,7.50251 21.16576,7.28518 6.0568,-0.17008 11.45218,-1.8709 16.58299,-5.21585 2.11658,-1.37955 3.45833,-2.46618 5.38593,-4.35598 l 1.18112,-1.16223 17.9909,14.49476 c 9.90255,7.97496 18.0098,14.48532 18.02869,14.47587 0.009,-0.0189 -0.47245,-1.14333 -1.08663,-2.50398 l -1.10553,-2.47564 -16.69639,-12.2459 -16.70583,-12.24591 0.34016,-0.39686 c 0.17954,-0.20787 0.66143,-0.80316 1.04884,-1.31341 0.39686,-0.50079 0.75592,-0.9071 0.79372,-0.89765 0.0472,0.0189 10.11988,7.87101 22.39413,17.46175 12.27425,9.59073 22.48862,17.55624 22.6965,17.70743 l 0.36851,0.27402 1.07718,-1.07719 c 0.59529,-0.59529 1.06774,-1.10553 1.05829,-1.14333 -0.0189,-0.0284 -10.52618,-7.65369 -23.36737,-16.94206 -12.83175,-9.28836 -23.41463,-16.96095 -23.49967,-17.04599 -0.15118,-0.14174 -0.12283,-0.20788 0.42521,-1.06774 0.36851,-0.57639 0.63308,-0.9071 0.70867,-0.87875 0.0661,0.0283 9.60964,5.84893 21.20356,12.95457 11.58447,7.0962 21.09017,12.87899 21.11851,12.86009 0.0189,-0.0283 -0.49134,-1.10553 -1.13388,-2.40004 l -1.18112,-2.3528 -19.8429,-10.90415 -19.8429,-10.90415 0.68033,-1.33231 c 0.37796,-0.72757 0.83151,-1.64412 1.01104,-2.04098 l 0.32127,-0.71812 12.30259,3.17486 c 6.76549,1.74807 12.3215,3.20321 12.3593,3.24101 0.0756,0.0756 -0.87876,1.39845 -1.01105,1.39845 -0.0472,0 -1.70082,-0.30237 -3.65676,-0.66143 -1.96539,-0.36851 -3.63787,-0.66143 -3.71346,-0.66143 -0.10394,0 -0.51969,0.67088 -1.20002,1.9087 l -1.03939,1.9087 2.47564,1.8331 c 1.36065,1.01104 3.08037,2.28666 3.82684,2.8347 l 1.34176,1.0016 10.04429,1.71971 c 5.51821,0.9449 10.05373,1.70082 10.07263,1.68193 0.0283,-0.0283 0.21733,-2.59848 0.31182,-4.2615 l 0.0283,-0.58584 -1.65358,-1.88035 -1.65357,-1.88035 -2.05044,-0.88821 c -1.13388,-0.4819 -2.04098,-0.88821 -2.03153,-0.89765 0.009,-0.009 6.43477,1.63467 14.27744,3.65676 7.84267,2.02208 14.31523,3.67566 14.39082,3.67566 0.0661,0 0.12284,-0.0378 0.12284,-0.085 0,-0.0378 0.27402,-1.95594 0.61419,-4.2615 0.34016,-2.30556 0.60473,-4.19536 0.59528,-4.21425 -0.0189,-0.009 -14.45697,-2.05044 -32.09825,-4.51663 -17.63183,-2.46619 -32.07936,-4.50717 -32.09825,-4.52607 -0.0189,-0.0189 0.17953,-0.66143 0.43465,-1.43625 0.26457,-0.77481 0.47245,-1.47404 0.47245,-1.55908 0,-0.10394 -0.69923,-0.38741 -2.48509,-1.02994 l -2.47563,-0.87876 -0.5008,-0.85986 c -0.27402,-0.463 -0.47245,-0.86931 -0.4441,-0.89765 0.0189,-0.0283 13.89003,0.60473 30.82263,1.4079 l 30.78485,1.45514 0.24567,0.26458 0.23622,0.25512 5.57491,0.38741 5.56547,0.37796 0.32126,-0.34961 0.32127,-0.34962 39.35508,1.86146 c 21.64766,1.02049 39.36454,1.84255 39.37399,1.8331 0.0189,-0.0189 -0.71813,-0.59529 -1.61578,-1.28506 l -1.64413,-1.25672 -37.05898,-1.17168 c -20.39094,-0.65198 -37.12512,-1.19057 -37.20071,-1.20002 -0.0756,-0.0189 1.03939,-1.36065 2.67407,-3.22211 1.54963,-1.75751 2.7969,-3.21266 2.778,-3.22211 -0.009,-0.0189 -4.46937,-2.00318 -9.90255,-4.40323 -5.43317,-2.40005 -9.90255,-4.38434 -9.94035,-4.41268 -0.0378,-0.0189 -1.26616,1.10553 -2.72131,2.49453 l -2.65517,2.53234 -3.7418,1.24726 c -2.05044,0.68978 -3.7607,1.26617 -3.7796,1.29452 -0.0284,0.0189 0.34016,1.55908 0.82206,3.41108 0.4819,1.85201 0.84096,3.3922 0.81261,3.42999 -0.0378,0.0283 -11.16871,-0.29292 -24.74693,-0.72757 -13.56876,-0.42521 -24.70913,-0.77482 -24.74693,-0.76537 -0.0378,0 -0.26457,-0.33072 -0.51024,-0.73702 -0.42521,-0.69923 -0.52915,-0.80317 -3.08038,-2.82525 l -2.63627,-2.08823 0.5008,-0.0661 c 0.27402,-0.0378 40.62125,-5.51822 89.65211,-12.17977 l 89.15132,-12.10417 0.0283,-3.05202 0.0189,-3.04258 -0.20788,0.009 c -0.12283,0.009 -40.39447,6.83163 -89.51037,15.16564 z m -168.28669,19.79566 c 0.23622,0 0.19842,0.0378 -0.28347,0.21733 -0.9827,0.37796 -0.93546,0.37796 -1.12444,0 l -0.16063,-0.34962 0.64253,0.0567 c 0.34962,0.0378 0.77482,0.0661 0.92601,0.0756 z m 144.71143,2.08823 0.88821,0.95435 -1.59688,-0.0567 c -0.88821,-0.0378 -2.62683,-0.0945 -3.87409,-0.13228 -1.24727,-0.0283 -2.20162,-0.085 -2.12603,-0.11339 0.24567,-0.085 5.62216,-1.59688 5.71665,-1.60633 0.0567,0 0.50079,0.4252 0.99214,0.95435 z"
       id="path26"
       style="fill:#ffffff;fill-opacity:1;stroke:none" />
    <path
       inkscape:connector-curvature="0"
       d="m 210.32518,-255.96798 c 0.0378,0.10394 0.20787,0.54805 0.37796,0.9827 l 0.32126,0.79371 14.76879,7.10565 c 8.11669,3.91189 14.77824,7.0962 14.79713,7.08675 0.009,-0.0189 -6.5765,-3.53392 -14.64595,-7.81432 -8.05999,-4.2804 -14.89162,-7.90881 -15.17509,-8.06 -0.463,-0.26457 -0.5008,-0.27402 -0.4441,-0.0945 z"
       id="path28"
       style="fill:#ffffff;fill-opacity:1;stroke:none" />
    <path
       inkscape:connector-curvature="0"
       d="m 195.89655,-246.23551 c -0.76537,0.66143 -1.36065,1.22837 -1.32286,1.25672 0.0945,0.0756 44.05124,6.93557 44.10794,6.87887 0.0378,-0.0283 -41.1882,-9.34506 -41.34883,-9.33561 -0.0283,0 -0.67088,0.53859 -1.43625,1.20002 z"
       id="path30"
       style="fill:#ffffff;fill-opacity:1;stroke:none" />
    <path
       inkscape:connector-curvature="0"
       d="m 238.85171,-238.02433 c 0.0283,0.0283 0.11339,0.0378 0.17953,0.009 0.0756,-0.0283 0.0472,-0.0567 -0.0567,-0.0567 -0.10393,-0.009 -0.16063,0.0189 -0.12283,0.0472 z"
       id="path32"
       style="fill:#ffffff;fill-opacity:1;stroke:none" />
    <path
       inkscape:connector-curvature="0"
       d="m 238.66273,-234.43371 c 0.0283,0.0283 0.11339,0.0378 0.17953,0.009 0.0756,-0.0283 0.0472,-0.0567 -0.0567,-0.0567 -0.10393,-0.009 -0.16063,0.0189 -0.12283,0.0472 z"
       id="path34"
       style="fill:#ffffff;fill-opacity:1;stroke:none" />
    <path
       inkscape:connector-curvature="0"
       d="m 163.70381,-229.48243 -2.88194,2.14492 -0.0283,1.14333 c -0.0283,1.12443 -0.0189,1.15278 0.18898,1.19058 0.34961,0.0756 15.77038,1.48349 15.90267,1.45514 0.0945,-0.0283 -10.04429,-8.03165 -10.23327,-8.07889 -0.0378,-0.009 -1.36066,0.95435 -2.94809,2.14492 z"
       id="path36"
       style="fill:#ffffff;fill-opacity:1;stroke:none" />
    <path
       inkscape:connector-curvature="0"
       d="m 185.81447,-213.19235 c 0,0.085 5.80169,5.6316 5.89618,5.6316 0.0567,0 1.01104,-0.36851 2.11657,-0.81261 l 2.00319,-0.81262 0,-1.73861 0,-1.73862 -0.24567,0 c -0.33072,0 -8.42851,-0.45355 -9.17498,-0.51025 -0.33072,-0.0283 -0.59529,-0.0378 -0.59529,-0.0189 z"
       id="path38"
       style="fill:#ffffff;fill-opacity:1;stroke:none" />
    <path
       inkscape:connector-curvature="0"
       d="m 164.50698,-198.37632 c -0.0283,0.0661 -0.49135,1.58743 -1.03939,3.38274 l -0.99215,3.25991 0.30237,0.4252 c 1.63468,2.27721 5.67885,7.80487 5.73554,7.82377 0.0378,0.009 0.22678,-0.43465 0.42521,-0.99214 0.19843,-0.56694 0.61418,-1.72917 0.926,-2.59848 l 0.56694,-1.57798 0.34016,-0.0473 c 0.19843,-0.0283 1.0016,-0.0756 1.79531,-0.11338 l 1.43625,-0.0567 1.13388,-1.21892 1.12443,-1.21892 0.57639,-1.80476 c 0.32127,-0.99214 0.56694,-1.81421 0.54804,-1.83311 -0.0567,-0.0567 -5.32923,-2.03153 -5.43317,-2.03153 -0.0567,0 -0.45355,0.4441 -0.88821,0.9827 -0.43465,0.54804 -0.84096,0.97324 -0.9071,0.95434 -0.0567,-0.0189 -1.32286,-0.80316 -2.80636,-1.73861 -1.48349,-0.9449 -2.72131,-1.71027 -2.74965,-1.71027 -0.0284,0 -0.0756,0.0567 -0.0945,0.11339 z"
       id="path40"
       style="fill:#ffffff;fill-opacity:1;stroke:none" />
  </g>
</svg>
