<?xml version="1.0" encoding="UTF-8" standalone="no"?>
<!-- Generator: Adobe Illustrator 16.0.0, SVG Export Plug-In . SVG Version: 6.00 Build 0)  -->

<svg
   xmlns:dc="http://purl.org/dc/elements/1.1/"
   xmlns:cc="http://creativecommons.org/ns#"
   xmlns:rdf="http://www.w3.org/1999/02/22-rdf-syntax-ns#"
   xmlns:svg="http://www.w3.org/2000/svg"
   xmlns="http://www.w3.org/2000/svg"
   xmlns:xlink="http://www.w3.org/1999/xlink"
   xmlns:sodipodi="http://sodipodi.sourceforge.net/DTD/sodipodi-0.dtd"
   xmlns:inkscape="http://www.inkscape.org/namespaces/inkscape"
   id="Layer_1"
   enable-background="new 0 0 158.553 540.791"
   xml:space="preserve"
   viewBox="0 0 64.000003 63.999998"
   version="1.1"
   y="0px"
   x="0px"
   inkscape:version="0.91 r13725"
   sodipodi:docname="flamethrower.svg"
   width="64"
   height="64"><defs
     id="defs30"><linearGradient
       inkscape:collect="always"
       xlink:href="#SVGID_2_"
       id="linearGradient4162"
       gradientUnits="userSpaceOnUse"
       gradientTransform="matrix(-0.09876154,0,0,0.09876154,329.72213,292.43013)"
       x1="14.19"
       y1="282.35999"
       x2="146.62"
       y2="282.35999" /></defs><sodipodi:namedview
     pagecolor="#000000"
     bordercolor="#666666"
     borderopacity="1"
     objecttolerance="10"
     gridtolerance="10"
     guidetolerance="10"
     inkscape:pageopacity="0"
     inkscape:pageshadow="2"
     inkscape:window-width="1878"
     inkscape:window-height="1056"
     id="namedview28"
     showgrid="false"
     inkscape:zoom="4.9372773"
     inkscape:cx="35.748401"
     inkscape:cy="52.256369"
     inkscape:window-x="42"
     inkscape:window-y="0"
     inkscape:window-maximized="1"
     inkscape:current-layer="g3" /><g
     id="g3"
     transform="matrix(0,1,-1,0,351.00403,-286.67064)"><linearGradient
       id="SVGID_1_"
       y2="270.57001"
       gradientUnits="userSpaceOnUse"
       x2="149.10001"
       y1="270.57001"
       x1="11.796"><stop
         style="stop-color:#6D0000"
         offset="0"
         id="stop6" /><stop
         style="stop-color:#ED1C24"
         offset="1"
         id="stop8" /></linearGradient><linearGradient
       id="SVGID_2_"
       y2="282.35999"
       gradientUnits="userSpaceOnUse"
       x2="146.62"
       y1="282.35999"
       x1="14.19"
       xlink:href="#SVGID_3_"
       gradientTransform="matrix(0.11032424,0,0,0.11032424,309.46746,287.1399)"><stop
         style="stop-color:#c0c0c0;stop-opacity:1"
         offset="0"
         id="stop13" /><stop
         style="stop-color:#ffffff;stop-opacity:1"
         offset="1"
         id="stop15" /></linearGradient><path
       d="m 318.59657,297.83132 c -0.97516,4.92763 -2.77123,9.44464 -0.12809,14.08841 2.87516,4.41318 3.84998,10.29115 2.46376,15.52592 -0.0754,1.38623 -1.02612,3.4654 0.69317,4.26062 0.51378,0.17982 1.0258,-0.0254 1.41149,-0.38393 1.51288,-2.36249 0.99932,-5.64607 0.66658,-8.23913 0.10337,0.12787 -0.17796,0.20642 0,0.30725 2.28393,5.2361 3.00292,13.21685 -0.35911,17.99058 l 0.053,0.0514 c -0.28507,0.25584 -0.59222,0.56497 -0.79709,1.05293 -0.87222,1.1284 -1.61548,2.10322 -3.02873,2.69445 -1.3336,0.51202 -2.77123,-0.25662 -3.9261,-0.97504 -1.64273,-1.46346 -2.54111,-3.2848 -2.95107,-5.49328 0.30858,0.35978 0.4873,1.00142 0.97504,1.05416 l -0.0513,0.0754 c 0.33329,0.53793 0.87244,0.87243 1.46223,0.97636 0.74481,0.0754 1.51531,-0.51367 1.84794,-1.18081 0.69293,-5.46689 -4.97839,-7.82805 -5.72219,-12.80643 -0.41185,-2.41379 0,-4.56842 0.30857,-7.08292 -0.15401,2.53977 -0.0273,5.33814 2.10333,6.77435 0.48785,0.2319 1.18025,0.35987 1.72007,0.12919 2.79573,-2.02788 2.38643,-5.92927 1.77004,-9.06027 -1.10291,-4.54117 -2.84836,-9.77727 -1.10291,-14.60032 0.56442,-2.36248 1.77126,-4.54436 2.10466,-6.95561 0.56365,-1.5655 0.40975,-3.23482 0.43522,-4.7991 0.28321,2.10576 0.48841,4.44088 0.0513,6.59695 z"
       id="path17"
       style="fill:url(#SVGID_2_)"
       inkscape:connector-curvature="0" /><linearGradient
       id="SVGID_3_"
       y2="349.76999"
       gradientUnits="userSpaceOnUse"
       x2="61.585999"
       y1="349.76999"
       x1="52.513"><stop
         style="stop-color:#6D0000"
         offset="0"
         id="stop20" /><stop
         style="stop-color:#ED1C24"
         offset="1"
         id="stop22" /></linearGradient><path
       inkscape:connector-curvature="0"
       style="opacity:0.61199999;fill:url(#linearGradient4162)"
       id="path4160"
       d="m 321.54981,302.00102 c 0.87296,4.41118 2.48079,8.45478 0.11467,12.61185 -2.57382,3.95065 -3.44648,9.21257 -2.20554,13.8987 0.0675,1.24095 0.91857,3.10221 -0.62052,3.81408 -0.45994,0.16098 -0.91829,-0.0227 -1.26356,-0.34369 -1.35432,-2.11489 -0.89459,-5.05433 -0.59672,-7.37562 -0.0925,0.11447 0.15931,0.18479 0,0.27505 -2.04456,4.68733 -2.68819,11.83164 0.32147,16.10505 l -0.0474,0.046 c 0.25519,0.22902 0.53015,0.50575 0.71355,0.94257 0.7808,1.01014 1.44617,1.88279 2.7113,2.41206 1.19383,0.45835 2.48079,-0.22973 3.51462,-0.87285 1.47056,-1.31008 2.27478,-2.94053 2.64178,-4.91755 -0.27624,0.32207 -0.43623,0.89646 -0.87285,0.94368 l 0.0459,0.0675 c -0.29836,0.48155 -0.781,0.781 -1.30898,0.87403 -0.66675,0.0675 -1.35649,-0.45983 -1.65426,-1.05705 -0.62031,-4.89392 4.45662,-7.00762 5.12247,-11.46423 0.36868,-2.16081 0,-4.08962 -0.27623,-6.34059 0.13786,2.27359 0.0244,4.77867 -1.88289,6.06436 -0.43672,0.20759 -1.05655,0.32215 -1.5398,0.11565 -2.50272,-1.81535 -2.13631,-5.30785 -1.58453,-8.1107 0.98732,-4.06522 2.54984,-8.75255 0.98732,-13.07011 -0.50526,-2.11488 -1.58562,-4.06808 -1.88408,-6.22662 -0.50457,-1.40142 -0.3668,-2.89579 -0.3896,-4.29612 -0.25353,1.88506 -0.43722,3.97545 -0.0459,5.90555 z" /></g><metadata
     id="metadata26"><rdf:RDF><cc:Work><dc:format>image/svg+xml</dc:format><dc:type
           rdf:resource="http://purl.org/dc/dcmitype/StillImage" /><cc:license
           rdf:resource="http://creativecommons.org/publicdomain/zero/1.0/" /><dc:publisher><cc:Agent
             rdf:about="http://openclipart.org/"><dc:title>Openclipart</dc:title></cc:Agent></dc:publisher><dc:title></dc:title></cc:Work><cc:License
         rdf:about="http://creativecommons.org/publicdomain/zero/1.0/"><cc:permits
           rdf:resource="http://creativecommons.org/ns#Reproduction" /><cc:permits
           rdf:resource="http://creativecommons.org/ns#Distribution" /><cc:permits
           rdf:resource="http://creativecommons.org/ns#DerivativeWorks" /></cc:License></rdf:RDF></metadata></svg>