solid model
facet normal -0.0 -0.0 1.0
outer loop
vertex 90.0 0.0 15.0
vertex 0.0 60.0 15.0
vertex 0.0 0.0 15.0
endloop
endfacet
facet normal -0.0 -0.0 1.0
outer loop
vertex 0.0 60.0 15.0
vertex 90.0 0.0 15.0
vertex 90.0 60.0 15.0
endloop
endfacet
facet normal -1.0 0.0 0.0
outer loop
vertex 0.0 31.0 2.0
vertex 0.0 29.0 0.0
vertex 0.0 29.0 2.0
endloop
endfacet
facet normal -1.0 0.0 0.0
outer loop
vertex 0.0 29.0 0.0
vertex 0.0 31.0 2.0
vertex 0.0 31.0 0.0
endloop
endfacet
facet normal -0.0 1.0 0.0
outer loop
vertex 0.0 60.0 15.0
vertex 60.0 60.0 0.0
vertex 0.0 60.0 0.0
endloop
endfacet
facet normal -0.0 1.0 0.0
outer loop
vertex 60.0 60.0 0.0
vertex 0.0 60.0 15.0
vertex 60.0 60.0 7.0
endloop
endfacet
facet normal -0.0 1.0 0.0
outer loop
vertex 60.0 60.0 7.0
vertex 0.0 60.0 15.0
vertex 90.0 60.0 7.0
endloop
endfacet
facet normal -0.0 1.0 0.0
outer loop
vertex 90.0 60.0 7.0
vertex 0.0 60.0 15.0
vertex 90.0 60.0 15.0
endloop
endfacet
facet normal 1.0 -0.0 -0.0
outer loop
vertex 90.0 31.0 7.0
vertex 90.0 29.0 9.0
vertex 90.0 29.0 7.0
endloop
endfacet
facet normal 1.0 -0.0 -0.0
outer loop
vertex 90.0 29.0 9.0
vertex 90.0 31.0 7.0
vertex 90.0 31.0 9.0
endloop
endfacet
facet normal -0.0 -1.0 -0.0
outer loop
vertex 90.0 0.0 15.0
vertex 60.0 0.0 7.0
vertex 90.0 0.0 7.0
endloop
endfacet
facet normal -0.0 -1.0 -0.0
outer loop
vertex 60.0 0.0 7.0
vertex 0.0 0.0 0.0
vertex 60.0 0.0 0.0
endloop
endfacet
facet normal -0.0 -1.0 -0.0
outer loop
vertex 0.0 0.0 0.0
vertex 60.0 0.0 7.0
vertex 0.0 0.0 15.0
endloop
endfacet
facet normal -0.0 -1.0 -0.0
outer loop
vertex 0.0 0.0 15.0
vertex 60.0 0.0 7.0
vertex 90.0 0.0 15.0
endloop
endfacet
facet normal 0.0 0.0 -1.0
outer loop
vertex 0.0 60.0 0.0
vertex 30.0 50.99 0.0
vertex 0.0 31.0 0.0
endloop
endfacet
facet normal 0.0 0.0 -1.0
outer loop
vertex 30.0 50.99 0.0
vertex 0.0 60.0 0.0
vertex 60.0 60.0 0.0
endloop
endfacet
facet normal 0.0 0.0 -1.0
outer loop
vertex 0.0 31.0 0.0
vertex 30.0 50.99 0.0
vertex 0.0 29.0 0.0
endloop
endfacet
facet normal 0.0 0.0 -1.0
outer loop
vertex 0.0 29.0 0.0
vertex 30.0 50.99 0.0
vertex 0.0 0.0 0.0
endloop
endfacet
facet normal 0.0 0.0 -1.0
outer loop
vertex 0.0 0.0 0.0
vertex 30.0 50.99 0.0
vertex 30.0 10.0 0.0
endloop
endfacet
facet normal 0.0 0.0 -1.0
outer loop
vertex 30.0 50.99 0.0
vertex 60.0 60.0 0.0
vertex 55.495 50.99 0.0
endloop
endfacet
facet normal 0.0 0.0 -1.0
outer loop
vertex 30.0 50.0 0.0
vertex 30.0 10.0 0.0
vertex 30.0 50.99 0.0
endloop
endfacet
facet normal 0.0 0.0 -1.0
outer loop
vertex 0.0 0.0 0.0
vertex 30.0 9.0 0.0
vertex 60.0 0.0 0.0
endloop
endfacet
facet normal 0.0 0.0 -1.0
outer loop
vertex 30.0 9.0 0.0
vertex 0.0 0.0 0.0
vertex 30.0 10.0 0.0
endloop
endfacet
facet normal 0.0 0.0 -1.0
outer loop
vertex 60.0 0.0 0.0
vertex 30.0 9.0 0.0
vertex 55.5 9.0 0.0
endloop
endfacet
facet normal -2.87959185422335e-021 1.14744396976695e-017 -1.0
outer loop
vertex 55.495 50.99 7.0
vertex 55.0 10.0 7.0
vertex 55.0 50.0 7.0
endloop
endfacet
facet normal -2.87959185422335e-021 1.14744396976695e-017 -1.0
outer loop
vertex 55.0 10.0 7.0
vertex 55.495 50.99 7.0
vertex 55.5 9.0 7.0
endloop
endfacet
facet normal -2.87959185422335e-021 1.14744396976695e-017 -1.0
outer loop
vertex 55.5 9.0 7.0
vertex 55.495 50.99 7.0
vertex 60.0 60.0 7.0
endloop
endfacet
facet normal -2.87959185422335e-021 1.14744396976695e-017 -1.0
outer loop
vertex 55.5 9.0 7.0
vertex 60.0 60.0 7.0
vertex 60.0 0.0 7.0
endloop
endfacet
facet normal -2.87959185422335e-021 1.14744396976695e-017 -1.0
outer loop
vertex 60.0 0.0 7.0
vertex 60.0 60.0 7.0
vertex 90.0 60.0 7.0
endloop
endfacet
facet normal -2.87959185422335e-021 1.14744396976695e-017 -1.0
outer loop
vertex 60.0 0.0 7.0
vertex 90.0 60.0 7.0
vertex 90.0 0.0 7.0
endloop
endfacet
facet normal -2.87959185422335e-021 1.14744396976695e-017 -1.0
outer loop
vertex 90.0 0.0 7.0
vertex 90.0 60.0 7.0
vertex 90.0 31.0 7.0
endloop
endfacet
facet normal -2.87959185422335e-021 1.14744396976695e-017 -1.0
outer loop
vertex 90.0 0.0 7.0
vertex 90.0 31.0 7.0
vertex 90.0 29.0 7.0
endloop
endfacet
facet normal 0.894427190999916 0.447213595499957 8.56853366038164e-017
outer loop
vertex 55.5 9.0 0.0
vertex 60.0 0.0 7.0
vertex 60.0 0.0 0.0
endloop
endfacet
facet normal 0.894427190999916 0.447213595499957 8.56853366038164e-017
outer loop
vertex 60.0 0.0 7.0
vertex 55.5 9.0 0.0
vertex 55.5 9.0 7.0
endloop
endfacet
facet normal 0.0 0.0 -1.0
outer loop
vertex 55.0 50.0 7.0
vertex 53.2142857142857 10.0 7.0
vertex 53.2142857142857 50.0 7.0
endloop
endfacet
facet normal 0.0 0.0 -1.0
outer loop
vertex 53.2142857142857 10.0 7.0
vertex 55.0 50.0 7.0
vertex 55.0 10.0 7.0
endloop
endfacet
facet normal 1.0 -1.44382283906452e-016 1.15505827125162e-014
outer loop
vertex 30.0 50.0 0.0
vertex 30.0 10.0 0.5
vertex 30.0 10.0 0.0
endloop
endfacet
facet normal 1.0 -1.44382283906452e-016 1.15505827125162e-014
outer loop
vertex 30.0 10.0 0.5
vertex 30.0 50.0 0.0
vertex 30.0 50.0 0.5
endloop
endfacet
facet normal 1.0 -0.0 -0.0
outer loop
vertex 31.7857142857143 50.0 0.5
vertex 31.7857142857143 10.0 1.0
vertex 31.7857142857143 10.0 0.5
endloop
endfacet
facet normal 1.0 -0.0 -0.0
outer loop
vertex 31.7857142857143 10.0 1.0
vertex 31.7857142857143 50.0 0.5
vertex 31.7857142857143 50.0 1.0
endloop
endfacet
facet normal 0.0 0.0 -1.0
outer loop
vertex 31.7857142857143 50.0 0.5
vertex 30.0 10.0 0.5
vertex 30.0 50.0 0.5
endloop
endfacet
facet normal 0.0 0.0 -1.0
outer loop
vertex 30.0 10.0 0.5
vertex 31.7857142857143 50.0 0.5
vertex 31.7857142857143 10.0 0.5
endloop
endfacet
facet normal 1.0 -0.0 -0.0
outer loop
vertex 53.2142857142857 50.0 6.5
vertex 53.2142857142857 10.0 7.0
vertex 53.2142857142857 10.0 6.5
endloop
endfacet
facet normal 1.0 -0.0 -0.0
outer loop
vertex 53.2142857142857 10.0 7.0
vertex 53.2142857142857 50.0 6.5
vertex 53.2142857142857 50.0 7.0
endloop
endfacet
facet normal 4.04270394938064e-016 0.0 -1.0
outer loop
vertex 53.2142857142857 50.0 6.5
vertex 51.4285714285714 10.0 6.5
vertex 51.4285714285714 50.0 6.5
endloop
endfacet
facet normal 4.04270394938064e-016 0.0 -1.0
outer loop
vertex 51.4285714285714 10.0 6.5
vertex 53.2142857142857 50.0 6.5
vertex 53.2142857142857 10.0 6.5
endloop
endfacet
facet normal 1.0 -0.0 -0.0
outer loop
vertex 51.4285714285714 50.0 6.0
vertex 51.4285714285714 10.0 6.5
vertex 51.4285714285714 10.0 6.0
endloop
endfacet
facet normal 1.0 -0.0 -0.0
outer loop
vertex 51.4285714285714 10.0 6.5
vertex 51.4285714285714 50.0 6.0
vertex 51.4285714285714 50.0 6.5
endloop
endfacet
facet normal -8.08540789876134e-016 0.0 -1.0
outer loop
vertex 51.4285714285714 50.0 6.0
vertex 49.6428571428571 10.0 6.0
vertex 49.6428571428571 50.0 6.0
endloop
endfacet
facet normal -8.08540789876134e-016 0.0 -1.0
outer loop
vertex 49.6428571428571 10.0 6.0
vertex 51.4285714285714 50.0 6.0
vertex 51.4285714285714 10.0 6.0
endloop
endfacet
facet normal 1.0 -0.0 -0.0
outer loop
vertex 49.6428571428571 50.0 5.5
vertex 49.6428571428571 10.0 6.0
vertex 49.6428571428571 10.0 5.5
endloop
endfacet
facet normal 1.0 -0.0 -0.0
outer loop
vertex 49.6428571428571 10.0 6.0
vertex 49.6428571428571 50.0 5.5
vertex 49.6428571428571 50.0 6.0
endloop
endfacet
facet normal 0.0 0.0 -1.0
outer loop
vertex 49.6428571428571 50.0 5.5
vertex 47.8571428571428 10.0 5.5
vertex 47.8571428571428 50.0 5.5
endloop
endfacet
facet normal 0.0 0.0 -1.0
outer loop
vertex 47.8571428571428 10.0 5.5
vertex 49.6428571428571 50.0 5.5
vertex 49.6428571428571 10.0 5.5
endloop
endfacet
facet normal 1.0 -0.0 -0.0
outer loop
vertex 47.8571428571428 50.0 5.0
vertex 47.8571428571428 10.0 5.5
vertex 47.8571428571428 10.0 5.0
endloop
endfacet
facet normal 1.0 -0.0 -0.0
outer loop
vertex 47.8571428571428 10.0 5.5
vertex 47.8571428571428 50.0 5.0
vertex 47.8571428571428 50.0 5.5
endloop
endfacet
facet normal -4.0427039493807e-016 0.0 -1.0
outer loop
vertex 47.8571428571428 50.0 5.0
vertex 46.0714285714286 10.0 5.0
vertex 46.0714285714286 50.0 5.0
endloop
endfacet
facet normal -4.0427039493807e-016 0.0 -1.0
outer loop
vertex 46.0714285714286 10.0 5.0
vertex 47.8571428571428 50.0 5.0
vertex 47.8571428571428 10.0 5.0
endloop
endfacet
facet normal 1.0 -0.0 -0.0
outer loop
vertex 46.0714285714286 50.0 4.5
vertex 46.0714285714286 10.0 5.0
vertex 46.0714285714286 10.0 4.5
endloop
endfacet
facet normal 1.0 -0.0 -0.0
outer loop
vertex 46.0714285714286 10.0 5.0
vertex 46.0714285714286 50.0 4.5
vertex 46.0714285714286 50.0 5.0
endloop
endfacet
facet normal 0.0 0.0 -1.0
outer loop
vertex 46.0714285714286 50.0 4.5
vertex 44.2857142857143 10.0 4.5
vertex 44.2857142857143 50.0 4.5
endloop
endfacet
facet normal 0.0 0.0 -1.0
outer loop
vertex 44.2857142857143 10.0 4.5
vertex 46.0714285714286 50.0 4.5
vertex 46.0714285714286 10.0 4.5
endloop
endfacet
facet normal 1.0 -0.0 -0.0
outer loop
vertex 44.2857142857143 50.0 4.0
vertex 44.2857142857143 10.0 4.5
vertex 44.2857142857143 10.0 4.0
endloop
endfacet
facet normal 1.0 -0.0 -0.0
outer loop
vertex 44.2857142857143 10.0 4.5
vertex 44.2857142857143 50.0 4.0
vertex 44.2857142857143 50.0 4.5
endloop
endfacet
facet normal -4.04270394938067e-016 5.93033946639141e-034 -1.0
outer loop
vertex 44.2857142857143 50.0 4.0
vertex 42.5 10.0 4.0
vertex 42.5 50.0 4.0
endloop
endfacet
facet normal -4.04270394938067e-016 5.93033946639141e-034 -1.0
outer loop
vertex 42.5 10.0 4.0
vertex 44.2857142857143 50.0 4.0
vertex 44.2857142857143 10.0 4.0
endloop
endfacet
facet normal 1.0 -0.0 -0.0
outer loop
vertex 42.5 50.0 3.5
vertex 42.5 10.0 4.0
vertex 42.5 10.0 3.5
endloop
endfacet
facet normal 1.0 -0.0 -0.0
outer loop
vertex 42.5 10.0 4.0
vertex 42.5 50.0 3.5
vertex 42.5 50.0 4.0
endloop
endfacet
facet normal 0.0 0.0 -1.0
outer loop
vertex 42.5 50.0 3.5
vertex 40.7142857142857 10.0 3.5
vertex 40.7142857142857 50.0 3.5
endloop
endfacet
facet normal 0.0 0.0 -1.0
outer loop
vertex 40.7142857142857 10.0 3.5
vertex 42.5 50.0 3.5
vertex 42.5 10.0 3.5
endloop
endfacet
facet normal 1.0 -0.0 -0.0
outer loop
vertex 40.7142857142857 50.0 3.0
vertex 40.7142857142857 10.0 3.5
vertex 40.7142857142857 10.0 3.0
endloop
endfacet
facet normal 1.0 -0.0 -0.0
outer loop
vertex 40.7142857142857 10.0 3.5
vertex 40.7142857142857 50.0 3.0
vertex 40.7142857142857 50.0 3.5
endloop
endfacet
facet normal 0.0 0.0 -1.0
outer loop
vertex 40.7142857142857 50.0 3.0
vertex 38.9285714285714 10.0 3.0
vertex 38.9285714285714 50.0 3.0
endloop
endfacet
facet normal 0.0 0.0 -1.0
outer loop
vertex 38.9285714285714 10.0 3.0
vertex 40.7142857142857 50.0 3.0
vertex 40.7142857142857 10.0 3.0
endloop
endfacet
facet normal 1.0 -0.0 -0.0
outer loop
vertex 38.9285714285714 50.0 2.5
vertex 38.9285714285714 10.0 3.0
vertex 38.9285714285714 10.0 2.5
endloop
endfacet
facet normal 1.0 -0.0 -0.0
outer loop
vertex 38.9285714285714 10.0 3.0
vertex 38.9285714285714 50.0 2.5
vertex 38.9285714285714 50.0 3.0
endloop
endfacet
facet normal 2.02135197469033e-016 -4.21375962843571e-048 -1.0
outer loop
vertex 38.9285714285714 50.0 2.5
vertex 37.1428571428571 10.0 2.5
vertex 37.1428571428571 50.0 2.5
endloop
endfacet
facet normal 2.02135197469033e-016 -4.21375962843571e-048 -1.0
outer loop
vertex 37.1428571428571 10.0 2.5
vertex 38.9285714285714 50.0 2.5
vertex 38.9285714285714 10.0 2.5
endloop
endfacet
facet normal 1.0 -0.0 -0.0
outer loop
vertex 37.1428571428571 50.0 2.0
vertex 37.1428571428571 10.0 2.5
vertex 37.1428571428571 10.0 2.0
endloop
endfacet
facet normal 1.0 -0.0 -0.0
outer loop
vertex 37.1428571428571 10.0 2.5
vertex 37.1428571428571 50.0 2.0
vertex 37.1428571428571 50.0 2.5
endloop
endfacet
facet normal -2.02135197469034e-016 2.96516973319567e-034 -1.0
outer loop
vertex 37.1428571428571 50.0 2.0
vertex 35.3571428571429 10.0 2.0
vertex 35.3571428571429 50.0 2.0
endloop
endfacet
facet normal -2.02135197469034e-016 2.96516973319567e-034 -1.0
outer loop
vertex 35.3571428571429 10.0 2.0
vertex 37.1428571428571 50.0 2.0
vertex 37.1428571428571 10.0 2.0
endloop
endfacet
facet normal 1.0 -0.0 -0.0
outer loop
vertex 35.3571428571429 50.0 1.5
vertex 35.3571428571429 10.0 2.0
vertex 35.3571428571429 10.0 1.5
endloop
endfacet
facet normal 1.0 -0.0 -0.0
outer loop
vertex 35.3571428571429 10.0 2.0
vertex 35.3571428571429 50.0 1.5
vertex 35.3571428571429 50.0 2.0
endloop
endfacet
facet normal 3.03202796203549e-016 -6.32063944265356e-048 -1.0
outer loop
vertex 35.3571428571429 50.0 1.5
vertex 33.5714285714286 10.0 1.5
vertex 33.5714285714286 50.0 1.5
endloop
endfacet
facet normal 3.03202796203549e-016 -6.32063944265356e-048 -1.0
outer loop
vertex 33.5714285714286 10.0 1.5
vertex 35.3571428571429 50.0 1.5
vertex 35.3571428571429 10.0 1.5
endloop
endfacet
facet normal 1.0 -0.0 -0.0
outer loop
vertex 33.5714285714286 50.0 1.0
vertex 33.5714285714286 10.0 1.5
vertex 33.5714285714286 10.0 1.0
endloop
endfacet
facet normal 1.0 -0.0 -0.0
outer loop
vertex 33.5714285714286 10.0 1.5
vertex 33.5714285714286 50.0 1.0
vertex 33.5714285714286 50.0 1.5
endloop
endfacet
facet normal 2.02135197469033e-016 4.21375962843571e-048 -1.0
outer loop
vertex 33.5714285714286 50.0 1.0
vertex 31.7857142857143 10.0 1.0
vertex 31.7857142857143 50.0 1.0
endloop
endfacet
facet normal 2.02135197469033e-016 4.21375962843571e-048 -1.0
outer loop
vertex 31.7857142857143 10.0 1.0
vertex 33.5714285714286 50.0 1.0
vertex 33.5714285714286 10.0 1.0
endloop
endfacet
facet normal 1.0 -5.83362763258393e-015 1.15505827125162e-014
outer loop
vertex 30.0 50.99 0.0
vertex 30.0 50.0 0.5
vertex 30.0 50.0 0.0
endloop
endfacet
facet normal 1.0 -5.83362763258393e-015 1.15505827125162e-014
outer loop
vertex 30.0 50.0 0.5
vertex 30.0 50.99 0.0
vertex 30.0 50.0 9.0
endloop
endfacet
facet normal 1.0 -5.83362763258393e-015 1.15505827125162e-014
outer loop
vertex 30.0 50.0 9.0
vertex 30.0 50.99 0.0
vertex 30.0 50.99 9.0
endloop
endfacet
facet normal 0.0 -1.0 0.0
outer loop
vertex 55.495 50.99 7.0
vertex 30.0 50.99 0.0
vertex 55.495 50.99 0.0
endloop
endfacet
facet normal 0.0 -1.0 0.0
outer loop
vertex 30.0 50.99 0.0
vertex 55.495 50.99 7.0
vertex 30.0 50.99 9.0
endloop
endfacet
facet normal 0.0 -1.0 0.0
outer loop
vertex 30.0 50.99 9.0
vertex 55.495 50.99 7.0
vertex 55.495 50.99 9.0
endloop
endfacet
facet normal -0.894427190999917 0.447213595499956 1.45078255755408e-031
outer loop
vertex 55.495 50.99 7.0
vertex 55.0 50.0 0.0
vertex 55.0 50.0 7.0
endloop
endfacet
facet normal -0.894427190999917 0.447213595499956 1.45078255755408e-031
outer loop
vertex 55.0 50.0 0.0
vertex 55.495 50.99 7.0
vertex 55.495 50.99 0.0
endloop
endfacet
facet normal -0.894427190999916 -0.447213595499959 -9.37183369104246e-017
outer loop
vertex 55.0 10.0 7.0
vertex 55.5 9.0 0.0
vertex 55.5 9.0 7.0
endloop
endfacet
facet normal -0.894427190999916 -0.447213595499959 -9.37183369104246e-017
outer loop
vertex 55.5 9.0 0.0
vertex 55.0 10.0 7.0
vertex 55.0 10.0 0.0
endloop
endfacet
facet normal 2.19390600617609e-017 1.0 1.94958465548831e-016
outer loop
vertex 30.0 9.0 8.99999999999998
vertex 55.5 9.0 0.0
vertex 30.0 9.0 0.0
endloop
endfacet
facet normal 2.19390600617609e-017 1.0 1.94958465548831e-016
outer loop
vertex 55.5 9.0 0.0
vertex 30.0 9.0 8.99999999999998
vertex 55.5 9.0 7.0
endloop
endfacet
facet normal 2.19390600617609e-017 1.0 1.94958465548831e-016
outer loop
vertex 55.5 9.0 7.0
vertex 30.0 9.0 8.99999999999998
vertex 55.5 9.0 8.99999999999998
endloop
endfacet
facet normal 1.0 -0.0 -0.0
outer loop
vertex 30.0 9.0 0.0
vertex 30.0 10.0 8.99999999999998
vertex 30.0 9.0 8.99999999999998
endloop
endfacet
facet normal 1.0 -0.0 -0.0
outer loop
vertex 30.0 10.0 8.99999999999998
vertex 30.0 9.0 0.0
vertex 30.0 10.0 0.0
endloop
endfacet
facet normal 1.0 -0.0 -0.0
outer loop
vertex 30.0 10.0 8.99999999999998
vertex 30.0 10.0 0.0
vertex 30.0 10.0 0.5
endloop
endfacet
facet normal 2.83103622122864e-017 -7.36281044626063e-016 -1.0
outer loop
vertex 30.0 50.99 9.0
vertex 55.0 50.0 9.0
vertex 30.0 50.0 9.0
endloop
endfacet
facet normal 2.83103622122864e-017 -7.36281044626063e-016 -1.0
outer loop
vertex 55.0 50.0 9.0
vertex 30.0 50.99 9.0
vertex 55.495 50.99 9.0
endloop
endfacet
facet normal 1.74869422099507e-016 1.0 -5.68496732412235e-016
outer loop
vertex 30.0 50.0 9.0
vertex 31.7857142857143 50.0 0.5
vertex 30.0 50.0 0.5
endloop
endfacet
facet normal 1.74869422099507e-016 1.0 -5.68496732412235e-016
outer loop
vertex 31.7857142857143 50.0 0.5
vertex 30.0 50.0 9.0
vertex 31.7857142857143 50.0 1.0
endloop
endfacet
facet normal 1.74869422099507e-016 1.0 -5.68496732412235e-016
outer loop
vertex 31.7857142857143 50.0 1.0
vertex 30.0 50.0 9.0
vertex 33.5714285714286 50.0 1.0
endloop
endfacet
facet normal 1.74869422099507e-016 1.0 -5.68496732412235e-016
outer loop
vertex 33.5714285714286 50.0 1.0
vertex 30.0 50.0 9.0
vertex 33.5714285714286 50.0 1.5
endloop
endfacet
facet normal 1.74869422099507e-016 1.0 -5.68496732412235e-016
outer loop
vertex 33.5714285714286 50.0 1.5
vertex 30.0 50.0 9.0
vertex 35.3571428571429 50.0 1.5
endloop
endfacet
facet normal 1.74869422099507e-016 1.0 -5.68496732412235e-016
outer loop
vertex 35.3571428571429 50.0 1.5
vertex 30.0 50.0 9.0
vertex 35.3571428571429 50.0 2.0
endloop
endfacet
facet normal 1.74869422099507e-016 1.0 -5.68496732412235e-016
outer loop
vertex 35.3571428571429 50.0 2.0
vertex 30.0 50.0 9.0
vertex 37.1428571428571 50.0 2.5
endloop
endfacet
facet normal 1.74869422099507e-016 1.0 -5.68496732412235e-016
outer loop
vertex 37.1428571428571 50.0 2.5
vertex 30.0 50.0 9.0
vertex 38.9285714285714 50.0 2.5
endloop
endfacet
facet normal 1.74869422099507e-016 1.0 -5.68496732412235e-016
outer loop
vertex 38.9285714285714 50.0 2.5
vertex 30.0 50.0 9.0
vertex 38.9285714285714 50.0 3.0
endloop
endfacet
facet normal 1.74869422099507e-016 1.0 -5.68496732412235e-016
outer loop
vertex 38.9285714285714 50.0 3.0
vertex 30.0 50.0 9.0
vertex 40.7142857142857 50.0 3.0
endloop
endfacet
facet normal 1.74869422099507e-016 1.0 -5.68496732412235e-016
outer loop
vertex 40.7142857142857 50.0 3.0
vertex 30.0 50.0 9.0
vertex 40.7142857142857 50.0 3.5
endloop
endfacet
facet normal 1.74869422099507e-016 1.0 -5.68496732412235e-016
outer loop
vertex 40.7142857142857 50.0 3.5
vertex 30.0 50.0 9.0
vertex 42.5 50.0 3.5
endloop
endfacet
facet normal 1.74869422099507e-016 1.0 -5.68496732412235e-016
outer loop
vertex 42.5 50.0 3.5
vertex 30.0 50.0 9.0
vertex 42.5 50.0 4.0
endloop
endfacet
facet normal 1.74869422099507e-016 1.0 -5.68496732412235e-016
outer loop
vertex 42.5 50.0 4.0
vertex 30.0 50.0 9.0
vertex 44.2857142857143 50.0 4.5
endloop
endfacet
facet normal 1.74869422099507e-016 1.0 -5.68496732412235e-016
outer loop
vertex 44.2857142857143 50.0 4.5
vertex 30.0 50.0 9.0
vertex 46.0714285714286 50.0 4.5
endloop
endfacet
facet normal 1.74869422099507e-016 1.0 -5.68496732412235e-016
outer loop
vertex 46.0714285714286 50.0 4.5
vertex 30.0 50.0 9.0
vertex 46.0714285714286 50.0 5.0
endloop
endfacet
facet normal 1.74869422099507e-016 1.0 -5.68496732412235e-016
outer loop
vertex 46.0714285714286 50.0 5.0
vertex 30.0 50.0 9.0
vertex 47.8571428571428 50.0 5.5
endloop
endfacet
facet normal 1.74869422099507e-016 1.0 -5.68496732412235e-016
outer loop
vertex 47.8571428571428 50.0 5.5
vertex 30.0 50.0 9.0
vertex 49.6428571428571 50.0 5.5
endloop
endfacet
facet normal 1.74869422099507e-016 1.0 -5.68496732412235e-016
outer loop
vertex 49.6428571428571 50.0 5.5
vertex 30.0 50.0 9.0
vertex 49.6428571428571 50.0 6.0
endloop
endfacet
facet normal 1.74869422099507e-016 1.0 -5.68496732412235e-016
outer loop
vertex 49.6428571428571 50.0 6.0
vertex 30.0 50.0 9.0
vertex 51.4285714285714 50.0 6.5
endloop
endfacet
facet normal 1.74869422099507e-016 1.0 -5.68496732412235e-016
outer loop
vertex 51.4285714285714 50.0 6.5
vertex 30.0 50.0 9.0
vertex 53.2142857142857 50.0 6.5
endloop
endfacet
facet normal 1.74869422099507e-016 1.0 -5.68496732412235e-016
outer loop
vertex 53.2142857142857 50.0 6.5
vertex 30.0 50.0 9.0
vertex 53.2142857142857 50.0 7.0
endloop
endfacet
facet normal 1.74869422099507e-016 1.0 -5.68496732412235e-016
outer loop
vertex 53.2142857142857 50.0 7.0
vertex 30.0 50.0 9.0
vertex 55.0 50.0 7.0
endloop
endfacet
facet normal 1.74869422099507e-016 1.0 -5.68496732412235e-016
outer loop
vertex 55.0 50.0 7.0
vertex 30.0 50.0 9.0
vertex 55.0 50.0 9.0
endloop
endfacet
facet normal 1.74869422099507e-016 1.0 -5.68496732412235e-016
outer loop
vertex 51.4285714285714 50.0 6.5
vertex 51.4285714285714 50.0 6.0
vertex 49.6428571428571 50.0 6.0
endloop
endfacet
facet normal 1.74869422099507e-016 1.0 -5.68496732412235e-016
outer loop
vertex 47.8571428571428 50.0 5.5
vertex 47.8571428571428 50.0 5.0
vertex 46.0714285714286 50.0 5.0
endloop
endfacet
facet normal 1.74869422099507e-016 1.0 -5.68496732412235e-016
outer loop
vertex 44.2857142857143 50.0 4.5
vertex 44.2857142857143 50.0 4.0
vertex 42.5 50.0 4.0
endloop
endfacet
facet normal 1.74869422099507e-016 1.0 -5.68496732412235e-016
outer loop
vertex 37.1428571428571 50.0 2.5
vertex 37.1428571428571 50.0 2.0
vertex 35.3571428571429 50.0 2.0
endloop
endfacet
facet normal 0.0 0.0 -1.0
outer loop
vertex 55.0 10.0 8.99999999999998
vertex 30.0 9.0 8.99999999999998
vertex 30.0 10.0 8.99999999999998
endloop
endfacet
facet normal 0.0 0.0 -1.0
outer loop
vertex 30.0 9.0 8.99999999999998
vertex 55.0 10.0 8.99999999999998
vertex 55.5 9.0 8.99999999999998
endloop
endfacet
facet normal 4.54792986171776e-017 -1.0 -2.19311937740236e-016
outer loop
vertex 37.1428571428571 10.0 2.5
vertex 35.3571428571429 10.0 2.0
vertex 37.1428571428571 10.0 2.0
endloop
endfacet
facet normal 4.54792986171776e-017 -1.0 -2.19311937740236e-016
outer loop
vertex 40.7142857142857 10.0 3.5
vertex 38.9285714285714 10.0 3.0
vertex 40.7142857142857 10.0 3.0
endloop
endfacet
facet normal 4.54792986171776e-017 -1.0 -2.19311937740236e-016
outer loop
vertex 42.5 10.0 4.0
vertex 40.7142857142857 10.0 3.5
vertex 42.5 10.0 3.5
endloop
endfacet
facet normal 4.54792986171776e-017 -1.0 -2.19311937740236e-016
outer loop
vertex 44.2857142857143 10.0 4.5
vertex 42.5 10.0 4.0
vertex 44.2857142857143 10.0 4.0
endloop
endfacet
facet normal 4.54792986171776e-017 -1.0 -2.19311937740236e-016
outer loop
vertex 46.0714285714286 10.0 5.0
vertex 44.2857142857143 10.0 4.5
vertex 46.0714285714286 10.0 4.5
endloop
endfacet
facet normal 4.54792986171776e-017 -1.0 -2.19311937740236e-016
outer loop
vertex 47.8571428571428 10.0 5.5
vertex 46.0714285714286 10.0 5.0
vertex 47.8571428571428 10.0 5.0
endloop
endfacet
facet normal 4.54792986171776e-017 -1.0 -2.19311937740236e-016
outer loop
vertex 49.6428571428571 10.0 6.0
vertex 47.8571428571428 10.0 5.5
vertex 49.6428571428571 10.0 5.5
endloop
endfacet
facet normal 4.54792986171776e-017 -1.0 -2.19311937740236e-016
outer loop
vertex 51.4285714285714 10.0 6.5
vertex 49.6428571428571 10.0 6.0
vertex 51.4285714285714 10.0 6.0
endloop
endfacet
facet normal 4.54792986171776e-017 -1.0 -2.19311937740236e-016
outer loop
vertex 55.0 10.0 8.99999999999998
vertex 53.2142857142857 10.0 7.0
vertex 55.0 10.0 7.0
endloop
endfacet
facet normal 4.54792986171776e-017 -1.0 -2.19311937740236e-016
outer loop
vertex 31.7857142857143 10.0 1.0
vertex 30.0 10.0 0.5
vertex 31.7857142857143 10.0 0.5
endloop
endfacet
facet normal 4.54792986171776e-017 -1.0 -2.19311937740236e-016
outer loop
vertex 30.0 10.0 0.5
vertex 31.7857142857143 10.0 1.0
vertex 30.0 10.0 8.99999999999998
endloop
endfacet
facet normal 4.54792986171776e-017 -1.0 -2.19311937740236e-016
outer loop
vertex 30.0 10.0 8.99999999999998
vertex 31.7857142857143 10.0 1.0
vertex 33.5714285714286 10.0 1.0
endloop
endfacet
facet normal 4.54792986171776e-017 -1.0 -2.19311937740236e-016
outer loop
vertex 30.0 10.0 8.99999999999998
vertex 33.5714285714286 10.0 1.0
vertex 33.5714285714286 10.0 1.5
endloop
endfacet
facet normal 4.54792986171776e-017 -1.0 -2.19311937740236e-016
outer loop
vertex 30.0 10.0 8.99999999999998
vertex 33.5714285714286 10.0 1.5
vertex 35.3571428571429 10.0 1.5
endloop
endfacet
facet normal 4.54792986171776e-017 -1.0 -2.19311937740236e-016
outer loop
vertex 30.0 10.0 8.99999999999998
vertex 35.3571428571429 10.0 1.5
vertex 35.3571428571429 10.0 2.0
endloop
endfacet
facet normal 4.54792986171776e-017 -1.0 -2.19311937740236e-016
outer loop
vertex 30.0 10.0 8.99999999999998
vertex 35.3571428571429 10.0 2.0
vertex 37.1428571428571 10.0 2.5
endloop
endfacet
facet normal 4.54792986171776e-017 -1.0 -2.19311937740236e-016
outer loop
vertex 30.0 10.0 8.99999999999998
vertex 37.1428571428571 10.0 2.5
vertex 38.9285714285714 10.0 2.5
endloop
endfacet
facet normal 4.54792986171776e-017 -1.0 -2.19311937740236e-016
outer loop
vertex 30.0 10.0 8.99999999999998
vertex 38.9285714285714 10.0 2.5
vertex 38.9285714285714 10.0 3.0
endloop
endfacet
facet normal 4.54792986171776e-017 -1.0 -2.19311937740236e-016
outer loop
vertex 30.0 10.0 8.99999999999998
vertex 38.9285714285714 10.0 3.0
vertex 40.7142857142857 10.0 3.5
endloop
endfacet
facet normal 4.54792986171776e-017 -1.0 -2.19311937740236e-016
outer loop
vertex 30.0 10.0 8.99999999999998
vertex 40.7142857142857 10.0 3.5
vertex 42.5 10.0 4.0
endloop
endfacet
facet normal 4.54792986171776e-017 -1.0 -2.19311937740236e-016
outer loop
vertex 30.0 10.0 8.99999999999998
vertex 42.5 10.0 4.0
vertex 44.2857142857143 10.0 4.5
endloop
endfacet
facet normal 4.54792986171776e-017 -1.0 -2.19311937740236e-016
outer loop
vertex 30.0 10.0 8.99999999999998
vertex 44.2857142857143 10.0 4.5
vertex 46.0714285714286 10.0 5.0
endloop
endfacet
facet normal 4.54792986171776e-017 -1.0 -2.19311937740236e-016
outer loop
vertex 30.0 10.0 8.99999999999998
vertex 46.0714285714286 10.0 5.0
vertex 47.8571428571428 10.0 5.5
endloop
endfacet
facet normal 4.54792986171776e-017 -1.0 -2.19311937740236e-016
outer loop
vertex 30.0 10.0 8.99999999999998
vertex 47.8571428571428 10.0 5.5
vertex 49.6428571428571 10.0 6.0
endloop
endfacet
facet normal 4.54792986171776e-017 -1.0 -2.19311937740236e-016
outer loop
vertex 30.0 10.0 8.99999999999998
vertex 49.6428571428571 10.0 6.0
vertex 51.4285714285714 10.0 6.5
endloop
endfacet
facet normal 4.54792986171776e-017 -1.0 -2.19311937740236e-016
outer loop
vertex 30.0 10.0 8.99999999999998
vertex 51.4285714285714 10.0 6.5
vertex 53.2142857142857 10.0 6.5
endloop
endfacet
facet normal 4.54792986171776e-017 -1.0 -2.19311937740236e-016
outer loop
vertex 30.0 10.0 8.99999999999998
vertex 53.2142857142857 10.0 6.5
vertex 53.2142857142857 10.0 7.0
endloop
endfacet
facet normal 4.54792986171776e-017 -1.0 -2.19311937740236e-016
outer loop
vertex 30.0 10.0 8.99999999999998
vertex 53.2142857142857 10.0 7.0
vertex 55.0 10.0 8.99999999999998
endloop
endfacet
facet normal 1.0 -3.70188571028518e-032 2.1413631612758e-048
outer loop
vertex 90.0 60.0 7.0
vertex 90.0 31.0 9.0
vertex 90.0 31.0 7.0
endloop
endfacet
facet normal 1.0 -3.70188571028518e-032 2.1413631612758e-048
outer loop
vertex 90.0 29.0 7.0
vertex 90.0 0.0 15.0
vertex 90.0 0.0 7.0
endloop
endfacet
facet normal 1.0 -3.70188571028518e-032 2.1413631612758e-048
outer loop
vertex 90.0 0.0 15.0
vertex 90.0 29.0 7.0
vertex 90.0 29.0 9.0
endloop
endfacet
facet normal 1.0 -3.70188571028518e-032 2.1413631612758e-048
outer loop
vertex 90.0 0.0 15.0
vertex 90.0 29.0 9.0
vertex 90.0 60.0 15.0
endloop
endfacet
facet normal 1.0 -3.70188571028518e-032 2.1413631612758e-048
outer loop
vertex 90.0 60.0 15.0
vertex 90.0 29.0 9.0
vertex 90.0 31.0 9.0
endloop
endfacet
facet normal 1.0 -3.70188571028518e-032 2.1413631612758e-048
outer loop
vertex 90.0 60.0 15.0
vertex 90.0 31.0 9.0
vertex 90.0 60.0 7.0
endloop
endfacet
facet normal -1.0 0.0 0.0
outer loop
vertex 0.0 60.0 15.0
vertex 0.0 0.0 0.0
vertex 0.0 0.0 15.0
endloop
endfacet
facet normal -1.0 0.0 0.0
outer loop
vertex 0.0 0.0 0.0
vertex 0.0 60.0 15.0
vertex 0.0 29.0 2.0
endloop
endfacet
facet normal -1.0 0.0 0.0
outer loop
vertex 0.0 29.0 2.0
vertex 0.0 60.0 15.0
vertex 0.0 31.0 2.0
endloop
endfacet
facet normal -1.0 0.0 0.0
outer loop
vertex 0.0 31.0 2.0
vertex 0.0 60.0 15.0
vertex 0.0 31.0 0.0
endloop
endfacet
facet normal -1.0 0.0 0.0
outer loop
vertex 0.0 31.0 0.0
vertex 0.0 60.0 15.0
vertex 0.0 60.0 0.0
endloop
endfacet
facet normal -1.0 0.0 0.0
outer loop
vertex 0.0 29.0 0.0
vertex 0.0 0.0 0.0
vertex 0.0 29.0 2.0
endloop
endfacet
facet normal -0.894427190999917 0.447213595499956 4.66136184494539e-030
outer loop
vertex 55.495 50.99 9.0
vertex 55.0 50.0 7.0
vertex 55.0 50.0 9.0
endloop
endfacet
facet normal -0.894427190999917 0.447213595499956 4.66136184494539e-030
outer loop
vertex 55.0 50.0 7.0
vertex 55.495 50.99 9.0
vertex 55.495 50.99 7.0
endloop
endfacet
facet normal 0.894427190999916 -0.447213595499958 1.58549361416445e-031
outer loop
vertex 60.0 60.0 0.0
vertex 55.495 50.99 7.0
vertex 55.495 50.99 0.0
endloop
endfacet
facet normal 0.894427190999916 -0.447213595499958 1.58549361416445e-031
outer loop
vertex 55.495 50.99 7.0
vertex 60.0 60.0 0.0
vertex 60.0 60.0 7.0
endloop
endfacet
facet normal -0.894427190999916 -0.447213595499959 8.2003544796624e-018
outer loop
vertex 55.5 9.0 8.99999999999998
vertex 55.0 10.0 7.0
vertex 55.5 9.0 7.0
endloop
endfacet
facet normal -0.894427190999916 -0.447213595499959 8.2003544796624e-018
outer loop
vertex 55.0 10.0 7.0
vertex 55.5 9.0 8.99999999999998
vertex 55.0 10.0 8.99999999999998
endloop
endfacet
endsolid model
