solid model
facet normal 0.0 0.0 -1.0
outer loop
vertex -9.66732774384972 2.5 0.0
vertex -9.78774624384267 -2.22050969041742 0.0
vertex -10.0289470758062 0.388407479037828 0.0
endloop
endfacet
facet normal 0.0 0.0 -1.0
outer loop
vertex -9.78774624384267 -2.22050969041742 0.0
vertex -9.66732774384972 2.5 0.0
vertex -9.68445877669108 -2.5 0.0
endloop
endfacet
facet normal 0.0 0.0 -1.0
outer loop
vertex -9.68445877669108 -2.5 0.0
vertex -9.66732774384972 2.5 0.0
vertex -8.87952668037673 -4.67810279403648 0.0
endloop
endfacet
facet normal 0.0 0.0 -1.0
outer loop
vertex -8.87952668037673 -4.67810279403648 0.0
vertex -9.66732774384972 2.5 0.0
vertex -9.58669173817219 2.9708553206703 0.0
endloop
endfacet
facet normal 0.0 0.0 -1.0
outer loop
vertex -8.87952668037673 -4.67810279403648 0.0
vertex -9.58669173817219 2.9708553206703 0.0
vertex -8.49111920133888 5.35084428176978 0.0
endloop
endfacet
facet normal 0.0 0.0 -1.0
outer loop
vertex -8.87952668037673 -4.67810279403648 0.0
vertex -8.49111920133888 5.35084428176978 0.0
vertex -7.36618204775477 -6.81689092317234 0.0
endloop
endfacet
facet normal 0.0 0.0 -1.0
outer loop
vertex -7.36618204775477 -6.81689092317234 0.0
vertex -8.49111920133888 5.35084428176978 0.0
vertex -6.81689092317237 7.36618204775475 0.0
endloop
endfacet
facet normal 0.0 0.0 -1.0
outer loop
vertex -7.36618204775477 -6.81689092317234 0.0
vertex -6.81689092317237 7.36618204775475 0.0
vertex -5.35084428176971 -8.49111920133893 0.0
endloop
endfacet
facet normal 0.0 0.0 -1.0
outer loop
vertex -5.35084428176971 -8.49111920133893 0.0
vertex -6.81689092317237 7.36618204775475 0.0
vertex -4.67810279403654 8.8795266803767 0.0
endloop
endfacet
facet normal 0.0 0.0 -1.0
outer loop
vertex -5.35084428176971 -8.49111920133893 0.0
vertex -4.67810279403654 8.8795266803767 0.0
vertex -2.97085532067044 -9.58669173817215 0.0
endloop
endfacet
facet normal 0.0 0.0 -1.0
outer loop
vertex -2.97085532067044 -9.58669173817215 0.0
vertex -4.67810279403654 8.8795266803767 0.0
vertex -2.5 9.68445877669108 0.0
endloop
endfacet
facet normal 0.0 0.0 -1.0
outer loop
vertex -2.97085532067044 -9.58669173817215 0.0
vertex -2.5 9.68445877669108 0.0
vertex -2.5 -9.66732774384971 0.0
endloop
endfacet
facet normal 0.0 0.0 -1.0
outer loop
vertex -2.5 -9.66732774384971 0.0
vertex -2.5 9.68445877669108 0.0
vertex -0.388407479037745 -10.0289470758062 0.0
endloop
endfacet
facet normal 0.0 0.0 -1.0
outer loop
vertex -0.388407479037745 -10.0289470758062 0.0
vertex -2.5 9.68445877669108 0.0
vertex -2.22050969041744 9.78774624384267 0.0
endloop
endfacet
facet normal 0.0 0.0 -1.0
outer loop
vertex -0.388407479037745 -10.0289470758062 0.0
vertex -2.22050969041744 9.78774624384267 0.0
vertex 0.388407479037799 10.0289470758062 0.0
endloop
endfacet
facet normal 0.0 0.0 -1.0
outer loop
vertex -0.388407479037745 -10.0289470758062 0.0
vertex 0.388407479037799 10.0289470758062 0.0
vertex 2.22050969041737 -9.7877462438427 0.0
endloop
endfacet
facet normal 0.0 0.0 -1.0
outer loop
vertex 2.22050969041737 -9.7877462438427 0.0
vertex 0.388407479037799 10.0289470758062 0.0
vertex 2.5 9.66732774384973 0.0
endloop
endfacet
facet normal 0.0 0.0 -1.0
outer loop
vertex 2.22050969041737 -9.7877462438427 0.0
vertex 2.5 9.66732774384973 0.0
vertex 2.5 -9.68445877669109 0.0
endloop
endfacet
facet normal 0.0 0.0 -1.0
outer loop
vertex 2.5 -9.68445877669109 0.0
vertex 2.5 9.66732774384973 0.0
vertex 2.97085532067035 9.58669173817219 0.0
endloop
endfacet
facet normal 0.0 0.0 -1.0
outer loop
vertex 2.5 -9.68445877669109 0.0
vertex 2.97085532067035 9.58669173817219 0.0
vertex 4.67810279403639 -8.87952668037679 0.0
endloop
endfacet
facet normal 0.0 0.0 -1.0
outer loop
vertex 4.67810279403639 -8.87952668037679 0.0
vertex 2.97085532067035 9.58669173817219 0.0
vertex 5.35084428176963 8.49111920133896 0.0
endloop
endfacet
facet normal 0.0 0.0 -1.0
outer loop
vertex 4.67810279403639 -8.87952668037679 0.0
vertex 5.35084428176963 8.49111920133896 0.0
vertex 6.81689092317235 -7.36618204775477 0.0
endloop
endfacet
facet normal 0.0 0.0 -1.0
outer loop
vertex 6.81689092317235 -7.36618204775477 0.0
vertex 5.35084428176963 8.49111920133896 0.0
vertex 7.36618204775476 6.81689092317234 0.0
endloop
endfacet
facet normal 0.0 0.0 -1.0
outer loop
vertex 6.81689092317235 -7.36618204775477 0.0
vertex 7.36618204775476 6.81689092317234 0.0
vertex 8.49111920133892 -5.35084428176971 0.0
endloop
endfacet
facet normal 0.0 0.0 -1.0
outer loop
vertex 8.49111920133892 -5.35084428176971 0.0
vertex 7.36618204775476 6.81689092317234 0.0
vertex 8.87952668037675 4.67810279403646 0.0
endloop
endfacet
facet normal 0.0 0.0 -1.0
outer loop
vertex 8.49111920133892 -5.35084428176971 0.0
vertex 8.87952668037675 4.67810279403646 0.0
vertex 9.58669173817216 -2.97085532067039 0.0
endloop
endfacet
facet normal 0.0 0.0 -1.0
outer loop
vertex 9.58669173817216 -2.97085532067039 0.0
vertex 8.87952668037675 4.67810279403646 0.0
vertex 9.68445877669108 2.5 0.0
endloop
endfacet
facet normal 0.0 0.0 -1.0
outer loop
vertex 9.58669173817216 -2.97085532067039 0.0
vertex 9.68445877669108 2.5 0.0
vertex 9.66732774384971 -2.5 0.0
endloop
endfacet
facet normal 0.0 0.0 -1.0
outer loop
vertex 9.66732774384971 -2.5 0.0
vertex 9.68445877669108 2.5 0.0
vertex 10.0289470758062 -0.38840747903777 0.0
endloop
endfacet
facet normal 0.0 0.0 -1.0
outer loop
vertex 10.0289470758062 -0.38840747903777 0.0
vertex 9.68445877669108 2.5 0.0
vertex 9.78774624384268 2.22050969041739 0.0
endloop
endfacet
facet normal 0.0 0.0 -1.0
outer loop
vertex 54.4879264124876 2.5 0.0
vertex 9.78774624384268 2.22050969041739 0.0
vertex 9.68445877669108 2.5 0.0
endloop
endfacet
facet normal 0.0 0.0 -1.0
outer loop
vertex 9.78774624384268 2.22050969041739 0.0
vertex 54.4879264124876 2.5 0.0
vertex 10.0289470758062 -0.38840747903777 0.0
endloop
endfacet
facet normal 0.0 0.0 -1.0
outer loop
vertex 10.0289470758062 -0.38840747903777 0.0
vertex 54.8517759769466 -2.5 0.0
vertex 9.66732774384971 -2.5 0.0
endloop
endfacet
facet normal 0.0 0.0 -1.0
outer loop
vertex 54.8517759769466 -2.5 0.0
vertex 10.0289470758062 -0.38840747903777 0.0
vertex 54.4879264124876 2.5 0.0
endloop
endfacet
facet normal 0.0 0.0 -1.0
outer loop
vertex 54.8517759769466 -2.5 0.0
vertex 54.4879264124876 2.5 0.0
vertex 54.9156864025556 -2.12680983896149 0.0
endloop
endfacet
facet normal 0.0 0.0 -1.0
outer loop
vertex -50.761610435649 31.9884183100604 0.0
vertex -54.9156864025556 2.12680983896153 0.0
vertex -57.3111623851679 17.7603678470046 0.0
endloop
endfacet
facet normal 0.0 0.0 -1.0
outer loop
vertex -54.9156864025556 2.12680983896153 0.0
vertex -50.761610435649 31.9884183100604 0.0
vertex -54.8517759769466 2.5 0.0
endloop
endfacet
facet normal 0.0 0.0 -1.0
outer loop
vertex -54.8517759769466 2.5 0.0
vertex -50.761610435649 31.9884183100604 0.0
vertex -52.4940208729852 16.2675660669174 0.0
endloop
endfacet
facet normal 0.0 0.0 -1.0
outer loop
vertex -52.4940208729852 16.2675660669174 0.0
vertex -50.761610435649 31.9884183100604 0.0
vertex -46.4949745713921 29.2997145508372 0.0
endloop
endfacet
facet normal 0.0 0.0 -1.0
outer loop
vertex -46.4949745713921 29.2997145508372 0.0
vertex -50.761610435649 31.9884183100604 0.0
vertex -40.7527386224683 44.0365109286463 0.0
endloop
endfacet
facet normal 0.0 0.0 -1.0
outer loop
vertex -46.4949745713921 29.2997145508372 0.0
vertex -40.7527386224683 44.0365109286463 0.0
vertex -37.327372589337 40.3351359081849 0.0
endloop
endfacet
facet normal 0.0 0.0 -1.0
outer loop
vertex -37.327372589337 40.3351359081849 0.0
vertex -40.7527386224683 44.0365109286463 0.0
vertex -35.1760046919925 47.9824465948668 0.0
endloop
endfacet
facet normal 0.0 0.0 -1.0
outer loop
vertex -37.327372589337 40.3351359081849 0.0
vertex -35.1760046919925 47.9824465948668 0.0
vertex -25.6159718517185 48.6217844103535 0.0
endloop
endfacet
facet normal 0.0 0.0 -1.0
outer loop
vertex -25.6159718517185 48.6217844103535 0.0
vertex -35.1760046919925 47.9824465948668 0.0
vertex -33.5433689497269 49.1376524349996 0.0
endloop
endfacet
facet normal 0.0 0.0 -1.0
outer loop
vertex -25.6159718517185 48.6217844103535 0.0
vertex -33.5433689497269 49.1376524349996 0.0
vertex -27.9666350192511 53.0835881012201 0.0
endloop
endfacet
facet normal 0.0 0.0 -1.0
outer loop
vertex -25.6159718517185 48.6217844103535 0.0
vertex -27.9666350192511 53.0835881012201 0.0
vertex -13.2746514565216 58.5131064694729 0.0
endloop
endfacet
facet normal 0.0 0.0 -1.0
outer loop
vertex -25.6159718517185 48.6217844103535 0.0
vertex -13.2746514565216 58.5131064694729 0.0
vertex -12.1588849648004 53.5949386562545 0.0
endloop
endfacet
facet normal 0.0 0.0 -1.0
outer loop
vertex -12.1588849648004 53.5949386562545 0.0
vertex -13.2746514565216 58.5131064694729 0.0
vertex 2.32197766557104 59.9550533293115 0.0
endloop
endfacet
facet normal 0.0 0.0 -1.0
outer loop
vertex -12.1588849648004 53.5949386562545 0.0
vertex 2.32197766557104 59.9550533293115 0.0
vertex -2.5 54.4879264124876 0.0
endloop
endfacet
facet normal 0.0 0.0 -1.0
outer loop
vertex -2.5 54.4879264124876 0.0
vertex 2.32197766557104 59.9550533293115 0.0
vertex 2.12680983896139 54.9156864025556 0.0
endloop
endfacet
facet normal 0.0 0.0 -1.0
outer loop
vertex 2.12680983896139 54.9156864025556 0.0
vertex 2.32197766557104 59.9550533293115 0.0
vertex 2.5 54.8517759769466 0.0
endloop
endfacet
facet normal 0.0 0.0 -1.0
outer loop
vertex 2.5 54.8517759769466 0.0
vertex 2.32197766557104 59.9550533293115 0.0
vertex 17.7603678470046 57.3111623851679 0.0
endloop
endfacet
facet normal 0.0 0.0 -1.0
outer loop
vertex 2.5 54.8517759769466 0.0
vertex 17.7603678470046 57.3111623851679 0.0
vertex 16.2675660669175 52.4940208729852 0.0
endloop
endfacet
facet normal 0.0 0.0 -1.0
outer loop
vertex 16.2675660669175 52.4940208729852 0.0
vertex 17.7603678470046 57.3111623851679 0.0
vertex 29.2997145508371 46.4949745713921 0.0
endloop
endfacet
facet normal 0.0 0.0 -1.0
outer loop
vertex 29.2997145508371 46.4949745713921 0.0
vertex 17.7603678470046 57.3111623851679 0.0
vertex 31.9884183100604 50.7616104356491 0.0
endloop
endfacet
facet normal 0.0 0.0 -1.0
outer loop
vertex 29.2997145508371 46.4949745713921 0.0
vertex 31.9884183100604 50.7616104356491 0.0
vertex 40.3351359081848 37.327372589337 0.0
endloop
endfacet
facet normal 0.0 0.0 -1.0
outer loop
vertex 40.3351359081848 37.327372589337 0.0
vertex 31.9884183100604 50.7616104356491 0.0
vertex 37.2432644296145 46.3961824070271 0.0
endloop
endfacet
facet normal 0.0 0.0 -1.0
outer loop
vertex 40.3351359081848 37.327372589337 0.0
vertex 37.2432644296145 46.3961824070271 0.0
vertex 38.7816648090921 45.1181666510902 0.0
endloop
endfacet
facet normal 0.0 0.0 -1.0
outer loop
vertex 40.3351359081848 37.327372589337 0.0
vertex 38.7816648090921 45.1181666510902 0.0
vertex 44.0365109286463 40.7527386224683 0.0
endloop
endfacet
facet normal 0.0 0.0 -1.0
outer loop
vertex 40.3351359081848 37.327372589337 0.0
vertex 44.0365109286463 40.7527386224683 0.0
vertex 48.6217844103535 25.6159718517185 0.0
endloop
endfacet
facet normal 0.0 0.0 -1.0
outer loop
vertex 48.6217844103535 25.6159718517185 0.0
vertex 44.0365109286463 40.7527386224683 0.0
vertex 53.0835881012201 27.9666350192512 0.0
endloop
endfacet
facet normal 0.0 0.0 -1.0
outer loop
vertex 48.6217844103535 25.6159718517185 0.0
vertex 53.0835881012201 27.9666350192512 0.0
vertex 53.5949386562545 12.1588849648003 0.0
endloop
endfacet
facet normal 0.0 0.0 -1.0
outer loop
vertex 53.5949386562545 12.1588849648003 0.0
vertex 53.0835881012201 27.9666350192512 0.0
vertex 58.5131064694729 13.2746514565217 0.0
endloop
endfacet
facet normal 0.0 0.0 -1.0
outer loop
vertex 53.5949386562545 12.1588849648003 0.0
vertex 58.5131064694729 13.2746514565217 0.0
vertex 54.4879264124876 2.5 0.0
endloop
endfacet
facet normal 0.0 0.0 -1.0
outer loop
vertex 54.4879264124876 2.5 0.0
vertex 58.5131064694729 13.2746514565217 0.0
vertex 54.9156864025556 -2.12680983896149 0.0
endloop
endfacet
facet normal 0.0 0.0 -1.0
outer loop
vertex 54.9156864025556 -2.12680983896149 0.0
vertex 58.5131064694729 13.2746514565217 0.0
vertex 57.3111623851679 -17.7603678470046 0.0
endloop
endfacet
facet normal 0.0 0.0 -1.0
outer loop
vertex 57.3111623851679 -17.7603678470046 0.0
vertex 58.5131064694729 13.2746514565217 0.0
vertex 59.9550533293115 -2.32197766557104 0.0
endloop
endfacet
facet normal 0.0 0.0 -1.0
outer loop
vertex -57.3111623851679 17.7603678470046 0.0
vertex -58.5131064694729 -13.2746514565216 0.0
vertex -59.9550533293115 2.32197766557105 0.0
endloop
endfacet
facet normal 0.0 0.0 -1.0
outer loop
vertex -58.5131064694729 -13.2746514565216 0.0
vertex -57.3111623851679 17.7603678470046 0.0
vertex -53.0835881012201 -27.9666350192511 0.0
endloop
endfacet
facet normal 0.0 0.0 -1.0
outer loop
vertex -53.0835881012201 -27.9666350192511 0.0
vertex -57.3111623851679 17.7603678470046 0.0
vertex -54.9156864025556 2.12680983896153 0.0
endloop
endfacet
facet normal 0.0 0.0 -1.0
outer loop
vertex -53.0835881012201 -27.9666350192511 0.0
vertex -54.9156864025556 2.12680983896153 0.0
vertex -54.4879264124876 -2.5 0.0
endloop
endfacet
facet normal 0.0 0.0 -1.0
outer loop
vertex -53.0835881012201 -27.9666350192511 0.0
vertex -54.4879264124876 -2.5 0.0
vertex -53.5949386562545 -12.1588849648004 0.0
endloop
endfacet
facet normal 0.0 0.0 -1.0
outer loop
vertex -53.0835881012201 -27.9666350192511 0.0
vertex -53.5949386562545 -12.1588849648004 0.0
vertex -48.6217844103535 -25.6159718517185 0.0
endloop
endfacet
facet normal 0.0 0.0 -1.0
outer loop
vertex -53.0835881012201 -27.9666350192511 0.0
vertex -48.6217844103535 -25.6159718517185 0.0
vertex -44.0365109286463 -40.7527386224683 0.0
endloop
endfacet
facet normal 0.0 0.0 -1.0
outer loop
vertex -44.0365109286463 -40.7527386224683 0.0
vertex -48.6217844103535 -25.6159718517185 0.0
vertex -40.3351359081848 -37.3273725893371 0.0
endloop
endfacet
facet normal 0.0 0.0 -1.0
outer loop
vertex -44.0365109286463 -40.7527386224683 0.0
vertex -40.3351359081848 -37.3273725893371 0.0
vertex -38.7816648090922 -45.1181666510902 0.0
endloop
endfacet
facet normal 0.0 0.0 -1.0
outer loop
vertex -38.7816648090922 -45.1181666510902 0.0
vertex -40.3351359081848 -37.3273725893371 0.0
vertex -29.2997145508371 -46.4949745713921 0.0
endloop
endfacet
facet normal 0.0 0.0 -1.0
outer loop
vertex -38.7816648090922 -45.1181666510902 0.0
vertex -29.2997145508371 -46.4949745713921 0.0
vertex -37.2432644296145 -46.3961824070271 0.0
endloop
endfacet
facet normal 0.0 0.0 -1.0
outer loop
vertex -37.2432644296145 -46.3961824070271 0.0
vertex -29.2997145508371 -46.4949745713921 0.0
vertex -31.9884183100604 -50.761610435649 0.0
endloop
endfacet
facet normal 0.0 0.0 -1.0
outer loop
vertex -31.9884183100604 -50.761610435649 0.0
vertex -29.2997145508371 -46.4949745713921 0.0
vertex -17.7603678470046 -57.3111623851679 0.0
endloop
endfacet
facet normal 0.0 0.0 -1.0
outer loop
vertex -17.7603678470046 -57.3111623851679 0.0
vertex -29.2997145508371 -46.4949745713921 0.0
vertex -16.2675660669175 -52.4940208729852 0.0
endloop
endfacet
facet normal 0.0 0.0 -1.0
outer loop
vertex -17.7603678470046 -57.3111623851679 0.0
vertex -16.2675660669175 -52.4940208729852 0.0
vertex -2.32197766557105 -59.9550533293115 0.0
endloop
endfacet
facet normal 0.0 0.0 -1.0
outer loop
vertex -2.32197766557105 -59.9550533293115 0.0
vertex -16.2675660669175 -52.4940208729852 0.0
vertex -2.5 -54.8517759769466 0.0
endloop
endfacet
facet normal 0.0 0.0 -1.0
outer loop
vertex -2.32197766557105 -59.9550533293115 0.0
vertex -2.5 -54.8517759769466 0.0
vertex -2.12680983896135 -54.9156864025556 0.0
endloop
endfacet
facet normal 0.0 0.0 -1.0
outer loop
vertex -2.32197766557105 -59.9550533293115 0.0
vertex -2.12680983896135 -54.9156864025556 0.0
vertex 13.2746514565216 -58.5131064694729 0.0
endloop
endfacet
facet normal 0.0 0.0 -1.0
outer loop
vertex 13.2746514565216 -58.5131064694729 0.0
vertex -2.12680983896135 -54.9156864025556 0.0
vertex 2.5 -54.4879264124876 0.0
endloop
endfacet
facet normal 0.0 0.0 -1.0
outer loop
vertex 13.2746514565216 -58.5131064694729 0.0
vertex 2.5 -54.4879264124876 0.0
vertex 12.1588849648004 -53.5949386562545 0.0
endloop
endfacet
facet normal 0.0 0.0 -1.0
outer loop
vertex 13.2746514565216 -58.5131064694729 0.0
vertex 12.1588849648004 -53.5949386562545 0.0
vertex 25.6159718517185 -48.6217844103536 0.0
endloop
endfacet
facet normal 0.0 0.0 -1.0
outer loop
vertex 13.2746514565216 -58.5131064694729 0.0
vertex 25.6159718517185 -48.6217844103536 0.0
vertex 27.9666350192511 -53.0835881012201 0.0
endloop
endfacet
facet normal 0.0 0.0 -1.0
outer loop
vertex 27.9666350192511 -53.0835881012201 0.0
vertex 25.6159718517185 -48.6217844103536 0.0
vertex 37.327372589337 -40.3351359081849 0.0
endloop
endfacet
facet normal 0.0 0.0 -1.0
outer loop
vertex 27.9666350192511 -53.0835881012201 0.0
vertex 37.327372589337 -40.3351359081849 0.0
vertex 33.6683210472116 -49.0492399440719 0.0
endloop
endfacet
facet normal 0.0 0.0 -1.0
outer loop
vertex 33.6683210472116 -49.0492399440719 0.0
vertex 37.327372589337 -40.3351359081849 0.0
vertex 35.3009567894772 -47.8940341039391 0.0
endloop
endfacet
facet normal 0.0 0.0 -1.0
outer loop
vertex 35.3009567894772 -47.8940341039391 0.0
vertex 37.327372589337 -40.3351359081849 0.0
vertex 40.7527386224683 -44.0365109286463 0.0
endloop
endfacet
facet normal 0.0 0.0 -1.0
outer loop
vertex 40.7527386224683 -44.0365109286463 0.0
vertex 37.327372589337 -40.3351359081849 0.0
vertex 46.4949745713921 -29.2997145508371 0.0
endloop
endfacet
facet normal 0.0 0.0 -1.0
outer loop
vertex 40.7527386224683 -44.0365109286463 0.0
vertex 46.4949745713921 -29.2997145508371 0.0
vertex 50.761610435649 -31.9884183100604 0.0
endloop
endfacet
facet normal 0.0 0.0 -1.0
outer loop
vertex 50.761610435649 -31.9884183100604 0.0
vertex 46.4949745713921 -29.2997145508371 0.0
vertex 52.4940208729852 -16.2675660669175 0.0
endloop
endfacet
facet normal 0.0 0.0 -1.0
outer loop
vertex 50.761610435649 -31.9884183100604 0.0
vertex 52.4940208729852 -16.2675660669175 0.0
vertex 57.3111623851679 -17.7603678470046 0.0
endloop
endfacet
facet normal 0.0 0.0 -1.0
outer loop
vertex 57.3111623851679 -17.7603678470046 0.0
vertex 52.4940208729852 -16.2675660669175 0.0
vertex 54.8517759769466 -2.5 0.0
endloop
endfacet
facet normal 0.0 0.0 -1.0
outer loop
vertex 57.3111623851679 -17.7603678470046 0.0
vertex 54.8517759769466 -2.5 0.0
vertex 54.9156864025556 -2.12680983896149 0.0
endloop
endfacet
facet normal 0.985650843893861 -0.168796960669674 0.0
outer loop
vertex 54.8517759769466 -2.5 -100.0
vertex 52.4940208729852 -16.2675660669175 0.0
vertex 52.4940208729852 -16.2675660669175 -100.0
endloop
endfacet
facet normal 0.985650843893861 -0.168796960669674 0.0
outer loop
vertex 52.4940208729852 -16.2675660669175 0.0
vertex 54.8517759769466 -2.5 -100.0
vertex 54.8517759769466 -2.5 0.0
endloop
endfacet
facet normal -0.985650843893862 0.168796960669666 0.0
outer loop
vertex 9.66732774384971 -2.5 0.0
vertex 9.58669173817216 -2.97085532067039 -100.0
vertex 9.58669173817216 -2.97085532067039 0.0
endloop
endfacet
facet normal -0.985650843893862 0.168796960669666 0.0
outer loop
vertex 9.58669173817216 -2.97085532067039 -100.0
vertex 9.66732774384971 -2.5 0.0
vertex 9.66732774384971 -2.5 -100.0
endloop
endfacet
facet normal 0.0 0.0 -1.0
outer loop
vertex -54.8517759769466 2.5 0.0
vertex -54.4879264124876 -2.5 0.0
vertex -54.9156864025556 2.12680983896153 0.0
endloop
endfacet
facet normal 0.0 0.0 -1.0
outer loop
vertex -54.4879264124876 -2.5 0.0
vertex -54.8517759769466 2.5 0.0
vertex -9.66732774384972 2.5 0.0
endloop
endfacet
facet normal 0.0 0.0 -1.0
outer loop
vertex -54.4879264124876 -2.5 0.0
vertex -9.66732774384972 2.5 0.0
vertex -10.0289470758062 0.388407479037828 0.0
endloop
endfacet
facet normal 0.0 0.0 -1.0
outer loop
vertex -54.4879264124876 -2.5 0.0
vertex -9.78774624384267 -2.22050969041742 0.0
vertex -9.68445877669108 -2.5 0.0
endloop
endfacet
facet normal 0.0 0.0 -1.0
outer loop
vertex -9.78774624384267 -2.22050969041742 0.0
vertex -54.4879264124876 -2.5 0.0
vertex -10.0289470758062 0.388407479037828 0.0
endloop
endfacet
facet normal 0.816317871132797 0.577602920066387 0.0
outer loop
vertex -8.87952668037673 -4.67810279403648 -100.0
vertex -7.36618204775477 -6.81689092317234 0.0
vertex -7.36618204775477 -6.81689092317234 -100.0
endloop
endfacet
facet normal 0.816317871132797 0.577602920066387 0.0
outer loop
vertex -7.36618204775477 -6.81689092317234 0.0
vertex -8.87952668037673 -4.67810279403648 -100.0
vertex -8.87952668037673 -4.67810279403648 0.0
endloop
endfacet
facet normal 0.418150553931041 0.908377737643962 0.0
outer loop
vertex -5.35084428176971 -8.49111920133893 0.0
vertex -2.97085532067044 -9.58669173817215 -100.0
vertex -5.35084428176971 -8.49111920133893 -100.0
endloop
endfacet
facet normal 0.418150553931041 0.908377737643962 0.0
outer loop
vertex -2.97085532067044 -9.58669173817215 -100.0
vertex -5.35084428176971 -8.49111920133893 0.0
vertex -2.97085532067044 -9.58669173817215 0.0
endloop
endfacet
facet normal 0.63900787796847 0.769200189738817 0.0
outer loop
vertex -7.36618204775477 -6.81689092317234 0.0
vertex -5.35084428176971 -8.49111920133893 -100.0
vertex -7.36618204775477 -6.81689092317234 -100.0
endloop
endfacet
facet normal 0.63900787796847 0.769200189738817 0.0
outer loop
vertex -5.35084428176971 -8.49111920133893 -100.0
vertex -7.36618204775477 -6.81689092317234 0.0
vertex -5.35084428176971 -8.49111920133893 0.0
endloop
endfacet
facet normal 0.908377737643963 -0.41815055393104 1.13388059068825e-016
outer loop
vertex 50.761610435649 -31.9884183100604 0.0
vertex 57.3111623851679 -17.7603678470046 9.99960045764917
vertex 50.761610435649 -31.9884183100605 9.99960045764917
endloop
endfacet
facet normal 0.908377737643963 -0.41815055393104 1.13388059068825e-016
outer loop
vertex 57.3111623851679 -17.7603678470046 9.99960045764917
vertex 50.761610435649 -31.9884183100604 0.0
vertex 57.3111623851679 -17.7603678470046 0.0
endloop
endfacet
facet normal 0.93799715040849 0.346642965925393 0.0
outer loop
vertex -9.68445877669108 -2.5 -100.0
vertex -8.87952668037673 -4.67810279403648 0.0
vertex -8.87952668037673 -4.67810279403648 -100.0
endloop
endfacet
facet normal 0.93799715040849 0.346642965925393 0.0
outer loop
vertex -8.87952668037673 -4.67810279403648 0.0
vertex -9.68445877669108 -2.5 -100.0
vertex -9.68445877669108 -2.5 0.0
endloop
endfacet
facet normal -0.995753473997428 -0.0920598665111672 -0.0
outer loop
vertex -54.4879264124876 -2.5 0.0
vertex -53.5949386562545 -12.1588849648004 -100.0
vertex -53.5949386562545 -12.1588849648004 0.0
endloop
endfacet
facet normal -0.995753473997428 -0.0920598665111672 -0.0
outer loop
vertex -53.5949386562545 -12.1588849648004 -100.0
vertex -54.4879264124876 -2.5 0.0
vertex -54.4879264124876 -2.5 -100.0
endloop
endfacet
facet normal 0.168796960669669 0.985650843893862 0.0
outer loop
vertex -2.97085532067044 -9.58669173817215 0.0
vertex -2.5 -9.66732774384971 -100.0
vertex -2.97085532067044 -9.58669173817215 -100.0
endloop
endfacet
facet normal 0.168796960669669 0.985650843893862 0.0
outer loop
vertex -2.5 -9.66732774384971 -100.0
vertex -2.97085532067044 -9.58669173817215 0.0
vertex -2.5 -9.66732774384971 0.0
endloop
endfacet
facet normal 1.0 0.0 0.0
outer loop
vertex -2.5 -9.66732774384971 -100.0
vertex -2.5 -54.8517759769466 0.0
vertex -2.5 -54.8517759769466 -100.0
endloop
endfacet
facet normal 1.0 0.0 0.0
outer loop
vertex -2.5 -54.8517759769466 0.0
vertex -2.5 -9.66732774384971 -100.0
vertex -2.5 -9.66732774384971 0.0
endloop
endfacet
facet normal -0.16879696066967 -0.985650843893862 -0.0
outer loop
vertex -2.5 -54.8517759769466 0.0
vertex -16.2675660669175 -52.4940208729852 -100.0
vertex -2.5 -54.8517759769466 -100.0
endloop
endfacet
facet normal -0.16879696066967 -0.985650843893862 -0.0
outer loop
vertex -16.2675660669175 -52.4940208729852 -100.0
vertex -2.5 -54.8517759769466 0.0
vertex -16.2675660669175 -52.4940208729852 0.0
endloop
endfacet
facet normal -0.41815055393104 -0.908377737643963 -0.0
outer loop
vertex -16.2675660669175 -52.4940208729852 0.0
vertex -29.2997145508371 -46.4949745713921 -100.0
vertex -16.2675660669175 -52.4940208729852 -100.0
endloop
endfacet
facet normal -0.41815055393104 -0.908377737643963 -0.0
outer loop
vertex -29.2997145508371 -46.4949745713921 -100.0
vertex -16.2675660669175 -52.4940208729852 0.0
vertex -29.2997145508371 -46.4949745713921 0.0
endloop
endfacet
facet normal -1.0 1.61128470099818e-017 0.0
outer loop
vertex 2.5 -9.68445877669109 0.0
vertex 2.5 -54.4879264124876 -100.0
vertex 2.5 -54.4879264124876 0.0
endloop
endfacet
facet normal -1.0 1.61128470099818e-017 0.0
outer loop
vertex 2.5 -54.4879264124876 -100.0
vertex 2.5 -9.68445877669109 0.0
vertex 2.5 -9.68445877669109 -100.0
endloop
endfacet
facet normal -0.346642965925388 0.937997150408492 0.0
outer loop
vertex 2.5 -9.68445877669109 0.0
vertex 4.67810279403639 -8.87952668037679 -100.0
vertex 2.5 -9.68445877669109 -100.0
endloop
endfacet
facet normal -0.346642965925388 0.937997150408492 0.0
outer loop
vertex 4.67810279403639 -8.87952668037679 -100.0
vertex 2.5 -9.68445877669109 0.0
vertex 4.67810279403639 -8.87952668037679 0.0
endloop
endfacet
facet normal -0.577602920066386 0.816317871132798 0.0
outer loop
vertex 4.67810279403639 -8.87952668037679 0.0
vertex 6.81689092317235 -7.36618204775477 -100.0
vertex 4.67810279403639 -8.87952668037679 -100.0
endloop
endfacet
facet normal -0.577602920066386 0.816317871132798 0.0
outer loop
vertex 6.81689092317235 -7.36618204775477 -100.0
vertex 4.67810279403639 -8.87952668037679 0.0
vertex 6.81689092317235 -7.36618204775477 0.0
endloop
endfacet
facet normal -0.76920018973882 0.639007877968467 0.0
outer loop
vertex 8.49111920133892 -5.35084428176971 0.0
vertex 6.81689092317235 -7.36618204775477 -100.0
vertex 6.81689092317235 -7.36618204775477 0.0
endloop
endfacet
facet normal -0.76920018973882 0.639007877968467 0.0
outer loop
vertex 6.81689092317235 -7.36618204775477 -100.0
vertex 8.49111920133892 -5.35084428176971 0.0
vertex 8.49111920133892 -5.35084428176971 -100.0
endloop
endfacet
facet normal -0.908377737643963 0.41815055393104 0.0
outer loop
vertex 9.58669173817216 -2.97085532067039 0.0
vertex 8.49111920133892 -5.35084428176971 -100.0
vertex 8.49111920133892 -5.35084428176971 0.0
endloop
endfacet
facet normal -0.908377737643963 0.41815055393104 0.0
outer loop
vertex 8.49111920133892 -5.35084428176971 -100.0
vertex 9.58669173817216 -2.97085532067039 0.0
vertex 9.58669173817216 -2.97085532067039 -100.0
endloop
endfacet
facet normal -0.639007877968469 -0.769200189738818 -0.0
outer loop
vertex -29.2997145508371 -46.4949745713921 0.0
vertex -40.3351359081848 -37.3273725893371 -100.0
vertex -29.2997145508371 -46.4949745713921 -100.0
endloop
endfacet
facet normal -0.639007877968469 -0.769200189738818 -0.0
outer loop
vertex -40.3351359081848 -37.3273725893371 -100.0
vertex -29.2997145508371 -46.4949745713921 0.0
vertex -40.3351359081848 -37.3273725893371 0.0
endloop
endfacet
facet normal -0.816317871132796 -0.577602920066389 -0.0
outer loop
vertex -48.6217844103535 -25.6159718517185 0.0
vertex -40.3351359081848 -37.3273725893371 -100.0
vertex -40.3351359081848 -37.3273725893371 0.0
endloop
endfacet
facet normal -0.816317871132796 -0.577602920066389 -0.0
outer loop
vertex -40.3351359081848 -37.3273725893371 -100.0
vertex -48.6217844103535 -25.6159718517185 0.0
vertex -48.6217844103535 -25.6159718517185 -100.0
endloop
endfacet
facet normal -0.93799715040849 -0.346642965925391 -0.0
outer loop
vertex -53.5949386562545 -12.1588849648004 0.0
vertex -48.6217844103535 -25.6159718517185 -100.0
vertex -48.6217844103535 -25.6159718517185 0.0
endloop
endfacet
facet normal -0.93799715040849 -0.346642965925391 -0.0
outer loop
vertex -48.6217844103535 -25.6159718517185 -100.0
vertex -53.5949386562545 -12.1588849648004 0.0
vertex -53.5949386562545 -12.1588849648004 -100.0
endloop
endfacet
facet normal 0.0 0.0 -1.0
outer loop
vertex 2.12680983896139 54.9156864025556 0.0
vertex -2.5 9.68445877669108 0.0
vertex -2.5 54.4879264124876 0.0
endloop
endfacet
facet normal 0.0 0.0 -1.0
outer loop
vertex -2.5 9.68445877669108 0.0
vertex 2.12680983896139 54.9156864025556 0.0
vertex -2.22050969041744 9.78774624384267 0.0
endloop
endfacet
facet normal 0.0 0.0 -1.0
outer loop
vertex -2.22050969041744 9.78774624384267 0.0
vertex 2.12680983896139 54.9156864025556 0.0
vertex 0.388407479037799 10.0289470758062 0.0
endloop
endfacet
facet normal 0.0 0.0 -1.0
outer loop
vertex 0.388407479037799 10.0289470758062 0.0
vertex 2.12680983896139 54.9156864025556 0.0
vertex 2.5 9.66732774384973 0.0
endloop
endfacet
facet normal 0.0 0.0 -1.0
outer loop
vertex 2.5 9.66732774384973 0.0
vertex 2.12680983896139 54.9156864025556 0.0
vertex 2.5 54.8517759769466 0.0
endloop
endfacet
facet normal 0.0 0.0 -1.0
outer loop
vertex 2.5 -9.68445877669109 -100.0
vertex 12.1588849648004 -53.5949386562545 -100.0
vertex 2.5 -54.4879264124876 -100.0
endloop
endfacet
facet normal 0.0 0.0 -1.0
outer loop
vertex 12.1588849648004 -53.5949386562545 -100.0
vertex 2.5 -9.68445877669109 -100.0
vertex 4.67810279403639 -8.87952668037679 -100.0
endloop
endfacet
facet normal 0.0 0.0 -1.0
outer loop
vertex 12.1588849648004 -53.5949386562545 -100.0
vertex 4.67810279403639 -8.87952668037679 -100.0
vertex 6.81689092317235 -7.36618204775477 -100.0
endloop
endfacet
facet normal 0.0 0.0 -1.0
outer loop
vertex 12.1588849648004 -53.5949386562545 -100.0
vertex 6.81689092317235 -7.36618204775477 -100.0
vertex 8.49111920133892 -5.35084428176971 -100.0
endloop
endfacet
facet normal 0.0 0.0 -1.0
outer loop
vertex 12.1588849648004 -53.5949386562545 -100.0
vertex 8.49111920133892 -5.35084428176971 -100.0
vertex 9.58669173817216 -2.97085532067039 -100.0
endloop
endfacet
facet normal 0.0 0.0 -1.0
outer loop
vertex 12.1588849648004 -53.5949386562545 -100.0
vertex 9.58669173817216 -2.97085532067039 -100.0
vertex 9.66732774384971 -2.5 -100.0
endloop
endfacet
facet normal 0.0 0.0 -1.0
outer loop
vertex 12.1588849648004 -53.5949386562545 -100.0
vertex 9.66732774384971 -2.5 -100.0
vertex 54.8517759769466 -2.5 -100.0
endloop
endfacet
facet normal 0.0 0.0 -1.0
outer loop
vertex 12.1588849648004 -53.5949386562545 -100.0
vertex 54.8517759769466 -2.5 -100.0
vertex 25.6159718517185 -48.6217844103536 -100.0
endloop
endfacet
facet normal 0.0 0.0 -1.0
outer loop
vertex 25.6159718517185 -48.6217844103536 -100.0
vertex 54.8517759769466 -2.5 -100.0
vertex 37.327372589337 -40.3351359081849 -100.0
endloop
endfacet
facet normal 0.0 0.0 -1.0
outer loop
vertex 37.327372589337 -40.3351359081849 -100.0
vertex 54.8517759769466 -2.5 -100.0
vertex 46.4949745713921 -29.2997145508371 -100.0
endloop
endfacet
facet normal 0.0 0.0 -1.0
outer loop
vertex 46.4949745713921 -29.2997145508371 -100.0
vertex 54.8517759769466 -2.5 -100.0
vertex 52.4940208729852 -16.2675660669175 -100.0
endloop
endfacet
facet normal 0.0 0.0 -1.0
outer loop
vertex -0.388407479037745 -10.0289470758062 0.0
vertex -2.5 -54.8517759769466 0.0
vertex -2.5 -9.66732774384971 0.0
endloop
endfacet
facet normal 0.0 0.0 -1.0
outer loop
vertex -2.5 -54.8517759769466 0.0
vertex -0.388407479037745 -10.0289470758062 0.0
vertex -2.12680983896135 -54.9156864025556 0.0
endloop
endfacet
facet normal 0.0 0.0 -1.0
outer loop
vertex -2.12680983896135 -54.9156864025556 0.0
vertex -0.388407479037745 -10.0289470758062 0.0
vertex 2.5 -54.4879264124876 0.0
endloop
endfacet
facet normal 0.0 0.0 -1.0
outer loop
vertex 2.5 -54.4879264124876 0.0
vertex -0.388407479037745 -10.0289470758062 0.0
vertex 2.22050969041737 -9.7877462438427 0.0
endloop
endfacet
facet normal 0.0 0.0 -1.0
outer loop
vertex 2.5 -54.4879264124876 0.0
vertex 2.22050969041737 -9.7877462438427 0.0
vertex 2.5 -9.68445877669109 0.0
endloop
endfacet
facet normal 1.5976988715411e-017 1.0 0.0
outer loop
vertex 9.66732774384971 -2.5 0.0
vertex 54.8517759769466 -2.5 -100.0
vertex 9.66732774384971 -2.5 -100.0
endloop
endfacet
facet normal 1.5976988715411e-017 1.0 0.0
outer loop
vertex 54.8517759769466 -2.5 -100.0
vertex 9.66732774384971 -2.5 0.0
vertex 54.8517759769466 -2.5 0.0
endloop
endfacet
facet normal -0.937997150408491 -0.346642965925389 -0.0
outer loop
vertex 8.87952668037675 4.67810279403646 0.0
vertex 9.68445877669108 2.5 -100.0
vertex 9.68445877669108 2.5 0.0
endloop
endfacet
facet normal -0.937997150408491 -0.346642965925389 -0.0
outer loop
vertex 9.68445877669108 2.5 -100.0
vertex 8.87952668037675 4.67810279403646 0.0
vertex 8.87952668037675 4.67810279403646 -100.0
endloop
endfacet
facet normal 0.985650843893861 -0.168796960669673 2.24264800014567e-017
outer loop
vertex 59.9550533293115 -2.32197766557104 0.0
vertex 57.3111623851679 -17.7603678470046 9.99960045764917
vertex 57.3111623851679 -17.7603678470046 0.0
endloop
endfacet
facet normal 0.985650843893861 -0.168796960669673 2.24264800014567e-017
outer loop
vertex 57.3111623851679 -17.7603678470046 9.99960045764917
vertex 59.9550533293115 -2.32197766557104 0.0
vertex 59.9550533293115 -2.32197766557109 9.99960045764917
endloop
endfacet
facet normal 0.0 0.0 -1.0
outer loop
vertex -52.4940208729852 16.2675660669174 -100.0
vertex -9.66732774384972 2.5 -100.0
vertex -54.8517759769466 2.5 -100.0
endloop
endfacet
facet normal 0.0 0.0 -1.0
outer loop
vertex -9.66732774384972 2.5 -100.0
vertex -52.4940208729852 16.2675660669174 -100.0
vertex -46.4949745713921 29.2997145508372 -100.0
endloop
endfacet
facet normal 0.0 0.0 -1.0
outer loop
vertex -9.66732774384972 2.5 -100.0
vertex -46.4949745713921 29.2997145508372 -100.0
vertex -37.327372589337 40.3351359081849 -100.0
endloop
endfacet
facet normal 0.0 0.0 -1.0
outer loop
vertex -9.66732774384972 2.5 -100.0
vertex -37.327372589337 40.3351359081849 -100.0
vertex -25.6159718517185 48.6217844103535 -100.0
endloop
endfacet
facet normal 0.0 0.0 -1.0
outer loop
vertex -9.66732774384972 2.5 -100.0
vertex -25.6159718517185 48.6217844103535 -100.0
vertex -12.1588849648004 53.5949386562545 -100.0
endloop
endfacet
facet normal 0.0 0.0 -1.0
outer loop
vertex -9.66732774384972 2.5 -100.0
vertex -12.1588849648004 53.5949386562545 -100.0
vertex -2.5 54.4879264124876 -100.0
endloop
endfacet
facet normal 0.0 0.0 -1.0
outer loop
vertex -9.66732774384972 2.5 -100.0
vertex -2.5 54.4879264124876 -100.0
vertex -9.58669173817219 2.9708553206703 -100.0
endloop
endfacet
facet normal 0.0 0.0 -1.0
outer loop
vertex -9.58669173817219 2.9708553206703 -100.0
vertex -2.5 54.4879264124876 -100.0
vertex -8.49111920133888 5.35084428176978 -100.0
endloop
endfacet
facet normal 0.0 0.0 -1.0
outer loop
vertex -8.49111920133888 5.35084428176978 -100.0
vertex -2.5 54.4879264124876 -100.0
vertex -6.81689092317237 7.36618204775475 -100.0
endloop
endfacet
facet normal 0.0 0.0 -1.0
outer loop
vertex -6.81689092317237 7.36618204775475 -100.0
vertex -2.5 54.4879264124876 -100.0
vertex -4.67810279403654 8.8795266803767 -100.0
endloop
endfacet
facet normal 0.0 0.0 -1.0
outer loop
vertex -4.67810279403654 8.8795266803767 -100.0
vertex -2.5 54.4879264124876 -100.0
vertex -2.5 9.68445877669108 -100.0
endloop
endfacet
facet normal 0.0 0.0 -1.0
outer loop
vertex -9.68445877669108 -2.5 -100.0
vertex -53.5949386562545 -12.1588849648004 -100.0
vertex -54.4879264124876 -2.5 -100.0
endloop
endfacet
facet normal 0.0 0.0 -1.0
outer loop
vertex -53.5949386562545 -12.1588849648004 -100.0
vertex -9.68445877669108 -2.5 -100.0
vertex -48.6217844103535 -25.6159718517185 -100.0
endloop
endfacet
facet normal 0.0 0.0 -1.0
outer loop
vertex -48.6217844103535 -25.6159718517185 -100.0
vertex -9.68445877669108 -2.5 -100.0
vertex -40.3351359081848 -37.3273725893371 -100.0
endloop
endfacet
facet normal 0.0 0.0 -1.0
outer loop
vertex -40.3351359081848 -37.3273725893371 -100.0
vertex -9.68445877669108 -2.5 -100.0
vertex -29.2997145508371 -46.4949745713921 -100.0
endloop
endfacet
facet normal 0.0 0.0 -1.0
outer loop
vertex -29.2997145508371 -46.4949745713921 -100.0
vertex -9.68445877669108 -2.5 -100.0
vertex -16.2675660669175 -52.4940208729852 -100.0
endloop
endfacet
facet normal 0.0 0.0 -1.0
outer loop
vertex -16.2675660669175 -52.4940208729852 -100.0
vertex -9.68445877669108 -2.5 -100.0
vertex -2.5 -54.8517759769466 -100.0
endloop
endfacet
facet normal 0.0 0.0 -1.0
outer loop
vertex -2.5 -54.8517759769466 -100.0
vertex -9.68445877669108 -2.5 -100.0
vertex -8.87952668037673 -4.67810279403648 -100.0
endloop
endfacet
facet normal 0.0 0.0 -1.0
outer loop
vertex -2.5 -54.8517759769466 -100.0
vertex -8.87952668037673 -4.67810279403648 -100.0
vertex -7.36618204775477 -6.81689092317234 -100.0
endloop
endfacet
facet normal 0.0 0.0 -1.0
outer loop
vertex -2.5 -54.8517759769466 -100.0
vertex -7.36618204775477 -6.81689092317234 -100.0
vertex -5.35084428176971 -8.49111920133893 -100.0
endloop
endfacet
facet normal 0.0 0.0 -1.0
outer loop
vertex -2.5 -54.8517759769466 -100.0
vertex -5.35084428176971 -8.49111920133893 -100.0
vertex -2.97085532067044 -9.58669173817215 -100.0
endloop
endfacet
facet normal 0.0 0.0 -1.0
outer loop
vertex -2.5 -54.8517759769466 -100.0
vertex -2.97085532067044 -9.58669173817215 -100.0
vertex -2.5 -9.66732774384971 -100.0
endloop
endfacet
facet normal -0.0 1.0 0.0
outer loop
vertex -54.4879264124876 -2.5 0.0
vertex -9.68445877669108 -2.5 -100.0
vertex -54.4879264124876 -2.5 -100.0
endloop
endfacet
facet normal -0.0 1.0 0.0
outer loop
vertex -9.68445877669108 -2.5 -100.0
vertex -54.4879264124876 -2.5 0.0
vertex -9.68445877669108 -2.5 0.0
endloop
endfacet
facet normal -0.908377737643964 0.418150553931039 0.0
outer loop
vertex -46.4949745713921 29.2997145508372 0.0
vertex -52.4940208729852 16.2675660669174 -100.0
vertex -52.4940208729852 16.2675660669174 0.0
endloop
endfacet
facet normal -0.908377737643964 0.418150553931039 0.0
outer loop
vertex -52.4940208729852 16.2675660669174 -100.0
vertex -46.4949745713921 29.2997145508372 0.0
vertex -46.4949745713921 29.2997145508372 -100.0
endloop
endfacet
facet normal -0.769200189738818 0.63900787796847 0.0
outer loop
vertex -37.327372589337 40.3351359081849 0.0
vertex -46.4949745713921 29.2997145508372 -100.0
vertex -46.4949745713921 29.2997145508372 0.0
endloop
endfacet
facet normal -0.769200189738818 0.63900787796847 0.0
outer loop
vertex -46.4949745713921 29.2997145508372 -100.0
vertex -37.327372589337 40.3351359081849 0.0
vertex -37.327372589337 40.3351359081849 -100.0
endloop
endfacet
facet normal -0.577602920066387 0.816317871132798 0.0
outer loop
vertex -37.327372589337 40.3351359081849 0.0
vertex -25.6159718517185 48.6217844103535 -100.0
vertex -37.327372589337 40.3351359081849 -100.0
endloop
endfacet
facet normal -0.577602920066387 0.816317871132798 0.0
outer loop
vertex -25.6159718517185 48.6217844103535 -100.0
vertex -37.327372589337 40.3351359081849 0.0
vertex -25.6159718517185 48.6217844103535 0.0
endloop
endfacet
facet normal -0.346642965925393 0.93799715040849 0.0
outer loop
vertex -25.6159718517185 48.6217844103535 0.0
vertex -12.1588849648004 53.5949386562545 -100.0
vertex -25.6159718517185 48.6217844103535 -100.0
endloop
endfacet
facet normal -0.346642965925393 0.93799715040849 0.0
outer loop
vertex -12.1588849648004 53.5949386562545 -100.0
vertex -25.6159718517185 48.6217844103535 0.0
vertex -12.1588849648004 53.5949386562545 0.0
endloop
endfacet
facet normal -0.0920598665111679 0.995753473997428 0.0
outer loop
vertex -12.1588849648004 53.5949386562545 0.0
vertex -2.5 54.4879264124876 -100.0
vertex -12.1588849648004 53.5949386562545 -100.0
endloop
endfacet
facet normal -0.0920598665111679 0.995753473997428 0.0
outer loop
vertex -2.5 54.4879264124876 -100.0
vertex -12.1588849648004 53.5949386562545 0.0
vertex -2.5 54.4879264124876 0.0
endloop
endfacet
facet normal 1.0 1.61128470099818e-017 0.0
outer loop
vertex -2.5 54.4879264124876 -100.0
vertex -2.5 9.68445877669108 0.0
vertex -2.5 9.68445877669108 -100.0
endloop
endfacet
facet normal 1.0 1.61128470099818e-017 0.0
outer loop
vertex -2.5 9.68445877669108 0.0
vertex -2.5 54.4879264124876 -100.0
vertex -2.5 54.4879264124876 0.0
endloop
endfacet
facet normal 0.346642965925398 -0.937997150408488 0.0
outer loop
vertex -2.5 9.68445877669108 0.0
vertex -4.67810279403654 8.8795266803767 -100.0
vertex -2.5 9.68445877669108 -100.0
endloop
endfacet
facet normal 0.346642965925398 -0.937997150408488 0.0
outer loop
vertex -4.67810279403654 8.8795266803767 -100.0
vertex -2.5 9.68445877669108 0.0
vertex -4.67810279403654 8.8795266803767 0.0
endloop
endfacet
facet normal 0.908377737643963 -0.418150553931039 0.0
outer loop
vertex 52.4940208729852 -16.2675660669175 -100.0
vertex 46.4949745713921 -29.2997145508371 0.0
vertex 46.4949745713921 -29.2997145508371 -100.0
endloop
endfacet
facet normal 0.908377737643963 -0.418150553931039 0.0
outer loop
vertex 46.4949745713921 -29.2997145508371 0.0
vertex 52.4940208729852 -16.2675660669175 -100.0
vertex 52.4940208729852 -16.2675660669175 0.0
endloop
endfacet
facet normal 0.769200189738818 -0.63900787796847 0.0
outer loop
vertex 46.4949745713921 -29.2997145508371 -100.0
vertex 37.327372589337 -40.3351359081849 0.0
vertex 37.327372589337 -40.3351359081849 -100.0
endloop
endfacet
facet normal 0.769200189738818 -0.63900787796847 0.0
outer loop
vertex 37.327372589337 -40.3351359081849 0.0
vertex 46.4949745713921 -29.2997145508371 -100.0
vertex 46.4949745713921 -29.2997145508371 0.0
endloop
endfacet
facet normal 0.577602920066388 -0.816317871132797 0.0
outer loop
vertex 37.327372589337 -40.3351359081849 0.0
vertex 25.6159718517185 -48.6217844103536 -100.0
vertex 37.327372589337 -40.3351359081849 -100.0
endloop
endfacet
facet normal 0.577602920066388 -0.816317871132797 0.0
outer loop
vertex 25.6159718517185 -48.6217844103536 -100.0
vertex 37.327372589337 -40.3351359081849 0.0
vertex 25.6159718517185 -48.6217844103536 0.0
endloop
endfacet
facet normal 0.346642965925393 -0.93799715040849 0.0
outer loop
vertex 25.6159718517185 -48.6217844103536 0.0
vertex 12.1588849648004 -53.5949386562545 -100.0
vertex 25.6159718517185 -48.6217844103536 -100.0
endloop
endfacet
facet normal 0.346642965925393 -0.93799715040849 0.0
outer loop
vertex 12.1588849648004 -53.5949386562545 -100.0
vertex 25.6159718517185 -48.6217844103536 0.0
vertex 12.1588849648004 -53.5949386562545 0.0
endloop
endfacet
facet normal 0.0920598665111662 -0.995753473997428 0.0
outer loop
vertex 12.1588849648004 -53.5949386562545 0.0
vertex 2.5 -54.4879264124876 -100.0
vertex 12.1588849648004 -53.5949386562545 -100.0
endloop
endfacet
facet normal 0.0920598665111662 -0.995753473997428 0.0
outer loop
vertex 2.5 -54.4879264124876 -100.0
vertex 12.1588849648004 -53.5949386562545 0.0
vertex 2.5 -54.4879264124876 0.0
endloop
endfacet
facet normal -0.985650843893861 0.168796960669673 0.0
outer loop
vertex -52.4940208729852 16.2675660669174 0.0
vertex -54.8517759769466 2.5 -100.0
vertex -54.8517759769466 2.5 0.0
endloop
endfacet
facet normal -0.985650843893861 0.168796960669673 0.0
outer loop
vertex -54.8517759769466 2.5 -100.0
vertex -52.4940208729852 16.2675660669174 0.0
vertex -52.4940208729852 16.2675660669174 -100.0
endloop
endfacet
facet normal 0.0 0.0 -1.0
outer loop
vertex 2.5 54.8517759769466 -100.0
vertex 2.97085532067035 9.58669173817219 -100.0
vertex 2.5 9.66732774384973 -100.0
endloop
endfacet
facet normal 0.0 0.0 -1.0
outer loop
vertex 2.97085532067035 9.58669173817219 -100.0
vertex 2.5 54.8517759769466 -100.0
vertex 16.2675660669175 52.4940208729852 -100.0
endloop
endfacet
facet normal 0.0 0.0 -1.0
outer loop
vertex 2.97085532067035 9.58669173817219 -100.0
vertex 16.2675660669175 52.4940208729852 -100.0
vertex 5.35084428176963 8.49111920133896 -100.0
endloop
endfacet
facet normal 0.0 0.0 -1.0
outer loop
vertex 5.35084428176963 8.49111920133896 -100.0
vertex 16.2675660669175 52.4940208729852 -100.0
vertex 7.36618204775476 6.81689092317234 -100.0
endloop
endfacet
facet normal 0.0 0.0 -1.0
outer loop
vertex 7.36618204775476 6.81689092317234 -100.0
vertex 16.2675660669175 52.4940208729852 -100.0
vertex 8.87952668037675 4.67810279403646 -100.0
endloop
endfacet
facet normal 0.0 0.0 -1.0
outer loop
vertex 8.87952668037675 4.67810279403646 -100.0
vertex 16.2675660669175 52.4940208729852 -100.0
vertex 9.68445877669108 2.5 -100.0
endloop
endfacet
facet normal 0.0 0.0 -1.0
outer loop
vertex 9.68445877669108 2.5 -100.0
vertex 16.2675660669175 52.4940208729852 -100.0
vertex 54.4879264124876 2.5 -100.0
endloop
endfacet
facet normal 0.0 0.0 -1.0
outer loop
vertex 54.4879264124876 2.5 -100.0
vertex 16.2675660669175 52.4940208729852 -100.0
vertex 29.2997145508371 46.4949745713921 -100.0
endloop
endfacet
facet normal 0.0 0.0 -1.0
outer loop
vertex 54.4879264124876 2.5 -100.0
vertex 29.2997145508371 46.4949745713921 -100.0
vertex 40.3351359081848 37.327372589337 -100.0
endloop
endfacet
facet normal 0.0 0.0 -1.0
outer loop
vertex 54.4879264124876 2.5 -100.0
vertex 40.3351359081848 37.327372589337 -100.0
vertex 48.6217844103535 25.6159718517185 -100.0
endloop
endfacet
facet normal 0.0 0.0 -1.0
outer loop
vertex 54.4879264124876 2.5 -100.0
vertex 48.6217844103535 25.6159718517185 -100.0
vertex 53.5949386562545 12.1588849648003 -100.0
endloop
endfacet
facet normal 0.985650843893863 -0.168796960669663 0.0
outer loop
vertex -9.58669173817219 2.9708553206703 -100.0
vertex -9.66732774384972 2.5 0.0
vertex -9.66732774384972 2.5 -100.0
endloop
endfacet
facet normal 0.985650843893863 -0.168796960669663 0.0
outer loop
vertex -9.66732774384972 2.5 0.0
vertex -9.58669173817219 2.9708553206703 -100.0
vertex -9.58669173817219 2.9708553206703 0.0
endloop
endfacet
facet normal 1.5976988715411e-017 -1.0 0.0
outer loop
vertex -9.66732774384972 2.5 0.0
vertex -54.8517759769466 2.5 -100.0
vertex -9.66732774384972 2.5 -100.0
endloop
endfacet
facet normal 1.5976988715411e-017 -1.0 0.0
outer loop
vertex -54.8517759769466 2.5 -100.0
vertex -9.66732774384972 2.5 0.0
vertex -54.8517759769466 2.5 0.0
endloop
endfacet
facet normal 2.41692705149728e-017 -1.0 0.0
outer loop
vertex 54.4879264124876 2.5 0.0
vertex 9.68445877669108 2.5 -100.0
vertex 54.4879264124876 2.5 -100.0
endloop
endfacet
facet normal 2.41692705149728e-017 -1.0 0.0
outer loop
vertex 9.68445877669108 2.5 -100.0
vertex 54.4879264124876 2.5 0.0
vertex 9.68445877669108 2.5 0.0
endloop
endfacet
facet normal -0.816317871132795 -0.57760292006639 -0.0
outer loop
vertex 7.36618204775476 6.81689092317234 0.0
vertex 8.87952668037675 4.67810279403646 -100.0
vertex 8.87952668037675 4.67810279403646 0.0
endloop
endfacet
facet normal -0.816317871132795 -0.57760292006639 -0.0
outer loop
vertex 8.87952668037675 4.67810279403646 -100.0
vertex 7.36618204775476 6.81689092317234 0.0
vertex 7.36618204775476 6.81689092317234 -100.0
endloop
endfacet
facet normal -0.639007877968466 -0.769200189738821 -0.0
outer loop
vertex 7.36618204775476 6.81689092317234 0.0
vertex 5.35084428176963 8.49111920133896 -100.0
vertex 7.36618204775476 6.81689092317234 -100.0
endloop
endfacet
facet normal -0.639007877968466 -0.769200189738821 -0.0
outer loop
vertex 5.35084428176963 8.49111920133896 -100.0
vertex 7.36618204775476 6.81689092317234 0.0
vertex 5.35084428176963 8.49111920133896 0.0
endloop
endfacet
facet normal 0.57760292006639 -0.816317871132795 0.0
outer loop
vertex -4.67810279403654 8.8795266803767 0.0
vertex -6.81689092317237 7.36618204775475 -100.0
vertex -4.67810279403654 8.8795266803767 -100.0
endloop
endfacet
facet normal 0.57760292006639 -0.816317871132795 0.0
outer loop
vertex -6.81689092317237 7.36618204775475 -100.0
vertex -4.67810279403654 8.8795266803767 0.0
vertex -6.81689092317237 7.36618204775475 0.0
endloop
endfacet
facet normal 0.769200189738818 -0.639007877968469 0.0
outer loop
vertex -6.81689092317237 7.36618204775475 -100.0
vertex -8.49111920133888 5.35084428176978 0.0
vertex -8.49111920133888 5.35084428176978 -100.0
endloop
endfacet
facet normal 0.769200189738818 -0.639007877968469 0.0
outer loop
vertex -8.49111920133888 5.35084428176978 0.0
vertex -6.81689092317237 7.36618204775475 -100.0
vertex -6.81689092317237 7.36618204775475 0.0
endloop
endfacet
facet normal 0.908377737643963 -0.418150553931039 0.0
outer loop
vertex -8.49111920133888 5.35084428176978 -100.0
vertex -9.58669173817219 2.9708553206703 0.0
vertex -9.58669173817219 2.9708553206703 -100.0
endloop
endfacet
facet normal 0.908377737643963 -0.418150553931039 0.0
outer loop
vertex -9.58669173817219 2.9708553206703 0.0
vertex -8.49111920133888 5.35084428176978 -100.0
vertex -8.49111920133888 5.35084428176978 0.0
endloop
endfacet
facet normal 0.577602920066388 -0.816317871132797 -5.17111613797123e-016
outer loop
vertex 40.7527386224682 -44.0365109286463 9.99960045764917
vertex 35.3009567894772 -47.8940341039391 0.0
vertex 40.7527386224683 -44.0365109286463 0.0
endloop
endfacet
facet normal 0.577602920066388 -0.816317871132797 -5.17111613797123e-016
outer loop
vertex 35.3009567894772 -47.8940341039391 0.0
vertex 40.7527386224682 -44.0365109286463 9.99960045764917
vertex 35.3009567894772 -47.8940341039391 2.0
endloop
endfacet
facet normal 0.577602920066388 -0.816317871132797 -5.17111613797123e-016
outer loop
vertex 35.3009567894772 -47.8940341039391 2.0
vertex 40.7527386224682 -44.0365109286463 9.99960045764917
vertex 33.6683210472116 -49.0492399440719 2.0
endloop
endfacet
facet normal 0.577602920066388 -0.816317871132797 -5.17111613797123e-016
outer loop
vertex 33.6683210472116 -49.0492399440719 2.0
vertex 27.9666350192511 -53.0835881012201 0.0
vertex 33.6683210472116 -49.0492399440719 0.0
endloop
endfacet
facet normal 0.577602920066388 -0.816317871132797 -5.17111613797123e-016
outer loop
vertex 27.9666350192511 -53.0835881012201 0.0
vertex 33.6683210472116 -49.0492399440719 2.0
vertex 27.9666350192511 -53.0835881012201 9.99960045764917
endloop
endfacet
facet normal 0.577602920066388 -0.816317871132797 -5.17111613797123e-016
outer loop
vertex 27.9666350192511 -53.0835881012201 9.99960045764917
vertex 33.6683210472116 -49.0492399440719 2.0
vertex 40.7527386224682 -44.0365109286463 9.99960045764917
endloop
endfacet
facet normal 0.0920598665111658 -0.995753473997428 1.3724245190734e-016
outer loop
vertex 13.2746514565215 -58.5131064694729 9.99960045764917
vertex -2.32197766557105 -59.9550533293115 0.0
vertex 13.2746514565216 -58.5131064694729 0.0
endloop
endfacet
facet normal 0.0920598665111658 -0.995753473997428 1.3724245190734e-016
outer loop
vertex -2.32197766557105 -59.9550533293115 0.0
vertex 13.2746514565215 -58.5131064694729 9.99960045764917
vertex -2.32197766557113 -59.9550533293115 9.99960045764917
endloop
endfacet
facet normal 0.995753473997428 0.0920598665111666 0.0
outer loop
vertex 53.5949386562545 12.1588849648003 -100.0
vertex 54.4879264124876 2.5 0.0
vertex 54.4879264124876 2.5 -100.0
endloop
endfacet
facet normal 0.995753473997428 0.0920598665111666 0.0
outer loop
vertex 54.4879264124876 2.5 0.0
vertex 53.5949386562545 12.1588849648003 -100.0
vertex 53.5949386562545 12.1588849648003 0.0
endloop
endfacet
facet normal -0.418150553931038 -0.908377737643964 -0.0
outer loop
vertex 5.35084428176963 8.49111920133896 0.0
vertex 2.97085532067035 9.58669173817219 -100.0
vertex 5.35084428176963 8.49111920133896 -100.0
endloop
endfacet
facet normal -0.418150553931038 -0.908377737643964 -0.0
outer loop
vertex 2.97085532067035 9.58669173817219 -100.0
vertex 5.35084428176963 8.49111920133896 0.0
vertex 2.97085532067035 9.58669173817219 0.0
endloop
endfacet
facet normal -0.168796960669669 -0.985650843893862 -0.0
outer loop
vertex 2.97085532067035 9.58669173817219 0.0
vertex 2.5 9.66732774384973 -100.0
vertex 2.97085532067035 9.58669173817219 -100.0
endloop
endfacet
facet normal -0.168796960669669 -0.985650843893862 -0.0
outer loop
vertex 2.5 9.66732774384973 -100.0
vertex 2.97085532067035 9.58669173817219 0.0
vertex 2.5 9.66732774384973 0.0
endloop
endfacet
facet normal -1.0 2.39654830731165e-017 0.0
outer loop
vertex 2.5 54.8517759769466 0.0
vertex 2.5 9.66732774384973 -100.0
vertex 2.5 9.66732774384973 0.0
endloop
endfacet
facet normal -1.0 2.39654830731165e-017 0.0
outer loop
vertex 2.5 9.66732774384973 -100.0
vertex 2.5 54.8517759769466 0.0
vertex 2.5 54.8517759769466 -100.0
endloop
endfacet
facet normal 0.168796960669671 0.985650843893861 0.0
outer loop
vertex 2.5 54.8517759769466 0.0
vertex 16.2675660669175 52.4940208729852 -100.0
vertex 2.5 54.8517759769466 -100.0
endloop
endfacet
facet normal 0.168796960669671 0.985650843893861 0.0
outer loop
vertex 16.2675660669175 52.4940208729852 -100.0
vertex 2.5 54.8517759769466 0.0
vertex 16.2675660669175 52.4940208729852 0.0
endloop
endfacet
facet normal 0.41815055393104 0.908377737643963 0.0
outer loop
vertex 16.2675660669175 52.4940208729852 0.0
vertex 29.2997145508371 46.4949745713921 -100.0
vertex 16.2675660669175 52.4940208729852 -100.0
endloop
endfacet
facet normal 0.41815055393104 0.908377737643963 0.0
outer loop
vertex 29.2997145508371 46.4949745713921 -100.0
vertex 16.2675660669175 52.4940208729852 0.0
vertex 29.2997145508371 46.4949745713921 0.0
endloop
endfacet
facet normal 0.639007877968469 0.769200189738818 0.0
outer loop
vertex 29.2997145508371 46.4949745713921 0.0
vertex 40.3351359081848 37.327372589337 -100.0
vertex 29.2997145508371 46.4949745713921 -100.0
endloop
endfacet
facet normal 0.639007877968469 0.769200189738818 0.0
outer loop
vertex 40.3351359081848 37.327372589337 -100.0
vertex 29.2997145508371 46.4949745713921 0.0
vertex 40.3351359081848 37.327372589337 0.0
endloop
endfacet
facet normal 0.816317871132797 0.577602920066388 0.0
outer loop
vertex 40.3351359081848 37.327372589337 -100.0
vertex 48.6217844103535 25.6159718517185 0.0
vertex 48.6217844103535 25.6159718517185 -100.0
endloop
endfacet
facet normal 0.816317871132797 0.577602920066388 0.0
outer loop
vertex 48.6217844103535 25.6159718517185 0.0
vertex 40.3351359081848 37.327372589337 -100.0
vertex 40.3351359081848 37.327372589337 0.0
endloop
endfacet
facet normal 0.93799715040849 0.346642965925392 0.0
outer loop
vertex 48.6217844103535 25.6159718517185 -100.0
vertex 53.5949386562545 12.1588849648003 0.0
vertex 53.5949386562545 12.1588849648003 -100.0
endloop
endfacet
facet normal 0.93799715040849 0.346642965925392 0.0
outer loop
vertex 53.5949386562545 12.1588849648003 0.0
vertex 48.6217844103535 25.6159718517185 -100.0
vertex 48.6217844103535 25.6159718517185 0.0
endloop
endfacet
facet normal -0.816317871132797 -0.577602920066388 7.75408506248772e-017
outer loop
vertex -44.0365109286463 -40.7527386224682 9.99960045764917
vertex -53.0835881012201 -27.9666350192511 0.0
vertex -44.0365109286463 -40.7527386224683 0.0
endloop
endfacet
facet normal -0.816317871132797 -0.577602920066388 7.75408506248772e-017
outer loop
vertex -53.0835881012201 -27.9666350192511 0.0
vertex -44.0365109286463 -40.7527386224682 9.99960045764917
vertex -53.0835881012201 -27.9666350192511 9.99960045764917
endloop
endfacet
facet normal -0.769200189738818 0.63900787796847 8.2400071389475e-017
outer loop
vertex -50.761610435649 31.9884183100604 9.99960045764917
vertex -40.7527386224683 44.0365109286463 0.0
vertex -50.761610435649 31.9884183100604 0.0
endloop
endfacet
facet normal -0.769200189738818 0.63900787796847 8.2400071389475e-017
outer loop
vertex -40.7527386224683 44.0365109286463 0.0
vertex -50.761610435649 31.9884183100604 9.99960045764917
vertex -40.7527386224682 44.0365109286463 9.99960045764917
endloop
endfacet
facet normal -0.93799715040849 -0.346642965925391 6.19052188422404e-017
outer loop
vertex -53.0835881012201 -27.9666350192511 9.99960045764917
vertex -58.5131064694729 -13.2746514565216 0.0
vertex -53.0835881012201 -27.9666350192511 0.0
endloop
endfacet
facet normal -0.93799715040849 -0.346642965925391 6.19052188422404e-017
outer loop
vertex -58.5131064694729 -13.2746514565216 0.0
vertex -53.0835881012201 -27.9666350192511 9.99960045764917
vertex -58.5131064694729 -13.2746514565216 9.99960045764917
endloop
endfacet
facet normal -0.57760292006639 0.816317871132796 -0.0
outer loop
vertex -35.1760046919925 47.9824465948668 2.0
vertex -33.5433689497269 49.1376524349996 0.0
vertex -35.1760046919925 47.9824465948668 0.0
endloop
endfacet
facet normal -0.57760292006639 0.816317871132796 -0.0
outer loop
vertex -33.5433689497269 49.1376524349996 0.0
vertex -35.1760046919925 47.9824465948668 2.0
vertex -33.5433689497269 49.1376524349996 2.0
endloop
endfacet
facet normal 0.41815055393104 0.908377737643963 8.51841971447383e-017
outer loop
vertex 17.7603678470046 57.3111623851679 9.99960045764917
vertex 31.9884183100604 50.7616104356491 0.0
vertex 17.7603678470046 57.3111623851679 0.0
endloop
endfacet
facet normal 0.41815055393104 0.908377737643963 8.51841971447383e-017
outer loop
vertex 31.9884183100604 50.7616104356491 0.0
vertex 17.7603678470046 57.3111623851679 9.99960045764917
vertex 31.9884183100604 50.761610435649 9.99960045764917
endloop
endfacet
facet normal -0.908377737643963 0.41815055393104 5.4421624677278e-017
outer loop
vertex -57.3111623851679 17.7603678470046 9.99960045764917
vertex -50.761610435649 31.9884183100604 0.0
vertex -57.3111623851679 17.7603678470046 0.0
endloop
endfacet
facet normal -0.908377737643963 0.41815055393104 5.4421624677278e-017
outer loop
vertex -50.761610435649 31.9884183100604 0.0
vertex -57.3111623851679 17.7603678470046 9.99960045764917
vertex -50.761610435649 31.9884183100604 9.99960045764917
endloop
endfacet
facet normal 0.816317871132797 0.577602920066388 -1.06576219022641e-016
outer loop
vertex 53.0835881012201 27.9666350192512 0.0
vertex 44.0365109286463 40.7527386224682 9.99960045764917
vertex 53.0835881012201 27.9666350192511 9.99960045764917
endloop
endfacet
facet normal 0.816317871132797 0.577602920066388 -1.06576219022641e-016
outer loop
vertex 44.0365109286463 40.7527386224682 9.99960045764917
vertex 53.0835881012201 27.9666350192512 0.0
vertex 44.0365109286463 40.7527386224683 0.0
endloop
endfacet
facet normal 0.937997150408491 0.346642965925391 -1.75012462363582e-016
outer loop
vertex 58.5131064694729 13.2746514565217 0.0
vertex 53.0835881012201 27.9666350192511 9.99960045764917
vertex 58.5131064694729 13.2746514565216 9.99960045764917
endloop
endfacet
facet normal 0.937997150408491 0.346642965925391 -1.75012462363582e-016
outer loop
vertex 53.0835881012201 27.9666350192511 9.99960045764917
vertex 58.5131064694729 13.2746514565217 0.0
vertex 53.0835881012201 27.9666350192512 0.0
endloop
endfacet
facet normal 0.346642965925391 -0.93799715040849 1.36091033675573e-016
outer loop
vertex 27.9666350192511 -53.0835881012201 9.99960045764917
vertex 13.2746514565216 -58.5131064694729 0.0
vertex 27.9666350192511 -53.0835881012201 0.0
endloop
endfacet
facet normal 0.346642965925391 -0.93799715040849 1.36091033675573e-016
outer loop
vertex 13.2746514565216 -58.5131064694729 0.0
vertex 27.9666350192511 -53.0835881012201 9.99960045764917
vertex 13.2746514565215 -58.5131064694729 9.99960045764917
endloop
endfacet
facet normal -0.995753473997428 -0.0920598665111661 -1.51970705863808e-018
outer loop
vertex -58.5131064694729 -13.2746514565216 9.99960045764917
vertex -59.9550533293115 2.32197766557105 0.0
vertex -58.5131064694729 -13.2746514565216 0.0
endloop
endfacet
facet normal -0.995753473997428 -0.0920598665111661 -1.51970705863808e-018
outer loop
vertex -59.9550533293115 2.32197766557105 0.0
vertex -58.5131064694729 -13.2746514565216 9.99960045764917
vertex -59.9550533293115 2.32197766557112 9.99960045764917
endloop
endfacet
facet normal -0.985650843893861 0.168796960669673 -6.76104874707989e-017
outer loop
vertex -59.9550533293115 2.32197766557112 9.99960045764917
vertex -57.3111623851679 17.7603678470046 0.0
vertex -59.9550533293115 2.32197766557105 0.0
endloop
endfacet
facet normal -0.985650843893861 0.168796960669673 -6.76104874707989e-017
outer loop
vertex -57.3111623851679 17.7603678470046 0.0
vertex -59.9550533293115 2.32197766557112 9.99960045764917
vertex -57.3111623851679 17.7603678470046 9.99960045764917
endloop
endfacet
facet normal 0.769200189738818 -0.63900787796847 1.03767792874322e-016
outer loop
vertex 40.7527386224683 -44.0365109286463 0.0
vertex 50.761610435649 -31.9884183100605 9.99960045764917
vertex 40.7527386224682 -44.0365109286463 9.99960045764917
endloop
endfacet
facet normal 0.769200189738818 -0.63900787796847 1.03767792874322e-016
outer loop
vertex 50.761610435649 -31.9884183100605 9.99960045764917
vertex 40.7527386224683 -44.0365109286463 0.0
vertex 50.761610435649 -31.9884183100604 0.0
endloop
endfacet
facet normal -0.63900787796847 -0.769200189738817 3.59570342227778e-016
outer loop
vertex -31.9884183100605 -50.761610435649 9.99960045764917
vertex -37.2432644296145 -46.3961824070271 0.0
vertex -31.9884183100604 -50.761610435649 0.0
endloop
endfacet
facet normal -0.63900787796847 -0.769200189738817 3.59570342227778e-016
outer loop
vertex -37.2432644296145 -46.3961824070271 0.0
vertex -31.9884183100605 -50.761610435649 9.99960045764917
vertex -37.2432644296145 -46.3961824070271 2.0
endloop
endfacet
facet normal -0.63900787796847 -0.769200189738817 3.59570342227778e-016
outer loop
vertex -37.2432644296145 -46.3961824070271 2.0
vertex -31.9884183100605 -50.761610435649 9.99960045764917
vertex -38.7816648090922 -45.1181666510902 2.0
endloop
endfacet
facet normal -0.63900787796847 -0.769200189738817 3.59570342227778e-016
outer loop
vertex -38.7816648090922 -45.1181666510902 2.0
vertex -44.0365109286463 -40.7527386224683 0.0
vertex -38.7816648090922 -45.1181666510902 0.0
endloop
endfacet
facet normal -0.63900787796847 -0.769200189738817 3.59570342227778e-016
outer loop
vertex -44.0365109286463 -40.7527386224683 0.0
vertex -38.7816648090922 -45.1181666510902 2.0
vertex -44.0365109286463 -40.7527386224682 9.99960045764917
endloop
endfacet
facet normal -0.63900787796847 -0.769200189738817 3.59570342227778e-016
outer loop
vertex -44.0365109286463 -40.7527386224682 9.99960045764917
vertex -38.7816648090922 -45.1181666510902 2.0
vertex -31.9884183100605 -50.761610435649 9.99960045764917
endloop
endfacet
facet normal 0.995753473997428 0.0920598665111661 -9.07433743885867e-018
outer loop
vertex 59.9550533293115 -2.32197766557104 0.0
vertex 58.5131064694729 13.2746514565216 9.99960045764917
vertex 59.9550533293115 -2.32197766557109 9.99960045764917
endloop
endfacet
facet normal 0.995753473997428 0.0920598665111661 -9.07433743885867e-018
outer loop
vertex 58.5131064694729 13.2746514565216 9.99960045764917
vertex 59.9550533293115 -2.32197766557104 0.0
vertex 58.5131064694729 13.2746514565217 0.0
endloop
endfacet
facet normal 0.0 0.0 1.0
outer loop
vertex -58.5131064694729 -13.2746514565216 9.99960045764917
vertex -57.3111623851679 17.7603678470046 9.99960045764917
vertex -59.9550533293115 2.32197766557112 9.99960045764917
endloop
endfacet
facet normal 0.0 0.0 1.0
outer loop
vertex -57.3111623851679 17.7603678470046 9.99960045764917
vertex -58.5131064694729 -13.2746514565216 9.99960045764917
vertex -53.0835881012201 -27.9666350192511 9.99960045764917
endloop
endfacet
facet normal 0.0 0.0 1.0
outer loop
vertex -57.3111623851679 17.7603678470046 9.99960045764917
vertex -53.0835881012201 -27.9666350192511 9.99960045764917
vertex -50.761610435649 31.9884183100604 9.99960045764917
endloop
endfacet
facet normal 0.0 0.0 1.0
outer loop
vertex -50.761610435649 31.9884183100604 9.99960045764917
vertex -53.0835881012201 -27.9666350192511 9.99960045764917
vertex -44.0365109286463 -40.7527386224682 9.99960045764917
endloop
endfacet
facet normal 0.0 0.0 1.0
outer loop
vertex -50.761610435649 31.9884183100604 9.99960045764917
vertex -44.0365109286463 -40.7527386224682 9.99960045764917
vertex -40.7527386224682 44.0365109286463 9.99960045764917
endloop
endfacet
facet normal 0.0 0.0 1.0
outer loop
vertex -40.7527386224682 44.0365109286463 9.99960045764917
vertex -44.0365109286463 -40.7527386224682 9.99960045764917
vertex -31.9884183100605 -50.761610435649 9.99960045764917
endloop
endfacet
facet normal 0.0 0.0 1.0
outer loop
vertex -40.7527386224682 44.0365109286463 9.99960045764917
vertex -31.9884183100605 -50.761610435649 9.99960045764917
vertex -27.9666350192511 53.0835881012201 9.99960045764917
endloop
endfacet
facet normal 0.0 0.0 1.0
outer loop
vertex -27.9666350192511 53.0835881012201 9.99960045764917
vertex -31.9884183100605 -50.761610435649 9.99960045764917
vertex -17.7603678470047 -57.3111623851679 9.99960045764917
endloop
endfacet
facet normal 0.0 0.0 1.0
outer loop
vertex -27.9666350192511 53.0835881012201 9.99960045764917
vertex -17.7603678470047 -57.3111623851679 9.99960045764917
vertex -13.2746514565216 58.5131064694729 9.99960045764917
endloop
endfacet
facet normal 0.0 0.0 1.0
outer loop
vertex -13.2746514565216 58.5131064694729 9.99960045764917
vertex -17.7603678470047 -57.3111623851679 9.99960045764917
vertex -2.32197766557113 -59.9550533293115 9.99960045764917
endloop
endfacet
facet normal 0.0 0.0 1.0
outer loop
vertex -13.2746514565216 58.5131064694729 9.99960045764917
vertex -2.32197766557113 -59.9550533293115 9.99960045764917
vertex 2.3219776655711 59.9550533293115 9.99960045764917
endloop
endfacet
facet normal 0.0 0.0 1.0
outer loop
vertex 2.3219776655711 59.9550533293115 9.99960045764917
vertex -2.32197766557113 -59.9550533293115 9.99960045764917
vertex 13.2746514565215 -58.5131064694729 9.99960045764917
endloop
endfacet
facet normal 0.0 0.0 1.0
outer loop
vertex 2.3219776655711 59.9550533293115 9.99960045764917
vertex 13.2746514565215 -58.5131064694729 9.99960045764917
vertex 17.7603678470046 57.3111623851679 9.99960045764917
endloop
endfacet
facet normal 0.0 0.0 1.0
outer loop
vertex 17.7603678470046 57.3111623851679 9.99960045764917
vertex 13.2746514565215 -58.5131064694729 9.99960045764917
vertex 27.9666350192511 -53.0835881012201 9.99960045764917
endloop
endfacet
facet normal 0.0 0.0 1.0
outer loop
vertex 17.7603678470046 57.3111623851679 9.99960045764917
vertex 27.9666350192511 -53.0835881012201 9.99960045764917
vertex 31.9884183100604 50.761610435649 9.99960045764917
endloop
endfacet
facet normal 0.0 0.0 1.0
outer loop
vertex 31.9884183100604 50.761610435649 9.99960045764917
vertex 27.9666350192511 -53.0835881012201 9.99960045764917
vertex 40.7527386224682 -44.0365109286463 9.99960045764917
endloop
endfacet
facet normal 0.0 0.0 1.0
outer loop
vertex 31.9884183100604 50.761610435649 9.99960045764917
vertex 40.7527386224682 -44.0365109286463 9.99960045764917
vertex 44.0365109286463 40.7527386224682 9.99960045764917
endloop
endfacet
facet normal 0.0 0.0 1.0
outer loop
vertex 44.0365109286463 40.7527386224682 9.99960045764917
vertex 40.7527386224682 -44.0365109286463 9.99960045764917
vertex 50.761610435649 -31.9884183100605 9.99960045764917
endloop
endfacet
facet normal 0.0 0.0 1.0
outer loop
vertex 44.0365109286463 40.7527386224682 9.99960045764917
vertex 50.761610435649 -31.9884183100605 9.99960045764917
vertex 53.0835881012201 27.9666350192511 9.99960045764917
endloop
endfacet
facet normal 0.0 0.0 1.0
outer loop
vertex 53.0835881012201 27.9666350192511 9.99960045764917
vertex 50.761610435649 -31.9884183100605 9.99960045764917
vertex 57.3111623851679 -17.7603678470046 9.99960045764917
endloop
endfacet
facet normal 0.0 0.0 1.0
outer loop
vertex 53.0835881012201 27.9666350192511 9.99960045764917
vertex 57.3111623851679 -17.7603678470046 9.99960045764917
vertex 58.5131064694729 13.2746514565216 9.99960045764917
endloop
endfacet
facet normal 0.0 0.0 1.0
outer loop
vertex 58.5131064694729 13.2746514565216 9.99960045764917
vertex 57.3111623851679 -17.7603678470046 9.99960045764917
vertex 59.9550533293115 -2.32197766557109 9.99960045764917
endloop
endfacet
facet normal -0.168796960669673 -0.985650843893861 -6.06845668960099e-017
outer loop
vertex -2.32197766557113 -59.9550533293115 9.99960045764917
vertex -17.7603678470046 -57.3111623851679 0.0
vertex -2.32197766557105 -59.9550533293115 0.0
endloop
endfacet
facet normal -0.168796960669673 -0.985650843893861 -6.06845668960099e-017
outer loop
vertex -17.7603678470046 -57.3111623851679 0.0
vertex -2.32197766557113 -59.9550533293115 9.99960045764917
vertex -17.7603678470047 -57.3111623851679 9.99960045764917
endloop
endfacet
facet normal 0.63900787796847 0.769200189738818 -0.0
outer loop
vertex 37.2432644296145 46.3961824070271 2.0
vertex 38.7816648090921 45.1181666510902 0.0
vertex 37.2432644296145 46.3961824070271 0.0
endloop
endfacet
facet normal 0.63900787796847 0.769200189738818 -0.0
outer loop
vertex 38.7816648090921 45.1181666510902 0.0
vertex 37.2432644296145 46.3961824070271 2.0
vertex 38.7816648090921 45.1181666510902 2.0
endloop
endfacet
facet normal 0.168796960669672 0.985650843893861 1.4976694307103e-016
outer loop
vertex 2.3219776655711 59.9550533293115 9.99960045764917
vertex 17.7603678470046 57.3111623851679 0.0
vertex 2.32197766557104 59.9550533293115 0.0
endloop
endfacet
facet normal 0.168796960669672 0.985650843893861 1.4976694307103e-016
outer loop
vertex 17.7603678470046 57.3111623851679 0.0
vertex 2.3219776655711 59.9550533293115 9.99960045764917
vertex 17.7603678470046 57.3111623851679 9.99960045764917
endloop
endfacet
facet normal -0.346642965925392 0.93799715040849 4.29410412860919e-017
outer loop
vertex -27.9666350192511 53.0835881012201 9.99960045764917
vertex -13.2746514565216 58.5131064694729 0.0
vertex -27.9666350192511 53.0835881012201 0.0
endloop
endfacet
facet normal -0.346642965925392 0.93799715040849 4.29410412860919e-017
outer loop
vertex -13.2746514565216 58.5131064694729 0.0
vertex -27.9666350192511 53.0835881012201 9.99960045764917
vertex -13.2746514565216 58.5131064694729 9.99960045764917
endloop
endfacet
facet normal -0.0920598665111657 0.995753473997428 1.09542140513198e-016
outer loop
vertex -13.2746514565216 58.5131064694729 9.99960045764917
vertex 2.32197766557104 59.9550533293115 0.0
vertex -13.2746514565216 58.5131064694729 0.0
endloop
endfacet
facet normal -0.0920598665111657 0.995753473997428 1.09542140513198e-016
outer loop
vertex 2.32197766557104 59.9550533293115 0.0
vertex -13.2746514565216 58.5131064694729 9.99960045764917
vertex 2.3219776655711 59.9550533293115 9.99960045764917
endloop
endfacet
facet normal -0.418150553931041 -0.908377737643963 8.12410217764347e-017
outer loop
vertex -17.7603678470047 -57.3111623851679 9.99960045764917
vertex -31.9884183100604 -50.761610435649 0.0
vertex -17.7603678470046 -57.3111623851679 0.0
endloop
endfacet
facet normal -0.418150553931041 -0.908377737643963 8.12410217764347e-017
outer loop
vertex -31.9884183100604 -50.761610435649 0.0
vertex -17.7603678470047 -57.3111623851679 9.99960045764917
vertex -31.9884183100605 -50.761610435649 9.99960045764917
endloop
endfacet
facet normal -0.63900787796847 -0.769200189738818 0.0
outer loop
vertex -37.2432644296145 -46.3961824070271 2.0
vertex -38.7816648090922 -45.1181666510902 0.0
vertex -37.2432644296145 -46.3961824070271 0.0
endloop
endfacet
facet normal -0.63900787796847 -0.769200189738818 0.0
outer loop
vertex -38.7816648090922 -45.1181666510902 0.0
vertex -37.2432644296145 -46.3961824070271 2.0
vertex -38.7816648090922 -45.1181666510902 2.0
endloop
endfacet
facet normal 0.577602920066387 -0.816317871132797 0.0
outer loop
vertex 35.3009567894772 -47.8940341039391 2.0
vertex 33.6683210472116 -49.0492399440719 0.0
vertex 35.3009567894772 -47.8940341039391 0.0
endloop
endfacet
facet normal 0.577602920066387 -0.816317871132797 0.0
outer loop
vertex 33.6683210472116 -49.0492399440719 0.0
vertex 35.3009567894772 -47.8940341039391 2.0
vertex 33.6683210472116 -49.0492399440719 2.0
endloop
endfacet
facet normal -0.577602920066388 0.816317871132797 -4.98848433227451e-017
outer loop
vertex -40.7527386224682 44.0365109286463 9.99960045764917
vertex -35.1760046919925 47.9824465948668 0.0
vertex -40.7527386224683 44.0365109286463 0.0
endloop
endfacet
facet normal -0.577602920066388 0.816317871132797 -4.98848433227451e-017
outer loop
vertex -35.1760046919925 47.9824465948668 0.0
vertex -40.7527386224682 44.0365109286463 9.99960045764917
vertex -35.1760046919925 47.9824465948668 2.0
endloop
endfacet
facet normal -0.577602920066388 0.816317871132797 -4.98848433227451e-017
outer loop
vertex -35.1760046919925 47.9824465948668 2.0
vertex -40.7527386224682 44.0365109286463 9.99960045764917
vertex -33.5433689497269 49.1376524349996 2.0
endloop
endfacet
facet normal -0.577602920066388 0.816317871132797 -4.98848433227451e-017
outer loop
vertex -33.5433689497269 49.1376524349996 2.0
vertex -27.9666350192511 53.0835881012201 0.0
vertex -33.5433689497269 49.1376524349996 0.0
endloop
endfacet
facet normal -0.577602920066388 0.816317871132797 -4.98848433227451e-017
outer loop
vertex -27.9666350192511 53.0835881012201 0.0
vertex -33.5433689497269 49.1376524349996 2.0
vertex -27.9666350192511 53.0835881012201 9.99960045764917
endloop
endfacet
facet normal -0.577602920066388 0.816317871132797 -4.98848433227451e-017
outer loop
vertex -27.9666350192511 53.0835881012201 9.99960045764917
vertex -33.5433689497269 49.1376524349996 2.0
vertex -40.7527386224682 44.0365109286463 9.99960045764917
endloop
endfacet
facet normal 0.63900787796847 0.769200189738818 -2.70334964881254e-016
outer loop
vertex 31.9884183100604 50.761610435649 9.99960045764917
vertex 37.2432644296145 46.3961824070271 0.0
vertex 31.9884183100604 50.7616104356491 0.0
endloop
endfacet
facet normal 0.63900787796847 0.769200189738818 -2.70334964881254e-016
outer loop
vertex 37.2432644296145 46.3961824070271 0.0
vertex 31.9884183100604 50.761610435649 9.99960045764917
vertex 37.2432644296145 46.3961824070271 2.0
endloop
endfacet
facet normal 0.63900787796847 0.769200189738818 -2.70334964881254e-016
outer loop
vertex 37.2432644296145 46.3961824070271 2.0
vertex 31.9884183100604 50.761610435649 9.99960045764917
vertex 38.7816648090921 45.1181666510902 2.0
endloop
endfacet
facet normal 0.63900787796847 0.769200189738818 -2.70334964881254e-016
outer loop
vertex 38.7816648090921 45.1181666510902 2.0
vertex 44.0365109286463 40.7527386224683 0.0
vertex 38.7816648090921 45.1181666510902 0.0
endloop
endfacet
facet normal 0.63900787796847 0.769200189738818 -2.70334964881254e-016
outer loop
vertex 44.0365109286463 40.7527386224683 0.0
vertex 38.7816648090921 45.1181666510902 2.0
vertex 44.0365109286463 40.7527386224682 9.99960045764917
endloop
endfacet
facet normal 0.63900787796847 0.769200189738818 -2.70334964881254e-016
outer loop
vertex 44.0365109286463 40.7527386224682 9.99960045764917
vertex 38.7816648090921 45.1181666510902 2.0
vertex 31.9884183100604 50.761610435649 9.99960045764917
endloop
endfacet
endsolid model
