<?xml version="1.0" encoding="UTF-8" standalone="no"?>
<svg
   xmlns:dc="http://purl.org/dc/elements/1.1/"
   xmlns:cc="http://creativecommons.org/ns#"
   xmlns:rdf="http://www.w3.org/1999/02/22-rdf-syntax-ns#"
   xmlns:svg="http://www.w3.org/2000/svg"
   xmlns="http://www.w3.org/2000/svg"
   xmlns:sodipodi="http://sodipodi.sourceforge.net/DTD/sodipodi-0.dtd"
   xmlns:inkscape="http://www.inkscape.org/namespaces/inkscape"
   version="1.0"
   width="64"
   height="64"
   viewBox="0 0 51.2 51.2"
   preserveAspectRatio="xMidYMid meet"
   id="svg2"
   sodipodi:version="0.32"
   inkscape:version="0.91 r13725"
   sodipodi:docname="acid.svg"
   inkscape:output_extension="org.inkscape.output.svg.inkscape"
   inkscape:export-filename="/home/edwin/workspace/godot/godot_fps_crawler/textures/items/acid.png"
   inkscape:export-xdpi="90"
   inkscape:export-ydpi="90">
  <defs
     id="defs31" />
  <sodipodi:namedview
     inkscape:window-height="1056"
     inkscape:window-width="1878"
     inkscape:pageshadow="2"
     inkscape:pageopacity="0"
     guidetolerance="10.0"
     gridtolerance="10.0"
     objecttolerance="10.0"
     borderopacity="1.0"
     bordercolor="#666666"
     pagecolor="#000000"
     id="base"
     inkscape:zoom="3.3999746"
     inkscape:cx="47.889714"
     inkscape:cy="45.331317"
     inkscape:window-x="42"
     inkscape:window-y="0"
     inkscape:current-layer="svg2"
     showgrid="false"
     units="px"
     inkscape:window-maximized="1" />
  <metadata
     id="metadata4">
Created by potrace 1.8, written by Peter Selinger 2001-2007
<rdf:RDF>
  <cc:Work
     rdf:about="">
    <dc:format>image/svg+xml</dc:format>
    <dc:type
       rdf:resource="http://purl.org/dc/dcmitype/StillImage" />
    <dc:title></dc:title>
  </cc:Work>
</rdf:RDF>
</metadata>
  <g
     id="g3420"
     transform="matrix(0.20831147,0,0,0.20831147,-14.947371,83.192925)">
    <path
       inkscape:connector-curvature="0"
       d="m 264.3829,-348.57763 c -3.51502,0.43466 -45.38354,7.80488 -68.17453,12.00968 -5.06466,0.926 -5.51822,1.0016 -6.6143,0.99215 -1.36066,0 -2.25831,-0.18898 -3.37329,-0.71813 -1.4457,-0.68977 -2.44729,-1.54963 -4.49773,-3.86464 -0.70867,-0.79371 -1.49294,-1.61578 -1.73861,-1.82365 -0.62364,-0.52915 -1.24727,-0.92601 -1.32286,-0.85041 -0.0378,0.0283 0.4819,3.2599 1.14333,7.17179 1.97484,11.61282 3.99692,23.73588 4.2048,25.15323 0.34017,2.32446 0.23623,4.48828 -0.33071,6.56706 -0.34962,1.29451 -0.77482,2.38115 -1.99374,5.13081 -1.71972,3.88354 -2.04099,5.04576 -2.04099,7.24738 0,1.49294 0.12284,2.27721 0.59529,3.70401 0.63308,1.8898 1.71972,3.51503 2.91029,4.34654 l 0.22678,0.15118 -0.16063,1.36066 c -0.34962,3.11817 -1.04884,6.41587 -2.08823,9.80806 -0.17953,0.59529 -0.92601,2.8536 -1.64413,5.00797 -1.66302,4.96072 -1.73862,5.29144 -1.67247,7.84267 0.0283,1.17168 0.10394,2.27721 0.19843,2.78745 0.72757,3.98748 2.28665,6.25524 4.75284,6.89777 0.68978,0.17954 2.3717,0.17954 3.04258,0 1.17168,-0.31181 2.22052,-1.04883 3.06148,-2.14492 1.48349,-1.94649 2.40949,-5.07411 2.30555,-7.72928 -0.0378,-1.11498 -0.0945,-1.389 -1.05828,-5.14971 -1.80476,-7.0395 -2.4095,-9.68522 -2.96699,-12.89788 -0.26457,-1.48349 -0.67088,-4.41268 -0.67088,-4.77175 0,-0.11338 0.13229,-0.14173 0.54804,-0.14173 2.36225,0 4.42213,-1.73862 5.30089,-4.48828 0.4819,-1.49294 0.61419,-2.52288 0.61419,-4.7245 0.009,-3.38274 -0.4819,-5.48042 -2.19217,-9.26002 -0.66143,-1.48349 -0.81262,-1.96539 -0.73702,-2.48508 0.17008,-1.28507 1.25671,-2.30556 3.18431,-2.98589 1.17168,-0.4252 1.20947,-0.4252 13.64436,-2.55123 5.92452,-1.02049 17.19718,-2.94808 25.03985,-4.29929 17.79246,-3.06148 26.47609,-4.55442 33.71403,-5.77334 3.10872,-0.5197 6.05681,-1.05829 6.5576,-1.19057 4.10087,-1.05829 8.00331,-3.60952 10.32776,-6.74659 2.63627,-3.56227 3.39219,-7.60645 2.16382,-11.57503 -1.37955,-4.47882 -5.43317,-8.03165 -10.76241,-9.43955 -1.99374,-0.52914 -2.97643,-0.64253 -5.76389,-0.68032 -1.8898,-0.0189 -2.91029,0.009 -3.73236,0.11338 z m 7.08676,6.32138 c 3.30715,0.58584 5.77333,2.14493 6.84107,4.3182 0.52915,1.06773 0.69923,1.92759 0.64253,3.241 -0.23622,5.11191 -4.27094,8.06 -11.73565,8.59859 -6.04736,0.42521 -45.05284,4.05363 -74.6471,6.93557 -2.07878,0.19843 -3.80795,0.34016 -3.8363,0.30237 -0.0661,-0.0756 -1.52129,-9.75137 -1.47404,-9.80806 0.0472,-0.0378 3.33549,-0.61419 38.66531,-6.73714 27.72336,-4.80009 39.17555,-6.77493 40.06376,-6.88832 0.41575,-0.0567 0.9071,-0.12284 1.08663,-0.14174 0.71812,-0.085 3.58117,0.0284 4.39379,0.17953 z"
       id="path12"
       style="fill:#ffffff;stroke:none;fill-opacity:1" />
    <path
       inkscape:connector-curvature="0"
       d="m 215.94733,-277.03925 c -0.9071,0.926 -1.97484,2.08823 -2.3717,2.57958 -1.852,2.315 -3.05202,4.53552 -3.48668,6.47256 -0.19843,0.85041 -0.17008,4.01583 0.0472,5.71665 0.0945,0.75592 0.17953,1.74806 0.17953,2.22051 0.009,1.5024 -0.31182,1.9087 -2.22997,2.75911 -4.46937,1.97484 -5.31978,3.22211 -5.77334,8.45686 -0.20787,2.38115 -0.31181,2.97643 -0.58583,3.52447 -0.25513,0.49135 -1.19058,1.9465 -1.23782,1.9087 -0.009,-0.0189 0.0661,-0.30237 0.17008,-0.63308 0.40631,-1.29451 0.34016,-2.62682 -0.21733,-4.83789 -0.4063,-1.59688 -0.4252,-2.74021 -0.0661,-3.42999 0.37796,-0.69922 0.91655,-1.26616 2.19217,-2.28665 1.9087,-1.53074 2.84415,-2.58903 3.46778,-3.91189 0.45355,-0.9827 0.59529,-1.70082 0.59529,-2.96699 0,-1.30396 -0.14174,-2.16382 -0.72758,-4.54496 -0.53859,-2.19217 -0.74647,-3.46779 -0.69922,-4.28985 0.0283,-0.53859 0.009,-0.67088 -0.11339,-0.69923 -0.4441,-0.13228 -5.78279,-1.02049 -5.82058,-0.97324 -0.0283,0.0283 -0.0945,0.47245 -0.13229,0.98269 -0.15118,1.71027 0.10394,3.54338 0.9449,6.93557 0.21733,0.85041 0.41576,1.8709 0.4441,2.25831 0.0473,0.70867 0.0473,0.70867 -0.30236,1.10553 -0.18898,0.21733 -0.87876,0.84096 -1.54019,1.37956 -2.21107,1.8142 -3.25046,3.05202 -3.98748,4.77174 -0.43465,1.01104 -0.53859,1.45515 -0.67088,2.66462 -0.11339,1.13388 -0.009,2.28666 0.34961,3.82684 0.47245,2.05989 0.46301,1.99374 0.34017,2.48509 -0.17008,0.61419 -0.95435,2.23941 -1.43625,2.94809 -0.64253,0.9449 -1.4268,1.80476 -2.24886,2.44729 -0.4819,0.37796 -0.74647,0.64253 -0.69923,0.71812 0.29292,0.49135 3.39219,4.86624 3.43944,4.86624 0.0378,0 0.4819,-0.34016 0.99214,-0.74647 1.04884,-0.84096 2.10713,-1.91815 2.8725,-2.8914 l 0.51025,-0.65198 0.0283,1.56854 0.0189,1.55908 0.45355,-0.0378 c 1.35121,-0.12284 2.41895,-0.42521 3.41109,-0.99215 1.97484,-1.11498 3.7607,-3.12762 5.10246,-5.73554 0.72757,-1.41735 0.91655,-2.26776 1.19058,-5.34814 0.18898,-2.11657 0.30236,-2.7969 0.50079,-2.99533 0.085,-0.085 0.54804,-0.33071 1.02049,-0.53859 3.3544,-1.4646 4.79065,-2.62682 5.745,-4.63946 0.80316,-1.69137 0.97324,-3.49613 0.62363,-6.6143 -0.26457,-2.4095 -0.26457,-3.94023 -0.009,-4.63946 0.56694,-1.50239 2.74966,-4.33709 4.80954,-6.23634 l 0.68033,-0.63308 -2.00319,-2.27721 c -1.09608,-1.25672 -2.02208,-2.27721 -2.05988,-2.27721 -0.0378,0 -0.80316,0.75592 -1.71027,1.67247 z"
       id="path22"
       style="fill:#ffffff;stroke:none;fill-opacity:1" />
    <path
       inkscape:connector-curvature="0"
       d="m 147.02633,-275.30063 c -2.57013,2.12602 -2.45674,2.01264 -2.35281,2.19217 0.0472,0.0756 0.79372,0.926 1.65358,1.88035 2.89139,3.20321 3.53393,4.02527 4.18591,5.36703 0.36851,0.76537 0.38741,0.85041 0.41575,1.84256 0.0283,0.87875 -0.009,1.26616 -0.26457,2.50398 -0.16063,0.80316 -0.32127,1.852 -0.34961,2.3339 -0.13229,2.14493 0.67088,4.35599 2.16382,5.93397 0.8882,0.9449 1.68192,1.5024 3.45833,2.41895 1.74807,0.9071 2.16382,1.21892 2.52289,1.92759 l 0.28347,0.5575 -0.0283,2.12602 c -0.0284,2.36225 0.0661,3.02368 0.63308,4.21425 0.62364,1.33231 2.43784,3.3355 4.49773,4.98908 1.03939,0.83151 3.01423,2.18272 3.85519,2.64572 l 0.4441,0.24567 0.21733,-0.4252 0.21732,-0.41576 0.68033,0.91655 c 1.04884,1.43625 2.80636,3.47723 2.96699,3.46779 0.085,-0.009 1.12443,-0.89766 2.32445,-1.98429 l 2.16382,-1.97485 -0.31181,-0.37796 c -1.97484,-2.32445 -3.50558,-4.44103 -4.14811,-5.72609 -0.40631,-0.79372 -0.41576,-1.11498 -0.12284,-3.25046 0.27402,-2.04098 0.29292,-4.85678 0.0472,-5.93397 -0.463,-1.96539 -1.63467,-3.36384 -4.28039,-5.09301 -0.83152,-0.54804 -1.70082,-1.17167 -1.9276,-1.37955 l -0.40631,-0.39686 0.0567,-0.72757 c 0.0378,-0.49135 0.20788,-1.20003 0.49135,-2.10713 0.83151,-2.59848 1.08663,-4.07252 1.08663,-6.32138 l 0,-1.4457 -0.68033,0.0567 c -0.37796,0.0283 -1.52129,0.0945 -2.53233,0.15118 -1.01104,0.0567 -2.05988,0.12284 -2.32445,0.15118 l -0.4819,0.0472 -0.0567,1.29451 c -0.0661,1.43625 -0.25512,2.36225 -0.81261,4.14811 -0.68978,2.18272 -0.79372,2.76856 -0.80317,4.25205 l -0.009,1.34176 -1.0016,-0.52914 c -1.21892,-0.62364 -1.61578,-0.93545 -1.8709,-1.47405 -0.26457,-0.53859 -0.25512,-1.11498 0.0284,-2.44729 0.63308,-2.96698 0.55749,-5.31034 -0.24568,-7.35132 -0.73702,-1.8898 -2.05988,-3.8174 -4.28984,-6.27414 -0.51025,-0.57639 -1.35121,-1.51184 -1.86146,-2.07878 -0.51024,-0.57639 -0.96379,-1.05828 -0.99214,-1.06773 -0.0378,-0.009 -1.03939,0.79371 -2.23941,1.77641 z m 18.3783,26.07924 c 0.87876,0.58584 0.89766,0.62363 0.88821,1.72917 0,1.02049 -0.30237,3.83629 -0.41576,3.95913 -0.0756,0.085 -0.80317,-0.69923 -1.01104,-1.09609 -0.11339,-0.22677 -0.11339,-0.463 -0.0283,-1.56853 0.10394,-1.22837 0.0378,-2.58903 -0.16063,-3.30715 -0.0662,-0.26457 -0.0756,-0.26457 0.72757,0.28347 z"
       id="path24"
       style="fill:#ffffff;stroke:none;fill-opacity:1" />
    <path
       inkscape:connector-curvature="0"
       d="m 104.08062,-218.71057 0,14.45697 78.47395,0 78.47394,0 0,-14.45697 0,-14.45697 -28.51708,0 -28.50763,0 -0.80317,0.85986 c -3.51503,3.81739 -8.78757,6.16075 -15.65699,6.94501 -1.75752,0.20788 -5.55601,0.22678 -7.16234,0.0473 -1.57799,-0.17008 -3.70401,-0.60474 -4.92293,-1.01104 -1.36066,-0.43466 -3.28826,-1.38901 -4.3182,-2.12603 -1.47404,-1.04884 -2.96698,-2.69296 -3.77015,-4.14811 l -0.31181,-0.56694 -31.48407,0 -31.49352,0 0,14.45697 z"
       id="path28"
       style="fill:#ffffff;stroke:none;fill-opacity:1" />
  </g>
</svg>
