solid test_map2
facet normal -0.0 -0.0 1.0
outer loop
vertex 60.0 0.0 15.0
vertex 0.0 30.0 15.0
vertex 0.0 0.0 15.0
endloop
endfacet
facet normal -0.0 -0.0 1.0
outer loop
vertex 0.0 30.0 15.0
vertex 60.0 0.0 15.0
vertex 60.0 30.0 15.0
endloop
endfacet
facet normal -1.0 0.0 0.0
outer loop
vertex 60.0 30.0 6.21
vertex 60.0 23.4454242515875 6.21
vertex 60.0 30.0 15.0
endloop
endfacet
facet normal -0.0 1.0 -0.0
outer loop
vertex 0.0 0.0 15.0
vertex 10.3074343796203 0.0 0.0
vertex 0.0 0.0 0.0
endloop
endfacet
facet normal -0.0 1.0 -0.0
outer loop
vertex 10.3074343796203 0.0 0.0
vertex 0.0 0.0 15.0
vertex 14.4238793070829 0.0 0.0
endloop
endfacet
facet normal -0.0 1.0 -0.0
outer loop
vertex 14.4238793070829 0.0 0.0
vertex 0.0 0.0 15.0
vertex 22.077472802125 0.0 0.0
endloop
endfacet
facet normal -0.0 1.0 -0.0
outer loop
vertex 22.077472802125 0.0 0.0
vertex 0.0 0.0 15.0
vertex 33.2380465956602 0.0 0.0
endloop
endfacet
facet normal -0.0 1.0 -0.0
outer loop
vertex 33.2380465956602 0.0 0.0
vertex 0.0 0.0 15.0
vertex 60.0 0.0 3.60955709766131e-016
endloop
endfacet
facet normal -0.0 1.0 -0.0
outer loop
vertex 60.0 0.0 3.60955709766131e-016
vertex 0.0 0.0 15.0
vertex 60.0 0.0 15.0
endloop
endfacet
facet normal 1.0 -0.0 -0.0
outer loop
vertex 0.0 30.0 0.0
vertex 0.0 0.0 15.0
vertex 0.0 0.0 0.0
endloop
endfacet
facet normal 1.0 -0.0 -0.0
outer loop
vertex 0.0 0.0 15.0
vertex 0.0 30.0 0.0
vertex 0.0 30.0 15.0
endloop
endfacet
facet normal 1.93960600046745e-017 1.70020873131281e-017 1.0
outer loop
vertex 53.3795893555733 13.5074377353038 -1.3245006436611e-017
vertex 49.0852323497369 17.6274377353038 0.0
vertex 49.0852323497369 13.5074377353038 0.0
endloop
endfacet
facet normal 1.93960600046745e-017 1.70020873131281e-017 1.0
outer loop
vertex 49.0852323497369 17.6274377353038 0.0
vertex 53.3795893555733 13.5074377353038 -1.3245006436611e-017
vertex 53.3795893555733 17.6274377353038 -1.53342205896786e-016
endloop
endfacet
facet normal -0.0 -0.0 1.0
outer loop
vertex 14.4238793070829 0.0 -50.0
vertex 10.3074343796203 30.0 -50.0
vertex 10.3074343796203 0.0 -50.0
endloop
endfacet
facet normal -0.0 -0.0 1.0
outer loop
vertex 10.3074343796203 30.0 -50.0
vertex 14.4238793070829 0.0 -50.0
vertex 14.4238793070829 30.0 -50.0
endloop
endfacet
facet normal 0.0 -1.0 0.0
outer loop
vertex 14.4238793070829 12.9085513148189 0.0
vertex 10.3074343796203 12.9085513148189 -1.76279822871415
vertex 14.4238793070829 12.9085513148189 -1.76279822871415
endloop
endfacet
facet normal 0.0 -1.0 0.0
outer loop
vertex 10.3074343796203 12.9085513148189 -1.76279822871415
vertex 14.4238793070829 12.9085513148189 0.0
vertex 10.3074343796203 12.9085513148189 0.0
endloop
endfacet
facet normal -1.0 0.0 0.0
outer loop
vertex 14.4238793070829 12.9085513148189 0.0
vertex 14.4238793070829 0.0 -1.76279822871415
vertex 14.4238793070829 0.0 0.0
endloop
endfacet
facet normal -1.0 0.0 0.0
outer loop
vertex 14.4238793070829 0.0 -1.76279822871415
vertex 14.4238793070829 12.9085513148189 0.0
vertex 14.4238793070829 12.9085513148189 -1.76279822871415
endloop
endfacet
facet normal 5.7153399819881e-033 1.0 3.09471282193254e-017
outer loop
vertex 10.3074343796203 16.4788011564166 0.0
vertex 14.4238793070829 16.4788011564166 -1.76279822871415
vertex 10.3074343796203 16.4788011564166 -1.76279822871415
endloop
endfacet
facet normal 5.7153399819881e-033 1.0 3.09471282193254e-017
outer loop
vertex 14.4238793070829 16.4788011564166 -1.76279822871415
vertex 10.3074343796203 16.4788011564166 0.0
vertex 14.4238793070829 16.4788011564166 0.0
endloop
endfacet
facet normal 1.0 -0.0 -0.0
outer loop
vertex 10.3074343796203 12.9085513148189 -1.76279822871415
vertex 10.3074343796203 0.0 0.0
vertex 10.3074343796203 0.0 -1.76279822871415
endloop
endfacet
facet normal 1.0 -0.0 -0.0
outer loop
vertex 10.3074343796203 0.0 0.0
vertex 10.3074343796203 12.9085513148189 -1.76279822871415
vertex 10.3074343796203 12.9085513148189 0.0
endloop
endfacet
facet normal -0.0 -0.0 1.0
outer loop
vertex 33.2380465956602 21.8907048762952 -50.0
vertex 22.077472802125 25.7984865740202 -50.0
vertex 22.077472802125 21.8907048762952 -50.0
endloop
endfacet
facet normal -0.0 -0.0 1.0
outer loop
vertex 22.077472802125 25.7984865740202 -50.0
vertex 33.2380465956602 21.8907048762952 -50.0
vertex 33.2380465956602 25.7984865740202 -50.0
endloop
endfacet
facet normal -0.0 1.0 2.63656959758627e-015
outer loop
vertex 30.8932089145166 9.05698484264174 0.0
vertex 33.2380465956602 9.05698484264174 -1.0952283151458
vertex 30.8932089145166 9.05698484264174 -1.0952283151458
endloop
endfacet
facet normal -0.0 1.0 2.63656959758627e-015
outer loop
vertex 33.2380465956602 9.05698484264174 -1.0952283151458
vertex 30.8932089145166 9.05698484264174 0.0
vertex 33.2380465956602 9.05698484264174 0.0
endloop
endfacet
facet normal 1.0 -0.0 -0.0
outer loop
vertex 30.8932089145166 20.2869848426417 -1.0952283151458
vertex 30.8932089145166 18.1166872911526 0.0
vertex 30.8932089145166 18.1166872911526 -1.0952283151458
endloop
endfacet
facet normal 1.0 -0.0 -0.0
outer loop
vertex 30.8932089145166 18.1166872911526 0.0
vertex 30.8932089145166 20.2869848426417 -1.0952283151458
vertex 30.8932089145166 20.2869848426417 0.0
endloop
endfacet
facet normal 0.0 1.0 0.0
outer loop
vertex 24.9232089145166 20.2869848426417 0.0
vertex 30.8932089145166 20.2869848426417 -1.0952283151458
vertex 24.9232089145166 20.2869848426417 -1.0952283151458
endloop
endfacet
facet normal 0.0 1.0 0.0
outer loop
vertex 30.8932089145166 20.2869848426417 -1.0952283151458
vertex 24.9232089145166 20.2869848426417 0.0
vertex 30.8932089145166 20.2869848426417 0.0
endloop
endfacet
facet normal -1.0 0.0 0.0
outer loop
vertex 24.9232089145166 18.1166872911526 0.0
vertex 24.9232089145166 9.05698484264174 -1.0952283151458
vertex 24.9232089145166 9.05698484264174 0.0
endloop
endfacet
facet normal -1.0 0.0 0.0
outer loop
vertex 24.9232089145166 9.05698484264174 -1.0952283151458
vertex 24.9232089145166 18.1166872911526 0.0
vertex 24.9232089145166 18.1166872911526 -1.0952283151458
endloop
endfacet
facet normal -0.0 1.0 5.27313919517254e-015
outer loop
vertex 22.077472802125 9.05698484264174 0.0
vertex 24.9232089145166 9.05698484264174 -1.0952283151458
vertex 22.077472802125 9.05698484264174 -1.0952283151458
endloop
endfacet
facet normal -0.0 1.0 5.27313919517254e-015
outer loop
vertex 24.9232089145166 9.05698484264174 -1.0952283151458
vertex 22.077472802125 9.05698484264174 0.0
vertex 24.9232089145166 9.05698484264174 0.0
endloop
endfacet
facet normal 0.0 -1.0 0.0
outer loop
vertex 33.2380465956602 21.8907048762952 0.0
vertex 22.077472802125 21.8907048762952 -1.0952283151458
vertex 33.2380465956602 21.8907048762952 -1.0952283151458
endloop
endfacet
facet normal 0.0 -1.0 0.0
outer loop
vertex 22.077472802125 21.8907048762952 -1.0952283151458
vertex 33.2380465956602 21.8907048762952 0.0
vertex 22.077472802125 21.8907048762952 0.0
endloop
endfacet
facet normal -1.0 0.0 0.0
outer loop
vertex 33.2380465956602 21.8907048762952 0.0
vertex 33.2380465956602 9.05698484264174 -1.0952283151458
vertex 33.2380465956602 9.05698484264174 0.0
endloop
endfacet
facet normal -1.0 0.0 0.0
outer loop
vertex 33.2380465956602 9.05698484264174 -1.0952283151458
vertex 33.2380465956602 21.8907048762952 0.0
vertex 33.2380465956602 21.8907048762952 -1.0952283151458
endloop
endfacet
facet normal -0.0 1.0 -2.11697072599063e-016
outer loop
vertex 22.077472802125 25.7984865740202 0.0
vertex 33.2380465956602 25.7984865740202 -1.0952283151458
vertex 22.077472802125 25.7984865740202 -1.0952283151458
endloop
endfacet
facet normal -0.0 1.0 -2.11697072599063e-016
outer loop
vertex 33.2380465956602 25.7984865740202 -1.0952283151458
vertex 22.077472802125 25.7984865740202 0.0
vertex 33.2380465956602 25.7984865740202 0.0
endloop
endfacet
facet normal 1.0 -0.0 -0.0
outer loop
vertex 22.077472802125 9.05698484264174 -1.0952283151458
vertex 22.077472802125 21.8907048762952 0.0
vertex 22.077472802125 9.05698484264174 0.0
endloop
endfacet
facet normal 1.0 -0.0 -0.0
outer loop
vertex 22.077472802125 21.8907048762952 0.0
vertex 22.077472802125 9.05698484264174 -1.0952283151458
vertex 22.077472802125 21.8907048762952 -1.0952283151458
endloop
endfacet
facet normal -1.0 0.0 0.0
outer loop
vertex 28.5053953717463 5.48668729115262 0.0
vertex 28.5053953717463 9.05698484264174 -1.0952283151458
vertex 28.5053953717463 5.48668729115262 -1.0952283151458
endloop
endfacet
facet normal -1.0 0.0 0.0
outer loop
vertex 28.5053953717463 9.05698484264174 -1.0952283151458
vertex 28.5053953717463 5.48668729115262 0.0
vertex 28.5053953717463 9.05698484264174 0.0
endloop
endfacet
facet normal 0.0 -1.0 6.59142399396568e-016
outer loop
vertex 33.2380465956602 5.48668729115262 0.0
vertex 28.5053953717463 5.48668729115262 -1.0952283151458
vertex 33.2380465956602 5.48668729115262 -1.0952283151458
endloop
endfacet
facet normal 0.0 -1.0 6.59142399396568e-016
outer loop
vertex 28.5053953717463 5.48668729115262 -1.0952283151458
vertex 33.2380465956602 5.48668729115262 0.0
vertex 28.5053953717463 5.48668729115262 0.0
endloop
endfacet
facet normal 0.0 -1.0 0.0
outer loop
vertex 27.7553953717463 5.48668729115262 0.0
vertex 22.077472802125 5.48668729115262 -1.0952283151458
vertex 27.7553953717463 5.48668729115262 -1.0952283151458
endloop
endfacet
facet normal 0.0 -1.0 0.0
outer loop
vertex 22.077472802125 5.48668729115262 -1.0952283151458
vertex 27.7553953717463 5.48668729115262 0.0
vertex 22.077472802125 5.48668729115262 0.0
endloop
endfacet
facet normal 1.0 -0.0 -0.0
outer loop
vertex 27.7553953717463 18.1166872911526 -1.0952283151458
vertex 27.7553953717463 9.05698484264174 0.0
vertex 27.7553953717463 9.05698484264174 -1.0952283151458
endloop
endfacet
facet normal 1.0 -0.0 -0.0
outer loop
vertex 27.7553953717463 9.05698484264174 0.0
vertex 27.7553953717463 18.1166872911526 -1.0952283151458
vertex 27.7553953717463 18.1166872911526 0.0
endloop
endfacet
facet normal -1.0 0.0 0.0
outer loop
vertex 42.2752323497369 12.23980879634 4.04999999999999
vertex 42.2752323497369 10.146702966822 0.0
vertex 42.2752323497369 10.146702966822 4.04999999999999
endloop
endfacet
facet normal -1.0 0.0 0.0
outer loop
vertex 42.2752323497369 10.146702966822 0.0
vertex 42.2752323497369 12.23980879634 4.04999999999999
vertex 42.2752323497369 12.23980879634 0.0
endloop
endfacet
facet normal -0.0 1.0 -0.0
outer loop
vertex 46.6852323497369 12.23980879634 4.04999999999999
vertex 42.2752323497369 12.23980879634 0.0
vertex 42.2752323497369 12.23980879634 4.04999999999999
endloop
endfacet
facet normal -1.0 0.0 0.0
outer loop
vertex 42.2752323497369 21.1655144302087 4.04999999999999
vertex 42.2752323497369 18.98980879634 0.0
vertex 42.2752323497369 18.98980879634 4.04999999999999
endloop
endfacet
facet normal -1.0 0.0 0.0
outer loop
vertex 42.2752323497369 18.98980879634 0.0
vertex 42.2752323497369 21.1655144302087 4.04999999999999
vertex 42.2752323497369 21.1655144302087 0.0
endloop
endfacet
facet normal 0.0 -1.0 0.0
outer loop
vertex 47.741776481618 21.1655144302087 4.04999999999999
vertex 49.0852323497369 21.1655144302087 0.0
vertex 49.0852323497369 21.1655144302087 4.04999999999999
endloop
endfacet
facet normal -0.0 -1.0 -0.0
outer loop
vertex 49.0852323497369 10.146702966822 4.04999999999999
vertex 42.2752323497369 10.146702966822 0.0
vertex 49.0852323497369 10.146702966822 0.0
endloop
endfacet
facet normal -0.0 -1.0 -0.0
outer loop
vertex 42.2752323497369 10.146702966822 0.0
vertex 49.0852323497369 10.146702966822 4.04999999999999
vertex 42.2752323497369 10.146702966822 4.04999999999999
endloop
endfacet
facet normal 0.0 -1.0 0.0
outer loop
vertex 42.2752323497369 18.98980879634 4.04999999999999
vertex 42.2752323497369 18.98980879634 0.0
vertex 46.6852323497369 18.98980879634 4.04999999999999
endloop
endfacet
facet normal -0.676404999576678 -0.0 0.73652988842794
outer loop
vertex 46.6852323497369 12.23980879634 4.04999999999999
vertex 42.2752323497369 18.98980879634 0.0
vertex 42.2752323497369 12.23980879634 0.0
endloop
endfacet
facet normal -0.676404999576678 -0.0 0.73652988842794
outer loop
vertex 42.2752323497369 18.98980879634 0.0
vertex 46.6852323497369 12.23980879634 4.04999999999999
vertex 46.6852323497369 18.98980879634 4.04999999999999
endloop
endfacet
facet normal 1.0 -0.0 -0.0
outer loop
vertex 49.0852323497369 21.1655144302087 0.0
vertex 49.0852323497369 17.6274377353038 4.04999999999999
vertex 49.0852323497369 17.6274377353038 2.57999999999999
endloop
endfacet
facet normal 1.0 -0.0 -0.0
outer loop
vertex 49.0852323497369 17.6274377353038 4.04999999999999
vertex 49.0852323497369 21.1655144302087 0.0
vertex 49.0852323497369 21.1655144302087 4.04999999999999
endloop
endfacet
facet normal 0.452657357522046 1.09507690300945e-031 -0.891684538769827
outer loop
vertex 53.3795893555733 17.6274377353038 4.75999999999999
vertex 49.0852323497369 13.5074377353038 2.57999999999999
vertex 49.0852323497369 17.6274377353038 2.57999999999999
endloop
endfacet
facet normal 0.452657357522046 1.09507690300945e-031 -0.891684538769827
outer loop
vertex 49.0852323497369 13.5074377353038 2.57999999999999
vertex 53.3795893555733 17.6274377353038 4.75999999999999
vertex 53.3795893555733 13.5074377353038 4.75999999999999
endloop
endfacet
facet normal -3.74478609534972e-032 -1.32722259536293e-015 1.0
outer loop
vertex 46.6852323497369 18.98980879634 4.04999999999999
vertex 44.3317764816181 21.1655144302087 4.04999999999999
vertex 42.2752323497369 18.98980879634 4.04999999999999
endloop
endfacet
facet normal -3.74478609534972e-032 -1.32722259536293e-015 1.0
outer loop
vertex 44.3317764816181 21.1655144302087 4.04999999999999
vertex 46.6852323497369 18.98980879634 4.04999999999999
vertex 47.741776481618 21.1655144302087 4.04999999999999
endloop
endfacet
facet normal -0.449346134019206 -0.0 0.893357740125418
outer loop
vertex 53.3795893555733 13.5074377353038 6.21
vertex 49.0852323497369 17.6274377353038 4.04999999999999
vertex 49.0852323497369 13.5074377353038 4.04999999999999
endloop
endfacet
facet normal -0.449346134019206 -0.0 0.893357740125418
outer loop
vertex 49.0852323497369 17.6274377353038 4.04999999999999
vertex 53.3795893555733 13.5074377353038 6.21
vertex 53.3795893555733 17.6274377353038 6.21
endloop
endfacet
facet normal 0.0 -1.0 0.0
outer loop
vertex 53.3795893555733 13.5074377353038 4.75999999999999
vertex 49.0852323497369 13.5074377353038 4.04999999999999
vertex 49.0852323497369 13.5074377353038 2.57999999999999
endloop
endfacet
facet normal 0.0 -1.0 0.0
outer loop
vertex 49.0852323497369 13.5074377353038 4.04999999999999
vertex 53.3795893555733 13.5074377353038 4.75999999999999
vertex 53.3795893555733 13.5074377353038 6.21
endloop
endfacet
facet normal -0.0 1.0 -0.0
outer loop
vertex 49.0852323497369 17.6274377353038 4.04999999999999
vertex 53.3795893555733 17.6274377353038 4.75999999999999
vertex 49.0852323497369 17.6274377353038 2.57999999999999
endloop
endfacet
facet normal -0.0 1.0 -0.0
outer loop
vertex 53.3795893555733 17.6274377353038 4.75999999999999
vertex 49.0852323497369 17.6274377353038 4.04999999999999
vertex 53.3795893555733 17.6274377353038 6.21
endloop
endfacet
facet normal -1.0 0.0 0.0
outer loop
vertex 53.3795893555733 13.5074377353038 4.75999999999999
vertex 53.3795893555733 12.6470753683922 6.21
vertex 53.3795893555733 13.5074377353038 6.21
endloop
endfacet
facet normal 0.0 -1.0 0.0
outer loop
vertex 60.0 12.6470753683922 6.21
vertex 53.3795893555733 12.6470753683922 0.0
vertex 60.0 12.6470753683922 0.0
endloop
endfacet
facet normal 0.0 -1.0 0.0
outer loop
vertex 53.3795893555733 12.6470753683922 0.0
vertex 60.0 12.6470753683922 6.21
vertex 53.3795893555733 12.6470753683922 6.21
endloop
endfacet
facet normal -0.0 -0.0 1.0
outer loop
vertex 47.7417764816181 26.59 6.21
vertex 44.3317764816181 30.0 6.21
vertex 44.3317764816181 26.59 6.21
endloop
endfacet
facet normal -0.0 -0.0 1.0
outer loop
vertex 60.0 12.6470753683922 6.21
vertex 53.3795893555733 13.5074377353038 6.21
vertex 53.3795893555733 12.6470753683922 6.21
endloop
endfacet
facet normal -0.0 -0.0 1.0
outer loop
vertex 53.3795893555733 13.5074377353038 6.21
vertex 60.0 12.6470753683922 6.21
vertex 53.3795893555733 17.6274377353038 6.21
endloop
endfacet
facet normal -0.0 -0.0 1.0
outer loop
vertex 53.3795893555733 17.6274377353038 6.21
vertex 60.0 12.6470753683922 6.21
vertex 53.3795893555733 18.5087695527419 6.21
endloop
endfacet
facet normal -0.0 -0.0 1.0
outer loop
vertex 53.3795893555733 18.5087695527419 6.21
vertex 60.0 12.6470753683922 6.21
vertex 56.1330087450642 18.5087695527419 6.21
endloop
endfacet
facet normal -0.0 -0.0 1.0
outer loop
vertex 56.1330087450642 18.5087695527419 6.21
vertex 60.0 12.6470753683922 6.21
vertex 58.3430087450642 18.5087695527419 6.21
endloop
endfacet
facet normal -0.0 -0.0 1.0
outer loop
vertex 58.3430087450642 18.5087695527419 6.21
vertex 60.0 12.6470753683922 6.21
vertex 60.0 18.5087695527419 6.21
endloop
endfacet
facet normal 8.3899915549385e-015 1.0 -0.0
outer loop
vertex 53.3795893555733 18.5087695527419 6.21
vertex 56.1330087450642 18.5087695527419 5.84
vertex 53.3795893555733 18.5087695527419 4.75999999999999
endloop
endfacet
facet normal 8.3899915549385e-015 1.0 -0.0
outer loop
vertex 56.1330087450642 18.5087695527419 5.84
vertex 53.3795893555733 18.5087695527419 6.21
vertex 56.1330087450642 18.5087695527419 6.21
endloop
endfacet
facet normal 0.0 -1.0 0.0
outer loop
vertex 60.0 23.4454242515875 6.21
vertex 58.3430087450642 23.4454242515875 5.84
vertex 60.0 23.4454242515875 5.84
endloop
endfacet
facet normal 0.0 -1.0 0.0
outer loop
vertex 58.3430087450642 23.4454242515875 5.84
vertex 60.0 23.4454242515875 6.21
vertex 58.3430087450642 23.4454242515875 6.21
endloop
endfacet
facet normal -1.0 0.0 0.0
outer loop
vertex 44.3317764816181 30.0 6.21
vertex 44.3317764816181 26.59 4.04999999999999
vertex 44.3317764816181 26.59 6.21
endloop
endfacet
facet normal -1.0 0.0 0.0
outer loop
vertex 44.3317764816181 26.59 4.04999999999999
vertex 44.3317764816181 30.0 6.21
vertex 44.3317764816181 30.0 4.04999999999999
endloop
endfacet
facet normal 0.0 0.0 -1.0
outer loop
vertex 47.741776481618 30.0 4.04999999999999
vertex 44.3317764816181 26.59 4.04999999999999
vertex 44.3317764816181 30.0 4.04999999999999
endloop
endfacet
facet normal 0.0 0.0 -1.0
outer loop
vertex 44.3317764816181 26.59 4.04999999999999
vertex 47.741776481618 30.0 4.04999999999999
vertex 47.741776481618 26.59 4.04999999999999
endloop
endfacet
facet normal 1.0 1.4023075081534e-030 -3.22641975209922e-014
outer loop
vertex 47.7417764816181 26.59 5.84000000000015
vertex 47.741776481618 21.1655144302087 4.04999999999999
vertex 47.741776481618 26.59 4.04999999999999
endloop
endfacet
facet normal 1.50215058652982e-017 -0.369944138255886 0.929053999813848
outer loop
vertex 47.741776481618 21.1655144302087 4.04999999999999
vertex 44.3317764816181 26.59 6.21
vertex 44.3317764816181 21.1655144302087 4.04999999999999
endloop
endfacet
facet normal 1.50215058652982e-017 -0.369944138255886 0.929053999813848
outer loop
vertex 44.3317764816181 26.59 6.21
vertex 47.741776481618 21.1655144302087 4.04999999999999
vertex 47.7417764816181 26.59 6.21
endloop
endfacet
facet normal 0.0 0.0 -1.0
outer loop
vertex 47.741776481618 26.59 4.04999999999999
vertex 44.3317764816181 21.1655144302087 4.04999999999999
vertex 44.3317764816181 26.59 4.04999999999999
endloop
endfacet
facet normal 0.0 0.0 -1.0
outer loop
vertex 44.3317764816181 21.1655144302087 4.04999999999999
vertex 47.741776481618 26.59 4.04999999999999
vertex 47.741776481618 21.1655144302087 4.04999999999999
endloop
endfacet
facet normal -1.0 0.0 0.0
outer loop
vertex 44.3317764816181 26.59 4.04999999999999
vertex 44.3317764816181 21.1655144302087 4.04999999999999
vertex 44.3317764816181 26.59 6.21
endloop
endfacet
facet normal 1.0 -0.0 -3.35404641167531e-014
outer loop
vertex 47.741776481618 30.0 4.04999999999999
vertex 47.7417764816181 26.59 5.84000000000015
vertex 47.741776481618 26.59 4.04999999999999
endloop
endfacet
facet normal 1.0 -0.0 -3.35404641167531e-014
outer loop
vertex 47.7417764816181 26.59 5.84000000000015
vertex 47.741776481618 30.0 4.04999999999999
vertex 47.7417764816181 30.0 5.84000000000015
endloop
endfacet
facet normal 0.0 -1.0 0.0
outer loop
vertex 53.3795893555733 26.59 6.20999999999985
vertex 47.7417764816181 26.59 5.84000000000015
vertex 53.3795893555733 26.59 5.84
endloop
endfacet
facet normal 0.0 -1.0 0.0
outer loop
vertex 47.7417764816181 26.59 5.84000000000015
vertex 53.3795893555733 26.59 6.20999999999985
vertex 47.7417764816181 26.59 6.21
endloop
endfacet
facet normal -2.62498675129476e-014 0.0 -1.0
outer loop
vertex 53.3795893555733 30.0 5.84
vertex 47.7417764816181 26.59 5.84000000000015
vertex 47.7417764816181 30.0 5.84000000000015
endloop
endfacet
facet normal -2.62498675129476e-014 0.0 -1.0
outer loop
vertex 47.7417764816181 26.59 5.84000000000015
vertex 53.3795893555733 30.0 5.84
vertex 53.3795893555733 26.59 5.84
endloop
endfacet
facet normal -1.0 0.0 0.0
outer loop
vertex 56.1330087450642 23.4454242515875 6.21
vertex 56.1330087450642 18.5087695527419 5.84
vertex 56.1330087450642 18.5087695527419 6.21
endloop
endfacet
facet normal -1.0 0.0 0.0
outer loop
vertex 56.1330087450642 18.5087695527419 5.84
vertex 56.1330087450642 23.4454242515875 6.21
vertex 56.1330087450642 23.4454242515875 5.84
endloop
endfacet
facet normal 0.0 0.0 -1.0
outer loop
vertex 58.3430087450642 23.4454242515875 5.84
vertex 56.1330087450642 18.5087695527419 5.84
vertex 56.1330087450642 23.4454242515875 5.84
endloop
endfacet
facet normal 0.0 0.0 -1.0
outer loop
vertex 56.1330087450642 18.5087695527419 5.84
vertex 58.3430087450642 23.4454242515875 5.84
vertex 58.3430087450642 18.5087695527419 5.84
endloop
endfacet
facet normal 1.0 -0.0 -0.0
outer loop
vertex 58.3430087450642 23.4454242515875 5.84
vertex 58.3430087450642 18.5087695527419 6.21
vertex 58.3430087450642 18.5087695527419 5.84
endloop
endfacet
facet normal 1.0 -0.0 -0.0
outer loop
vertex 58.3430087450642 18.5087695527419 6.21
vertex 58.3430087450642 23.4454242515875 5.84
vertex 58.3430087450642 23.4454242515875 6.21
endloop
endfacet
facet normal 0.0 0.0 -1.0
outer loop
vertex 14.4238793070829 16.4788011564166 -1.76279822871415
vertex 10.3074343796203 12.9085513148189 -1.76279822871415
vertex 10.3074343796203 16.4788011564166 -1.76279822871415
endloop
endfacet
facet normal 0.0 0.0 -1.0
outer loop
vertex 10.3074343796203 12.9085513148189 -1.76279822871415
vertex 14.4238793070829 16.4788011564166 -1.76279822871415
vertex 14.4238793070829 12.9085513148189 -1.76279822871415
endloop
endfacet
facet normal 0.0 0.0 -1.0
outer loop
vertex 30.8932089145166 20.2869848426417 -1.0952283151458
vertex 24.9232089145166 18.1166872911526 -1.0952283151458
vertex 24.9232089145166 20.2869848426417 -1.0952283151458
endloop
endfacet
facet normal 0.0 0.0 -1.0
outer loop
vertex 24.9232089145166 18.1166872911526 -1.0952283151458
vertex 30.8932089145166 20.2869848426417 -1.0952283151458
vertex 27.7553953717463 18.1166872911526 -1.0952283151458
endloop
endfacet
facet normal 0.0 0.0 -1.0
outer loop
vertex 24.9232089145166 18.1166872911526 -1.0952283151458
vertex 27.7553953717463 18.1166872911526 -1.0952283151458
vertex 24.9232089145166 9.05698484264174 -1.0952283151458
endloop
endfacet
facet normal 0.0 0.0 -1.0
outer loop
vertex 27.7553953717463 18.1166872911526 -1.0952283151458
vertex 30.8932089145166 20.2869848426417 -1.0952283151458
vertex 28.5053953717463 18.1166872911526 -1.0952283151458
endloop
endfacet
facet normal 0.0 0.0 -1.0
outer loop
vertex 28.5053953717463 18.1166872911526 -1.0952283151458
vertex 30.8932089145166 20.2869848426417 -1.0952283151458
vertex 28.5053953717463 9.05698484264174 -1.0952283151458
endloop
endfacet
facet normal 0.0 0.0 -1.0
outer loop
vertex 28.5053953717463 9.05698484264174 -1.0952283151458
vertex 30.8932089145166 20.2869848426417 -1.0952283151458
vertex 28.5053953717463 5.48668729115262 -1.0952283151458
endloop
endfacet
facet normal 0.0 0.0 -1.0
outer loop
vertex 28.5053953717463 5.48668729115262 -1.0952283151458
vertex 30.8932089145166 20.2869848426417 -1.0952283151458
vertex 30.8932089145166 9.05698484264174 -1.0952283151458
endloop
endfacet
facet normal 0.0 0.0 -1.0
outer loop
vertex 28.5053953717463 5.48668729115262 -1.0952283151458
vertex 30.8932089145166 9.05698484264174 -1.0952283151458
vertex 33.2380465956602 5.48668729115262 -1.0952283151458
endloop
endfacet
facet normal 0.0 0.0 -1.0
outer loop
vertex 30.8932089145166 9.05698484264174 -1.0952283151458
vertex 30.8932089145166 20.2869848426417 -1.0952283151458
vertex 30.8932089145166 18.1166872911526 -1.0952283151458
endloop
endfacet
facet normal 0.0 0.0 -1.0
outer loop
vertex 33.2380465956602 5.48668729115262 -1.0952283151458
vertex 30.8932089145166 9.05698484264174 -1.0952283151458
vertex 33.2380465956602 9.05698484264174 -1.0952283151458
endloop
endfacet
facet normal 0.0 0.0 -1.0
outer loop
vertex 24.9232089145166 9.05698484264174 -1.0952283151458
vertex 22.077472802125 5.48668729115262 -1.0952283151458
vertex 22.077472802125 9.05698484264174 -1.0952283151458
endloop
endfacet
facet normal 0.0 0.0 -1.0
outer loop
vertex 22.077472802125 5.48668729115262 -1.0952283151458
vertex 24.9232089145166 9.05698484264174 -1.0952283151458
vertex 27.7553953717463 5.48668729115262 -1.0952283151458
endloop
endfacet
facet normal 0.0 0.0 -1.0
outer loop
vertex 27.7553953717463 5.48668729115262 -1.0952283151458
vertex 24.9232089145166 9.05698484264174 -1.0952283151458
vertex 27.7553953717463 18.1166872911526 -1.0952283151458
endloop
endfacet
facet normal 0.0 0.0 -1.0
outer loop
vertex 27.7553953717463 5.48668729115262 -1.0952283151458
vertex 27.7553953717463 18.1166872911526 -1.0952283151458
vertex 27.7553953717463 9.05698484264174 -1.0952283151458
endloop
endfacet
facet normal 0.0 -1.0 0.0
outer loop
vertex 28.5053953717463 18.1166872911526 0.0
vertex 27.7553953717463 18.1166872911526 -1.0952283151458
vertex 28.5053953717463 18.1166872911526 -1.0952283151458
endloop
endfacet
facet normal 0.0 -1.0 0.0
outer loop
vertex 27.7553953717463 18.1166872911526 -1.0952283151458
vertex 28.5053953717463 18.1166872911526 0.0
vertex 27.7553953717463 18.1166872911526 0.0
endloop
endfacet
facet normal 0.0 -1.0 0.0
outer loop
vertex 56.1330087450642 23.4454242515875 6.21
vertex 53.3795893555733 23.4454242515875 5.84
vertex 56.1330087450642 23.4454242515875 5.84
endloop
endfacet
facet normal 0.0 -1.0 0.0
outer loop
vertex 53.3795893555733 23.4454242515875 5.84
vertex 56.1330087450642 23.4454242515875 6.21
vertex 53.3795893555733 23.4454242515875 6.21
endloop
endfacet
facet normal -1.0 -2.02024724482815e-014 1.56088955574543e-014
outer loop
vertex 53.3795893555733 26.59 6.20999999999985
vertex 53.3795893555733 23.4454242515875 5.84
vertex 53.3795893555733 23.4454242515875 6.21
endloop
endfacet
facet normal -1.0 -2.02024724482815e-014 1.56088955574543e-014
outer loop
vertex 53.3795893555733 23.4454242515875 5.84
vertex 53.3795893555733 26.59 6.20999999999985
vertex 53.3795893555733 26.59 5.84
endloop
endfacet
facet normal 0.0 -1.0 0.0
outer loop
vertex 33.2380465956602 30.0 -1.0952283151458
vertex 22.077472802125 30.0 -50.0
vertex 33.2380465956602 30.0 -50.0
endloop
endfacet
facet normal 0.0 -1.0 0.0
outer loop
vertex 22.077472802125 30.0 -50.0
vertex 33.2380465956602 30.0 -1.0952283151458
vertex 22.077472802125 30.0 -1.0952283151458
endloop
endfacet
facet normal -0.0 -0.0 1.0
outer loop
vertex 27.7553953717463 9.05698484264174 0.0
vertex 24.9232089145166 18.1166872911526 0.0
vertex 24.9232089145166 9.05698484264174 0.0
endloop
endfacet
facet normal -0.0 -0.0 1.0
outer loop
vertex 24.9232089145166 18.1166872911526 0.0
vertex 27.7553953717463 9.05698484264174 0.0
vertex 27.7553953717463 18.1166872911526 0.0
endloop
endfacet
facet normal -0.0 -0.0 1.0
outer loop
vertex 30.8932089145166 9.05698484264174 0.0
vertex 28.5053953717463 18.1166872911526 0.0
vertex 28.5053953717463 9.05698484264174 0.0
endloop
endfacet
facet normal -0.0 -0.0 1.0
outer loop
vertex 28.5053953717463 18.1166872911526 0.0
vertex 30.8932089145166 9.05698484264174 0.0
vertex 30.8932089145166 18.1166872911526 0.0
endloop
endfacet
facet normal -0.0 -0.0 1.0
outer loop
vertex 27.7553953717463 18.1166872911526 0.0
vertex 24.9232089145166 20.2869848426417 0.0
vertex 24.9232089145166 18.1166872911526 0.0
endloop
endfacet
facet normal -0.0 -0.0 1.0
outer loop
vertex 24.9232089145166 20.2869848426417 0.0
vertex 27.7553953717463 18.1166872911526 0.0
vertex 30.8932089145166 20.2869848426417 0.0
endloop
endfacet
facet normal -0.0 -0.0 1.0
outer loop
vertex 30.8932089145166 20.2869848426417 0.0
vertex 27.7553953717463 18.1166872911526 0.0
vertex 28.5053953717463 18.1166872911526 0.0
endloop
endfacet
facet normal -0.0 -0.0 1.0
outer loop
vertex 30.8932089145166 20.2869848426417 0.0
vertex 28.5053953717463 18.1166872911526 0.0
vertex 30.8932089145166 18.1166872911526 0.0
endloop
endfacet
facet normal -1.0 0.0 0.0
outer loop
vertex 24.9232089145166 20.2869848426417 0.0
vertex 24.9232089145166 18.1166872911526 -1.0952283151458
vertex 24.9232089145166 18.1166872911526 0.0
endloop
endfacet
facet normal -1.0 0.0 0.0
outer loop
vertex 24.9232089145166 18.1166872911526 -1.0952283151458
vertex 24.9232089145166 20.2869848426417 0.0
vertex 24.9232089145166 20.2869848426417 -1.0952283151458
endloop
endfacet
facet normal 1.0 -0.0 -0.0
outer loop
vertex 30.8932089145166 9.05698484264174 -1.0952283151458
vertex 30.8932089145166 18.1166872911526 0.0
vertex 30.8932089145166 9.05698484264174 0.0
endloop
endfacet
facet normal 1.0 -0.0 -0.0
outer loop
vertex 30.8932089145166 18.1166872911526 0.0
vertex 30.8932089145166 9.05698484264174 -1.0952283151458
vertex 30.8932089145166 18.1166872911526 -1.0952283151458
endloop
endfacet
facet normal 1.0 -0.0 -0.0
outer loop
vertex 27.7553953717463 9.05698484264174 -1.0952283151458
vertex 27.7553953717463 5.48668729115262 0.0
vertex 27.7553953717463 5.48668729115262 -1.0952283151458
endloop
endfacet
facet normal 1.0 -0.0 -0.0
outer loop
vertex 27.7553953717463 5.48668729115262 0.0
vertex 27.7553953717463 9.05698484264174 -1.0952283151458
vertex 27.7553953717463 9.05698484264174 0.0
endloop
endfacet
facet normal -1.0 0.0 0.0
outer loop
vertex 28.5053953717463 18.1166872911526 0.0
vertex 28.5053953717463 9.05698484264174 -1.0952283151458
vertex 28.5053953717463 9.05698484264174 0.0
endloop
endfacet
facet normal -1.0 0.0 0.0
outer loop
vertex 28.5053953717463 9.05698484264174 -1.0952283151458
vertex 28.5053953717463 18.1166872911526 0.0
vertex 28.5053953717463 18.1166872911526 -1.0952283151458
endloop
endfacet
facet normal -0.0 -0.0 1.0
outer loop
vertex 49.0852323497369 13.5074377353038 4.04999999999999
vertex 46.6852323497369 12.23980879634 4.04999999999999
vertex 49.0852323497369 10.146702966822 4.04999999999999
endloop
endfacet
facet normal 1.0 -0.0 -0.0
outer loop
vertex 49.0852323497369 13.5074377353038 2.57999999999999
vertex 49.0852323497369 10.146702966822 0.0
vertex 49.0852323497369 13.5074377353038 0.0
endloop
endfacet
facet normal 1.0 -0.0 -0.0
outer loop
vertex 49.0852323497369 17.6274377353038 0.0
vertex 49.0852323497369 13.5074377353038 2.57999999999999
vertex 49.0852323497369 13.5074377353038 0.0
endloop
endfacet
facet normal 1.0 -0.0 -0.0
outer loop
vertex 49.0852323497369 13.5074377353038 2.57999999999999
vertex 49.0852323497369 17.6274377353038 0.0
vertex 49.0852323497369 17.6274377353038 2.57999999999999
endloop
endfacet
facet normal 8.3899915549385e-015 1.0 -7.69675742870606e-031
outer loop
vertex 56.1330087450642 18.5087695527419 5.84
vertex 53.3795893555733 18.5087695527419 -3.60955709766131e-016
vertex 53.3795893555733 18.5087695527419 4.75999999999999
endloop
endfacet
facet normal -1.0 0.0 0.0
outer loop
vertex 53.3795893555733 13.5074377353038 4.75999999999999
vertex 53.3795893555733 12.6470753683922 0.0
vertex 53.3795893555733 12.6470753683922 6.21
endloop
endfacet
facet normal -1.0 0.0 0.0
outer loop
vertex 53.3795893555733 12.6470753683922 0.0
vertex 53.3795893555733 13.5074377353038 4.75999999999999
vertex 53.3795893555733 13.5074377353038 -1.3245006436611e-017
endloop
endfacet
facet normal -1.0 0.0 0.0
outer loop
vertex 53.3795893555733 18.5087695527419 4.75999999999999
vertex 53.3795893555733 17.6274377353038 -1.53342205896786e-016
vertex 53.3795893555733 17.6274377353038 4.75999999999999
endloop
endfacet
facet normal -1.0 0.0 0.0
outer loop
vertex 53.3795893555733 17.6274377353038 -1.53342205896786e-016
vertex 53.3795893555733 18.5087695527419 4.75999999999999
vertex 53.3795893555733 18.5087695527419 -3.60955709766131e-016
endloop
endfacet
facet normal -1.0 0.0 0.0
outer loop
vertex 53.3795893555733 17.6274377353038 4.75999999999999
vertex 53.3795893555733 13.5074377353038 -1.3245006436611e-017
vertex 53.3795893555733 13.5074377353038 4.75999999999999
endloop
endfacet
facet normal -1.0 0.0 0.0
outer loop
vertex 53.3795893555733 13.5074377353038 -1.3245006436611e-017
vertex 53.3795893555733 17.6274377353038 4.75999999999999
vertex 53.3795893555733 17.6274377353038 -1.53342205896786e-016
endloop
endfacet
facet normal -6.01190066773157e-018 2.72237247880361e-017 1.0
outer loop
vertex 60.0 0.0 3.60955709766131e-016
vertex 53.3795893555733 12.6470753683922 0.0
vertex 49.0852323497369 10.146702966822 0.0
endloop
endfacet
facet normal -6.01190066773157e-018 2.72237247880361e-017 1.0
outer loop
vertex 53.3795893555733 12.6470753683922 0.0
vertex 60.0 0.0 3.60955709766131e-016
vertex 60.0 12.6470753683922 0.0
endloop
endfacet
facet normal -0.0 -0.0 1.0
outer loop
vertex 58.3430087450642 18.5087695527419 6.21
vertex 56.1330087450642 23.4454242515875 6.21
vertex 56.1330087450642 18.5087695527419 6.21
endloop
endfacet
facet normal -0.0 -0.0 1.0
outer loop
vertex 56.1330087450642 23.4454242515875 6.21
vertex 58.3430087450642 18.5087695527419 6.21
vertex 58.3430087450642 23.4454242515875 6.21
endloop
endfacet
facet normal -1.10183963420967e-014 6.46351240066363e-015 1.0
outer loop
vertex 53.3795893555733 23.4454242515875 6.21
vertex 53.3795893555733 30.0 6.20999999999993
vertex 53.3795893555733 26.59 6.20999999999985
endloop
endfacet
facet normal -1.10183963420967e-014 6.46351240066363e-015 1.0
outer loop
vertex 53.3795893555733 30.0 6.20999999999993
vertex 53.3795893555733 23.4454242515875 6.21
vertex 60.0 30.0 6.21
endloop
endfacet
facet normal -1.10183963420967e-014 6.46351240066363e-015 1.0
outer loop
vertex 60.0 30.0 6.21
vertex 53.3795893555733 23.4454242515875 6.21
vertex 56.1330087450642 23.4454242515875 6.21
endloop
endfacet
facet normal -1.10183963420967e-014 6.46351240066363e-015 1.0
outer loop
vertex 60.0 30.0 6.21
vertex 56.1330087450642 23.4454242515875 6.21
vertex 58.3430087450642 23.4454242515875 6.21
endloop
endfacet
facet normal -1.10183963420967e-014 6.46351240066363e-015 1.0
outer loop
vertex 60.0 30.0 6.21
vertex 58.3430087450642 23.4454242515875 6.21
vertex 60.0 23.4454242515875 6.21
endloop
endfacet
facet normal 0.0 0.0 -1.0
outer loop
vertex 33.2380465956602 25.7984865740202 -1.0952283151458
vertex 22.077472802125 21.8907048762952 -1.0952283151458
vertex 22.077472802125 25.7984865740202 -1.0952283151458
endloop
endfacet
facet normal 0.0 0.0 -1.0
outer loop
vertex 22.077472802125 21.8907048762952 -1.0952283151458
vertex 33.2380465956602 25.7984865740202 -1.0952283151458
vertex 33.2380465956602 21.8907048762952 -1.0952283151458
endloop
endfacet
facet normal 1.0 -0.0 -0.0
outer loop
vertex 22.077472802125 5.48668729115262 -1.0952283151458
vertex 22.077472802125 0.0 0.0
vertex 22.077472802125 0.0 -1.0952283151458
endloop
endfacet
facet normal 1.0 -0.0 -0.0
outer loop
vertex 22.077472802125 0.0 0.0
vertex 22.077472802125 5.48668729115262 -1.0952283151458
vertex 22.077472802125 5.48668729115262 0.0
endloop
endfacet
facet normal -1.0 0.0 0.0
outer loop
vertex 33.2380465956602 5.48668729115262 0.0
vertex 33.2380465956602 0.0 -1.0952283151458
vertex 33.2380465956602 0.0 0.0
endloop
endfacet
facet normal -1.0 0.0 0.0
outer loop
vertex 33.2380465956602 0.0 -1.0952283151458
vertex 33.2380465956602 5.48668729115262 0.0
vertex 33.2380465956602 5.48668729115262 -1.0952283151458
endloop
endfacet
facet normal -1.0 0.0 0.0
outer loop
vertex 33.2380465956602 25.7984865740202 0.0
vertex 33.2380465956602 30.0 -1.0952283151458
vertex 33.2380465956602 25.7984865740202 -1.0952283151458
endloop
endfacet
facet normal -1.0 0.0 0.0
outer loop
vertex 33.2380465956602 30.0 -1.0952283151458
vertex 33.2380465956602 25.7984865740202 0.0
vertex 33.2380465956602 30.0 0.0
endloop
endfacet
facet normal 0.0 -1.0 0.0
outer loop
vertex 14.4238793070829 30.0 -1.76279822871415
vertex 10.3074343796203 30.0 -50.0
vertex 14.4238793070829 30.0 -50.0
endloop
endfacet
facet normal 0.0 -1.0 0.0
outer loop
vertex 10.3074343796203 30.0 -50.0
vertex 14.4238793070829 30.0 -1.76279822871415
vertex 10.3074343796203 30.0 -1.76279822871415
endloop
endfacet
facet normal 1.0 -0.0 -0.0
outer loop
vertex 22.077472802125 30.0 -1.0952283151458
vertex 22.077472802125 25.7984865740202 0.0
vertex 22.077472802125 25.7984865740202 -1.0952283151458
endloop
endfacet
facet normal 1.0 -0.0 -0.0
outer loop
vertex 22.077472802125 25.7984865740202 0.0
vertex 22.077472802125 30.0 -1.0952283151458
vertex 22.077472802125 30.0 0.0
endloop
endfacet
facet normal -1.0 0.0 0.0
outer loop
vertex 33.2380465956602 25.7984865740202 -1.0952283151458
vertex 33.2380465956602 21.8907048762952 -50.0
vertex 33.2380465956602 21.8907048762952 -1.0952283151458
endloop
endfacet
facet normal -1.0 0.0 0.0
outer loop
vertex 33.2380465956602 21.8907048762952 -50.0
vertex 33.2380465956602 25.7984865740202 -1.0952283151458
vertex 33.2380465956602 25.7984865740202 -50.0
endloop
endfacet
facet normal -0.0 1.0 -0.0
outer loop
vertex 22.077472802125 0.0 -1.0952283151458
vertex 33.2380465956602 0.0 -50.0
vertex 22.077472802125 0.0 -50.0
endloop
endfacet
facet normal -0.0 1.0 -0.0
outer loop
vertex 33.2380465956602 0.0 -50.0
vertex 22.077472802125 0.0 -1.0952283151458
vertex 33.2380465956602 0.0 -1.0952283151458
endloop
endfacet
facet normal 1.0 -0.0 -0.0
outer loop
vertex 22.077472802125 25.7984865740202 -50.0
vertex 22.077472802125 21.8907048762952 -1.0952283151458
vertex 22.077472802125 21.8907048762952 -50.0
endloop
endfacet
facet normal 1.0 -0.0 -0.0
outer loop
vertex 22.077472802125 21.8907048762952 -1.0952283151458
vertex 22.077472802125 25.7984865740202 -50.0
vertex 22.077472802125 25.7984865740202 -1.0952283151458
endloop
endfacet
facet normal -0.0 -0.0 1.0
outer loop
vertex 33.2380465956602 5.48668729115262 0.0
vertex 28.5053953717463 9.05698484264174 0.0
vertex 28.5053953717463 5.48668729115262 0.0
endloop
endfacet
facet normal -0.0 -0.0 1.0
outer loop
vertex 28.5053953717463 9.05698484264174 0.0
vertex 33.2380465956602 5.48668729115262 0.0
vertex 30.8932089145166 9.05698484264174 0.0
endloop
endfacet
facet normal -0.0 -0.0 1.0
outer loop
vertex 30.8932089145166 9.05698484264174 0.0
vertex 33.2380465956602 5.48668729115262 0.0
vertex 33.2380465956602 9.05698484264174 0.0
endloop
endfacet
facet normal -1.0 0.0 0.0
outer loop
vertex 33.2380465956602 5.48668729115262 0.0
vertex 33.2380465956602 9.05698484264174 -1.0952283151458
vertex 33.2380465956602 5.48668729115262 -1.0952283151458
endloop
endfacet
facet normal -1.0 0.0 0.0
outer loop
vertex 33.2380465956602 9.05698484264174 -1.0952283151458
vertex 33.2380465956602 5.48668729115262 0.0
vertex 33.2380465956602 9.05698484264174 0.0
endloop
endfacet
facet normal -0.0 -0.0 1.0
outer loop
vertex 33.2380465956602 21.8907048762952 0.0
vertex 22.077472802125 25.7984865740202 0.0
vertex 22.077472802125 21.8907048762952 0.0
endloop
endfacet
facet normal -0.0 -0.0 1.0
outer loop
vertex 22.077472802125 25.7984865740202 0.0
vertex 33.2380465956602 21.8907048762952 0.0
vertex 33.2380465956602 25.7984865740202 0.0
endloop
endfacet
facet normal -1.0 0.0 0.0
outer loop
vertex 33.2380465956602 25.7984865740202 0.0
vertex 33.2380465956602 21.8907048762952 -1.0952283151458
vertex 33.2380465956602 21.8907048762952 0.0
endloop
endfacet
facet normal -1.0 0.0 0.0
outer loop
vertex 33.2380465956602 21.8907048762952 -1.0952283151458
vertex 33.2380465956602 25.7984865740202 0.0
vertex 33.2380465956602 25.7984865740202 -1.0952283151458
endloop
endfacet
facet normal -0.0 -0.0 1.0
outer loop
vertex 27.7553953717463 5.48668729115262 0.0
vertex 22.077472802125 9.05698484264174 0.0
vertex 22.077472802125 5.48668729115262 0.0
endloop
endfacet
facet normal -0.0 -0.0 1.0
outer loop
vertex 22.077472802125 9.05698484264174 0.0
vertex 27.7553953717463 5.48668729115262 0.0
vertex 24.9232089145166 9.05698484264174 0.0
endloop
endfacet
facet normal -0.0 -0.0 1.0
outer loop
vertex 24.9232089145166 9.05698484264174 0.0
vertex 27.7553953717463 5.48668729115262 0.0
vertex 27.7553953717463 9.05698484264174 0.0
endloop
endfacet
facet normal 1.0 -0.0 -0.0
outer loop
vertex 22.077472802125 25.7984865740202 -1.0952283151458
vertex 22.077472802125 21.8907048762952 0.0
vertex 22.077472802125 21.8907048762952 -1.0952283151458
endloop
endfacet
facet normal 1.0 -0.0 -0.0
outer loop
vertex 22.077472802125 21.8907048762952 0.0
vertex 22.077472802125 25.7984865740202 -1.0952283151458
vertex 22.077472802125 25.7984865740202 0.0
endloop
endfacet
facet normal -0.0 -0.0 1.0
outer loop
vertex 10.3074343796203 12.9085513148189 0.0
vertex 0.0 0.0 0.0
vertex 10.3074343796203 0.0 0.0
endloop
endfacet
facet normal 1.0 -0.0 -0.0
outer loop
vertex 22.077472802125 9.05698484264174 -1.0952283151458
vertex 22.077472802125 5.48668729115262 0.0
vertex 22.077472802125 5.48668729115262 -1.0952283151458
endloop
endfacet
facet normal 1.0 -0.0 -0.0
outer loop
vertex 22.077472802125 5.48668729115262 0.0
vertex 22.077472802125 9.05698484264174 -1.0952283151458
vertex 22.077472802125 9.05698484264174 0.0
endloop
endfacet
facet normal -0.0 -0.0 1.0
outer loop
vertex 14.4238793070829 12.9085513148189 0.0
vertex 10.3074343796203 16.4788011564166 0.0
vertex 10.3074343796203 12.9085513148189 0.0
endloop
endfacet
facet normal -0.0 -0.0 1.0
outer loop
vertex 10.3074343796203 16.4788011564166 0.0
vertex 14.4238793070829 12.9085513148189 0.0
vertex 14.4238793070829 16.4788011564166 0.0
endloop
endfacet
facet normal 1.0 -0.0 -0.0
outer loop
vertex 10.3074343796203 16.4788011564166 -1.76279822871415
vertex 10.3074343796203 12.9085513148189 0.0
vertex 10.3074343796203 12.9085513148189 -1.76279822871415
endloop
endfacet
facet normal 1.0 -0.0 -0.0
outer loop
vertex 10.3074343796203 12.9085513148189 0.0
vertex 10.3074343796203 16.4788011564166 -1.76279822871415
vertex 10.3074343796203 16.4788011564166 0.0
endloop
endfacet
facet normal -0.0 -0.0 1.0
outer loop
vertex 22.077472802125 25.7984865740202 0.0
vertex 14.4238793070829 30.0 0.0
vertex 14.4238793070829 16.4788011564166 0.0
endloop
endfacet
facet normal -0.0 -0.0 1.0
outer loop
vertex 14.4238793070829 30.0 0.0
vertex 22.077472802125 25.7984865740202 0.0
vertex 22.077472802125 30.0 0.0
endloop
endfacet
facet normal -1.0 0.0 0.0
outer loop
vertex 14.4238793070829 16.4788011564166 0.0
vertex 14.4238793070829 12.9085513148189 -1.76279822871415
vertex 14.4238793070829 12.9085513148189 0.0
endloop
endfacet
facet normal -1.0 0.0 0.0
outer loop
vertex 14.4238793070829 12.9085513148189 -1.76279822871415
vertex 14.4238793070829 16.4788011564166 0.0
vertex 14.4238793070829 16.4788011564166 -1.76279822871415
endloop
endfacet
facet normal 6.41379944933493e-017 1.37630739905965e-017 1.0
outer loop
vertex 53.3795893555733 17.6274377353038 -1.53342205896786e-016
vertex 49.0852323497369 21.1655144302087 0.0
vertex 49.0852323497369 17.6274377353038 0.0
endloop
endfacet
facet normal 6.41379944933493e-017 1.37630739905965e-017 1.0
outer loop
vertex 49.0852323497369 21.1655144302087 0.0
vertex 53.3795893555733 17.6274377353038 -1.53342205896786e-016
vertex 53.3795893555733 18.5087695527419 -3.60955709766131e-016
endloop
endfacet
facet normal -0.0 -0.0 1.0
outer loop
vertex 42.2752323497369 21.1655144302087 0.0
vertex 33.2380465956602 30.0 0.0
vertex 33.2380465956602 25.7984865740202 0.0
endloop
endfacet
facet normal -0.0 -0.0 1.0
outer loop
vertex 42.2752323497369 10.146702966822 0.0
vertex 33.2380465956602 9.05698484264174 0.0
vertex 33.2380465956602 5.48668729115262 0.0
endloop
endfacet
facet normal -0.0 -0.0 1.0
outer loop
vertex 33.2380465956602 9.05698484264174 0.0
vertex 42.2752323497369 10.146702966822 0.0
vertex 42.2752323497369 12.23980879634 0.0
endloop
endfacet
facet normal -1.26673949664683e-017 1.66148373224161e-017 1.0
outer loop
vertex 60.0 0.0 3.60955709766131e-016
vertex 42.2752323497369 10.146702966822 0.0
vertex 33.2380465956602 0.0 0.0
endloop
endfacet
facet normal -1.26673949664683e-017 1.66148373224161e-017 1.0
outer loop
vertex 42.2752323497369 10.146702966822 0.0
vertex 60.0 0.0 3.60955709766131e-016
vertex 49.0852323497369 10.146702966822 0.0
endloop
endfacet
facet normal 1.26648152002246e-018 9.46882495816365e-019 1.0
outer loop
vertex 53.3795893555733 12.6470753683922 0.0
vertex 49.0852323497369 13.5074377353038 0.0
vertex 49.0852323497369 10.146702966822 0.0
endloop
endfacet
facet normal 1.26648152002246e-018 9.46882495816365e-019 1.0
outer loop
vertex 49.0852323497369 13.5074377353038 0.0
vertex 53.3795893555733 12.6470753683922 0.0
vertex 53.3795893555733 13.5074377353038 -1.3245006436611e-017
endloop
endfacet
facet normal 4.34028792545188e-017 4.16617422143165e-017 1.0
outer loop
vertex 42.2752323497369 21.1655144302087 0.0
vertex 47.7417764816181 30.0 0.0
vertex 33.2380465956602 30.0 0.0
endloop
endfacet
facet normal 4.34028792545188e-017 4.16617422143165e-017 1.0
outer loop
vertex 47.7417764816181 30.0 0.0
vertex 42.2752323497369 21.1655144302087 0.0
vertex 49.0852323497369 21.1655144302087 0.0
endloop
endfacet
facet normal 4.34028792545188e-017 4.16617422143165e-017 1.0
outer loop
vertex 47.7417764816181 30.0 0.0
vertex 49.0852323497369 21.1655144302087 0.0
vertex 60.0 30.0 -1.27514959257878e-015
endloop
endfacet
facet normal 4.80859383773455e-017 6.73825559560952e-017 1.0
outer loop
vertex 53.3795893555733 18.5087695527419 -3.60955709766131e-016
vertex 60.0 30.0 -1.27514959257878e-015
vertex 49.0852323497369 21.1655144302087 0.0
endloop
endfacet
facet normal 4.80859383773455e-017 6.73825559560952e-017 1.0
outer loop
vertex 60.0 30.0 -1.27514959257878e-015
vertex 53.3795893555733 18.5087695527419 -3.60955709766131e-016
vertex 60.0 18.5087695527419 -3.60955709766131e-016
endloop
endfacet
facet normal -0.0 -0.0 1.0
outer loop
vertex 42.2752323497369 18.98980879634 0.0
vertex 33.2380465956602 25.7984865740202 0.0
vertex 33.2380465956602 21.8907048762952 0.0
endloop
endfacet
facet normal -0.0 -0.0 1.0
outer loop
vertex 33.2380465956602 25.7984865740202 0.0
vertex 42.2752323497369 18.98980879634 0.0
vertex 42.2752323497369 21.1655144302087 0.0
endloop
endfacet
facet normal -0.0 -0.0 1.0
outer loop
vertex 42.2752323497369 12.23980879634 0.0
vertex 33.2380465956602 21.8907048762952 0.0
vertex 33.2380465956602 9.05698484264174 0.0
endloop
endfacet
facet normal -0.0 -0.0 1.0
outer loop
vertex 33.2380465956602 21.8907048762952 0.0
vertex 42.2752323497369 12.23980879634 0.0
vertex 42.2752323497369 18.98980879634 0.0
endloop
endfacet
facet normal -0.0 -0.0 1.0
outer loop
vertex 42.2752323497369 10.146702966822 0.0
vertex 33.2380465956602 5.48668729115262 0.0
vertex 33.2380465956602 0.0 0.0
endloop
endfacet
facet normal -1.39416338838359e-014 1.0 -5.49594759384366e-030
outer loop
vertex 60.0 18.5087695527419 6.21
vertex 58.3430087450642 18.5087695527419 5.84
vertex 58.3430087450642 18.5087695527419 6.21
endloop
endfacet
facet normal 1.32038192104524e-014 -4.30085816776835e-015 1.0
outer loop
vertex 47.7417764816181 26.59 6.21
vertex 53.3795893555733 30.0 6.20999999999993
vertex 44.3317764816181 30.0 6.21
endloop
endfacet
facet normal 1.32038192104524e-014 -4.30085816776835e-015 1.0
outer loop
vertex 53.3795893555733 30.0 6.20999999999993
vertex 47.7417764816181 26.59 6.21
vertex 53.3795893555733 26.59 6.20999999999985
endloop
endfacet
facet normal 1.0 -3.45298635745081e-016 -3.12177911149209e-014
outer loop
vertex 47.7417764816181 26.59 6.21
vertex 47.741776481618 21.1655144302087 4.04999999999999
vertex 47.7417764816181 26.59 5.84000000000015
endloop
endfacet
facet normal 7.86757542441876e-017 -4.12871521501462e-017 -1.0
outer loop
vertex 60.0 30.0 5.84
vertex 53.3795893555733 26.59 5.84
vertex 53.3795893555733 30.0 5.84
endloop
endfacet
facet normal 7.86757542441876e-017 -4.12871521501462e-017 -1.0
outer loop
vertex 53.3795893555733 26.59 5.84
vertex 60.0 30.0 5.84
vertex 53.3795893555733 23.4454242515875 5.84
endloop
endfacet
facet normal 7.86757542441876e-017 -4.12871521501462e-017 -1.0
outer loop
vertex 53.3795893555733 23.4454242515875 5.84
vertex 60.0 30.0 5.84
vertex 56.1330087450642 23.4454242515875 5.84
endloop
endfacet
facet normal 7.86757542441876e-017 -4.12871521501462e-017 -1.0
outer loop
vertex 56.1330087450642 23.4454242515875 5.84
vertex 60.0 30.0 5.84
vertex 58.3430087450642 23.4454242515875 5.84
endloop
endfacet
facet normal 7.86757542441876e-017 -4.12871521501462e-017 -1.0
outer loop
vertex 58.3430087450642 23.4454242515875 5.84
vertex 60.0 30.0 5.84
vertex 60.0 23.4454242515875 5.84
endloop
endfacet
facet normal 0.0 -1.0 0.0
outer loop
vertex 58.3430087450642 23.4454242515875 6.21
vertex 56.1330087450642 23.4454242515875 5.84
vertex 58.3430087450642 23.4454242515875 5.84
endloop
endfacet
facet normal 0.0 -1.0 0.0
outer loop
vertex 56.1330087450642 23.4454242515875 5.84
vertex 58.3430087450642 23.4454242515875 6.21
vertex 56.1330087450642 23.4454242515875 6.21
endloop
endfacet
facet normal -1.0 0.0 0.0
outer loop
vertex 14.4238793070829 30.0 0.0
vertex 14.4238793070829 16.4788011564166 -1.76279822871415
vertex 14.4238793070829 16.4788011564166 0.0
endloop
endfacet
facet normal -1.0 0.0 0.0
outer loop
vertex 14.4238793070829 16.4788011564166 -1.76279822871415
vertex 14.4238793070829 30.0 0.0
vertex 14.4238793070829 30.0 -1.76279822871415
endloop
endfacet
facet normal 0.0 -1.0 0.0
outer loop
vertex 33.2380465956602 30.0 0.0
vertex 22.077472802125 30.0 -1.0952283151458
vertex 33.2380465956602 30.0 -1.0952283151458
endloop
endfacet
facet normal 0.0 -1.0 0.0
outer loop
vertex 22.077472802125 30.0 -1.0952283151458
vertex 33.2380465956602 30.0 0.0
vertex 22.077472802125 30.0 0.0
endloop
endfacet
facet normal 1.0 -0.0 -0.0
outer loop
vertex 10.3074343796203 16.4788011564166 -1.76279822871415
vertex 10.3074343796203 30.0 0.0
vertex 10.3074343796203 16.4788011564166 0.0
endloop
endfacet
facet normal 1.0 -0.0 -0.0
outer loop
vertex 10.3074343796203 30.0 0.0
vertex 10.3074343796203 16.4788011564166 -1.76279822871415
vertex 10.3074343796203 30.0 -1.76279822871415
endloop
endfacet
facet normal -1.0 0.0 0.0
outer loop
vertex 14.4238793070829 30.0 -50.0
vertex 14.4238793070829 16.4788011564166 -1.76279822871415
vertex 14.4238793070829 30.0 -1.76279822871415
endloop
endfacet
facet normal -0.0 1.0 -0.0
outer loop
vertex 10.3074343796203 0.0 -1.76279822871415
vertex 14.4238793070829 0.0 -50.0
vertex 10.3074343796203 0.0 -50.0
endloop
endfacet
facet normal -0.0 1.0 -0.0
outer loop
vertex 14.4238793070829 0.0 -50.0
vertex 10.3074343796203 0.0 -1.76279822871415
vertex 14.4238793070829 0.0 -1.76279822871415
endloop
endfacet
facet normal 1.0 -0.0 -0.0
outer loop
vertex 10.3074343796203 30.0 -1.76279822871415
vertex 10.3074343796203 16.4788011564166 -1.76279822871415
vertex 10.3074343796203 30.0 -50.0
endloop
endfacet
facet normal -0.0 -0.0 1.0
outer loop
vertex 10.3074343796203 30.0 0.0
vertex 0.0 30.0 0.0
vertex 10.3074343796203 16.4788011564166 0.0
endloop
endfacet
facet normal -0.0 -0.0 1.0
outer loop
vertex 10.3074343796203 12.9085513148189 0.0
vertex 0.0 30.0 0.0
vertex 0.0 0.0 0.0
endloop
endfacet
facet normal -0.0 -0.0 1.0
outer loop
vertex 0.0 30.0 0.0
vertex 10.3074343796203 12.9085513148189 0.0
vertex 10.3074343796203 16.4788011564166 0.0
endloop
endfacet
facet normal -0.0 -0.0 1.0
outer loop
vertex 22.077472802125 25.7984865740202 0.0
vertex 14.4238793070829 16.4788011564166 0.0
vertex 22.077472802125 21.8907048762952 0.0
endloop
endfacet
facet normal -0.0 -0.0 1.0
outer loop
vertex 22.077472802125 9.05698484264174 0.0
vertex 14.4238793070829 16.4788011564166 0.0
vertex 14.4238793070829 12.9085513148189 0.0
endloop
endfacet
facet normal -0.0 -0.0 1.0
outer loop
vertex 14.4238793070829 16.4788011564166 0.0
vertex 22.077472802125 9.05698484264174 0.0
vertex 22.077472802125 21.8907048762952 0.0
endloop
endfacet
facet normal -0.0 -0.0 1.0
outer loop
vertex 22.077472802125 9.05698484264174 0.0
vertex 14.4238793070829 12.9085513148189 0.0
vertex 22.077472802125 5.48668729115262 0.0
endloop
endfacet
facet normal -0.0 -0.0 1.0
outer loop
vertex 22.077472802125 0.0 0.0
vertex 14.4238793070829 12.9085513148189 0.0
vertex 14.4238793070829 0.0 0.0
endloop
endfacet
facet normal -0.0 -0.0 1.0
outer loop
vertex 14.4238793070829 12.9085513148189 0.0
vertex 22.077472802125 0.0 0.0
vertex 22.077472802125 5.48668729115262 0.0
endloop
endfacet
facet normal 1.0 -0.0 -0.0
outer loop
vertex 10.3074343796203 12.9085513148189 -1.76279822871415
vertex 10.3074343796203 0.0 -1.76279822871415
vertex 10.3074343796203 0.0 -50.0
endloop
endfacet
facet normal 1.0 -0.0 -0.0
outer loop
vertex 10.3074343796203 30.0 -50.0
vertex 10.3074343796203 12.9085513148189 -1.76279822871415
vertex 10.3074343796203 0.0 -50.0
endloop
endfacet
facet normal 1.0 -0.0 -0.0
outer loop
vertex 10.3074343796203 12.9085513148189 -1.76279822871415
vertex 10.3074343796203 30.0 -50.0
vertex 10.3074343796203 16.4788011564166 -1.76279822871415
endloop
endfacet
facet normal -1.0 0.0 0.0
outer loop
vertex 14.4238793070829 12.9085513148189 -1.76279822871415
vertex 14.4238793070829 0.0 -50.0
vertex 14.4238793070829 0.0 -1.76279822871415
endloop
endfacet
facet normal -1.0 0.0 0.0
outer loop
vertex 14.4238793070829 12.9085513148189 -1.76279822871415
vertex 14.4238793070829 30.0 -50.0
vertex 14.4238793070829 0.0 -50.0
endloop
endfacet
facet normal -1.0 0.0 0.0
outer loop
vertex 14.4238793070829 30.0 -50.0
vertex 14.4238793070829 12.9085513148189 -1.76279822871415
vertex 14.4238793070829 16.4788011564166 -1.76279822871415
endloop
endfacet
facet normal 1.0 -0.0 -0.0
outer loop
vertex 22.077472802125 5.48668729115262 -50.0
vertex 22.077472802125 0.0 -1.0952283151458
vertex 22.077472802125 0.0 -50.0
endloop
endfacet
facet normal 1.0 -0.0 -0.0
outer loop
vertex 22.077472802125 0.0 -1.0952283151458
vertex 22.077472802125 5.48668729115262 -50.0
vertex 22.077472802125 5.48668729115262 -1.0952283151458
endloop
endfacet
facet normal -0.0 -2.10520157238443e-015 1.0
outer loop
vertex 33.2380465956602 0.0 -50.0
vertex 22.077472802125 5.48668729115262 -50.0
vertex 22.077472802125 0.0 -50.0
endloop
endfacet
facet normal -0.0 -2.10520157238443e-015 1.0
outer loop
vertex 22.077472802125 5.48668729115262 -50.0
vertex 33.2380465956602 0.0 -50.0
vertex 33.2380465956602 5.48668729115262 -50.0
endloop
endfacet
facet normal -1.0 0.0 0.0
outer loop
vertex 33.2380465956602 5.48668729115262 -1.0952283151458
vertex 33.2380465956602 0.0 -50.0
vertex 33.2380465956602 0.0 -1.0952283151458
endloop
endfacet
facet normal -1.0 0.0 0.0
outer loop
vertex 33.2380465956602 0.0 -50.0
vertex 33.2380465956602 5.48668729115262 -1.0952283151458
vertex 33.2380465956602 5.48668729115262 -50.0
endloop
endfacet
facet normal 1.0 -0.0 -0.0
outer loop
vertex 22.077472802125 9.05698484264174 -50.0
vertex 22.077472802125 5.48668729115262 -1.0952283151458
vertex 22.077472802125 5.48668729115262 -50.0
endloop
endfacet
facet normal 1.0 -0.0 -0.0
outer loop
vertex 22.077472802125 5.48668729115262 -1.0952283151458
vertex 22.077472802125 9.05698484264174 -50.0
vertex 22.077472802125 9.05698484264174 -1.0952283151458
endloop
endfacet
facet normal -1.08288975777238e-046 1.61759384840328e-015 1.0
outer loop
vertex 33.2380465956602 5.48668729115262 -50.0
vertex 22.077472802125 9.05698484264174 -50.0
vertex 22.077472802125 5.48668729115262 -50.0
endloop
endfacet
facet normal -1.08288975777238e-046 1.61759384840328e-015 1.0
outer loop
vertex 22.077472802125 9.05698484264174 -50.0
vertex 33.2380465956602 5.48668729115262 -50.0
vertex 33.2380465956602 9.05698484264174 -50.0
endloop
endfacet
facet normal -1.0 0.0 0.0
outer loop
vertex 33.2380465956602 9.05698484264174 -1.0952283151458
vertex 33.2380465956602 5.48668729115262 -50.0
vertex 33.2380465956602 5.48668729115262 -1.0952283151458
endloop
endfacet
facet normal -1.0 0.0 0.0
outer loop
vertex 33.2380465956602 5.48668729115262 -50.0
vertex 33.2380465956602 9.05698484264174 -1.0952283151458
vertex 33.2380465956602 9.05698484264174 -50.0
endloop
endfacet
facet normal -1.0 0.0 0.0
outer loop
vertex 33.2380465956602 30.0 -1.0952283151458
vertex 33.2380465956602 25.7984865740202 -50.0
vertex 33.2380465956602 25.7984865740202 -1.0952283151458
endloop
endfacet
facet normal -1.0 0.0 0.0
outer loop
vertex 33.2380465956602 25.7984865740202 -50.0
vertex 33.2380465956602 30.0 -1.0952283151458
vertex 33.2380465956602 30.0 -50.0
endloop
endfacet
facet normal -0.0 -1.37457405718303e-015 1.0
outer loop
vertex 33.2380465956602 25.7984865740202 -50.0
vertex 22.077472802125 30.0 -50.0
vertex 22.077472802125 25.7984865740202 -50.0
endloop
endfacet
facet normal -0.0 -1.37457405718303e-015 1.0
outer loop
vertex 22.077472802125 30.0 -50.0
vertex 33.2380465956602 25.7984865740202 -50.0
vertex 33.2380465956602 30.0 -50.0
endloop
endfacet
facet normal 1.0 -0.0 -0.0
outer loop
vertex 22.077472802125 30.0 -50.0
vertex 22.077472802125 25.7984865740202 -1.0952283151458
vertex 22.077472802125 25.7984865740202 -50.0
endloop
endfacet
facet normal 1.0 -0.0 -0.0
outer loop
vertex 22.077472802125 25.7984865740202 -1.0952283151458
vertex 22.077472802125 30.0 -50.0
vertex 22.077472802125 30.0 -1.0952283151458
endloop
endfacet
facet normal -1.0 0.0 0.0
outer loop
vertex 33.2380465956602 21.8907048762952 -1.0952283151458
vertex 33.2380465956602 9.05698484264174 -50.0
vertex 33.2380465956602 9.05698484264174 -1.0952283151458
endloop
endfacet
facet normal -1.0 0.0 0.0
outer loop
vertex 33.2380465956602 9.05698484264174 -50.0
vertex 33.2380465956602 21.8907048762952 -1.0952283151458
vertex 33.2380465956602 21.8907048762952 -50.0
endloop
endfacet
facet normal 6.02512543606849e-047 9.00018286375848e-016 1.0
outer loop
vertex 33.2380465956602 9.05698484264174 -50.0
vertex 22.077472802125 21.8907048762952 -50.0
vertex 22.077472802125 9.05698484264174 -50.0
endloop
endfacet
facet normal 6.02512543606849e-047 9.00018286375848e-016 1.0
outer loop
vertex 22.077472802125 21.8907048762952 -50.0
vertex 33.2380465956602 9.05698484264174 -50.0
vertex 33.2380465956602 21.8907048762952 -50.0
endloop
endfacet
facet normal 1.0 -0.0 -0.0
outer loop
vertex 22.077472802125 21.8907048762952 -50.0
vertex 22.077472802125 9.05698484264174 -1.0952283151458
vertex 22.077472802125 9.05698484264174 -50.0
endloop
endfacet
facet normal 1.0 -0.0 -0.0
outer loop
vertex 22.077472802125 9.05698484264174 -1.0952283151458
vertex 22.077472802125 21.8907048762952 -50.0
vertex 22.077472802125 21.8907048762952 -1.0952283151458
endloop
endfacet
facet normal 0.0 -1.0 0.0
outer loop
vertex 14.4238793070829 30.0 0.0
vertex 10.3074343796203 30.0 -1.76279822871415
vertex 14.4238793070829 30.0 -1.76279822871415
endloop
endfacet
facet normal 0.0 -1.0 0.0
outer loop
vertex 10.3074343796203 30.0 -1.76279822871415
vertex 14.4238793070829 30.0 0.0
vertex 10.3074343796203 30.0 0.0
endloop
endfacet
facet normal 0.0 -1.0 0.0
outer loop
vertex 60.0 30.0 5.84
vertex 47.741776481618 30.0 4.04999999999999
vertex 60.0 30.0 -1.27514959257878e-015
endloop
endfacet
facet normal 0.0 -1.0 0.0
outer loop
vertex 47.741776481618 30.0 4.04999999999999
vertex 60.0 30.0 5.84
vertex 53.3795893555733 30.0 5.84
endloop
endfacet
facet normal 0.0 -1.0 0.0
outer loop
vertex 47.7417764816181 30.0 5.84000000000015
vertex 47.741776481618 30.0 4.04999999999999
vertex 53.3795893555733 30.0 5.84
endloop
endfacet
facet normal -0.0 1.0 -0.0
outer loop
vertex 22.077472802125 0.0 0.0
vertex 33.2380465956602 0.0 -1.0952283151458
vertex 22.077472802125 0.0 -1.0952283151458
endloop
endfacet
facet normal -0.0 1.0 -0.0
outer loop
vertex 33.2380465956602 0.0 -1.0952283151458
vertex 22.077472802125 0.0 0.0
vertex 33.2380465956602 0.0 0.0
endloop
endfacet
facet normal -0.0 1.0 -0.0
outer loop
vertex 10.3074343796203 0.0 0.0
vertex 14.4238793070829 0.0 -1.76279822871415
vertex 10.3074343796203 0.0 -1.76279822871415
endloop
endfacet
facet normal -0.0 1.0 -0.0
outer loop
vertex 14.4238793070829 0.0 -1.76279822871415
vertex 10.3074343796203 0.0 0.0
vertex 14.4238793070829 0.0 0.0
endloop
endfacet
facet normal -1.39416338838359e-014 1.0 3.12163997333146e-031
outer loop
vertex 60.0 18.5087695527419 6.21
vertex 60.0 18.5087695527419 -3.60955709766131e-016
vertex 58.3430087450642 18.5087695527419 5.84
endloop
endfacet
facet normal -2.12205308886387e-031 1.0 3.95567901113568e-015
outer loop
vertex 56.1330087450642 18.5087695527419 5.84
vertex 60.0 18.5087695527419 -3.60955709766131e-016
vertex 53.3795893555733 18.5087695527419 -3.60955709766131e-016
endloop
endfacet
facet normal -2.12205308886387e-031 1.0 3.95567901113568e-015
outer loop
vertex 60.0 18.5087695527419 -3.60955709766131e-016
vertex 56.1330087450642 18.5087695527419 5.84
vertex 58.3430087450642 18.5087695527419 5.84
endloop
endfacet
facet normal 0.0 -1.0 0.0
outer loop
vertex 47.741776481618 21.1655144302087 4.04999999999999
vertex 42.2752323497369 21.1655144302087 0.0
vertex 49.0852323497369 21.1655144302087 0.0
endloop
endfacet
facet normal 0.0 -1.0 0.0
outer loop
vertex 42.2752323497369 21.1655144302087 0.0
vertex 47.741776481618 21.1655144302087 4.04999999999999
vertex 44.3317764816181 21.1655144302087 4.04999999999999
endloop
endfacet
facet normal 0.0 -1.0 0.0
outer loop
vertex 44.3317764816181 21.1655144302087 4.04999999999999
vertex 42.2752323497369 21.1655144302087 4.04999999999999
vertex 42.2752323497369 21.1655144302087 0.0
endloop
endfacet
facet normal -1.0 0.0 0.0
outer loop
vertex 53.3795893555733 18.5087695527419 6.21
vertex 53.3795893555733 17.6274377353038 4.75999999999999
vertex 53.3795893555733 17.6274377353038 6.21
endloop
endfacet
facet normal -1.0 0.0 0.0
outer loop
vertex 53.3795893555733 17.6274377353038 4.75999999999999
vertex 53.3795893555733 18.5087695527419 6.21
vertex 53.3795893555733 18.5087695527419 4.75999999999999
endloop
endfacet
facet normal -0.0 -0.0 1.0
outer loop
vertex 49.0852323497369 10.146702966822 4.04999999999999
vertex 42.2752323497369 12.23980879634 4.04999999999999
vertex 42.2752323497369 10.146702966822 4.04999999999999
endloop
endfacet
facet normal -0.0 -0.0 1.0
outer loop
vertex 42.2752323497369 12.23980879634 4.04999999999999
vertex 49.0852323497369 10.146702966822 4.04999999999999
vertex 46.6852323497369 12.23980879634 4.04999999999999
endloop
endfacet
facet normal -0.0 -0.0 1.0
outer loop
vertex 49.0852323497369 13.5074377353038 4.04999999999999
vertex 46.6852323497369 18.98980879634 4.04999999999999
vertex 46.6852323497369 12.23980879634 4.04999999999999
endloop
endfacet
facet normal -0.0 -0.0 1.0
outer loop
vertex 46.6852323497369 18.98980879634 4.04999999999999
vertex 49.0852323497369 13.5074377353038 4.04999999999999
vertex 49.0852323497369 17.6274377353038 4.04999999999999
endloop
endfacet
facet normal 2.75870708116141e-016 -4.49972789316562e-016 1.0
outer loop
vertex 49.0852323497369 17.6274377353038 4.04999999999999
vertex 47.741776481618 21.1655144302087 4.04999999999999
vertex 46.6852323497369 18.98980879634 4.04999999999999
endloop
endfacet
facet normal 2.75870708116141e-016 -4.49972789316562e-016 1.0
outer loop
vertex 47.741776481618 21.1655144302087 4.04999999999999
vertex 49.0852323497369 17.6274377353038 4.04999999999999
vertex 49.0852323497369 21.1655144302087 4.04999999999999
endloop
endfacet
facet normal 1.0 -0.0 -0.0
outer loop
vertex 49.0852323497369 13.5074377353038 2.57999999999999
vertex 49.0852323497369 10.146702966822 4.04999999999999
vertex 49.0852323497369 10.146702966822 0.0
endloop
endfacet
facet normal 1.0 -0.0 -0.0
outer loop
vertex 49.0852323497369 10.146702966822 4.04999999999999
vertex 49.0852323497369 13.5074377353038 2.57999999999999
vertex 49.0852323497369 13.5074377353038 4.04999999999999
endloop
endfacet
facet normal 1.0 -0.0 -0.0
outer loop
vertex 49.0852323497369 21.1655144302087 0.0
vertex 49.0852323497369 17.6274377353038 2.57999999999999
vertex 49.0852323497369 17.6274377353038 0.0
endloop
endfacet
facet normal -1.40412531555428e-015 1.03183468834245e-031 1.0
outer loop
vertex 44.3317764816181 21.1655144302087 4.04999999999999
vertex 42.2752323497369 21.1655144302087 4.04999999999999
vertex 42.2752323497369 18.98980879634 4.04999999999999
endloop
endfacet
facet normal -1.0 0.0 0.0
outer loop
vertex 60.0 12.6470753683922 6.21
vertex 60.0 0.0 3.60955709766131e-016
vertex 60.0 0.0 15.0
endloop
endfacet
facet normal -1.0 0.0 0.0
outer loop
vertex 60.0 0.0 3.60955709766131e-016
vertex 60.0 12.6470753683922 6.21
vertex 60.0 12.6470753683922 0.0
endloop
endfacet
facet normal -1.0 0.0 0.0
outer loop
vertex 60.0 23.4454242515875 6.21
vertex 60.0 18.5087695527419 -3.60955709766131e-016
vertex 60.0 18.5087695527419 6.21
endloop
endfacet
facet normal -1.0 0.0 0.0
outer loop
vertex 60.0 18.5087695527419 -3.60955709766131e-016
vertex 60.0 23.4454242515875 6.21
vertex 60.0 23.4454242515875 5.84
endloop
endfacet
facet normal -1.0 0.0 0.0
outer loop
vertex 60.0 23.4454242515875 5.84
vertex 60.0 30.0 -1.27514959257878e-015
vertex 60.0 18.5087695527419 -3.60955709766131e-016
endloop
endfacet
facet normal -1.0 0.0 0.0
outer loop
vertex 60.0 30.0 -1.27514959257878e-015
vertex 60.0 23.4454242515875 5.84
vertex 60.0 30.0 5.84
endloop
endfacet
facet normal -1.0 0.0 0.0
outer loop
vertex 60.0 30.0 15.0
vertex 60.0 23.4454242515875 6.21
vertex 60.0 18.5087695527419 6.21
endloop
endfacet
facet normal -1.0 0.0 0.0
outer loop
vertex 60.0 30.0 15.0
vertex 60.0 12.6470753683922 6.21
vertex 60.0 0.0 15.0
endloop
endfacet
facet normal -1.0 0.0 0.0
outer loop
vertex 60.0 12.6470753683922 6.21
vertex 60.0 30.0 15.0
vertex 60.0 18.5087695527419 6.21
endloop
endfacet
facet normal 0.0 -1.0 0.0
outer loop
vertex 47.741776481618 30.0 4.04999999999999
vertex 47.7417764816181 30.0 0.0
vertex 60.0 30.0 -1.27514959257878e-015
endloop
endfacet
facet normal 0.0 -1.0 0.0
outer loop
vertex 47.7417764816181 30.0 0.0
vertex 47.741776481618 30.0 4.04999999999999
vertex 33.2380465956602 30.0 0.0
endloop
endfacet
facet normal 0.0 -1.0 0.0
outer loop
vertex 33.2380465956602 30.0 0.0
vertex 47.741776481618 30.0 4.04999999999999
vertex 44.3317764816181 30.0 4.04999999999999
endloop
endfacet
facet normal 0.0 -1.0 0.0
outer loop
vertex 60.0 30.0 15.0
vertex 53.3795893555733 30.0 6.20999999999993
vertex 60.0 30.0 6.21
endloop
endfacet
facet normal 0.0 -1.0 0.0
outer loop
vertex 60.0 30.0 15.0
vertex 44.3317764816181 30.0 6.21
vertex 53.3795893555733 30.0 6.20999999999993
endloop
endfacet
facet normal 0.0 -1.0 0.0
outer loop
vertex 44.3317764816181 30.0 6.21
vertex 60.0 30.0 15.0
vertex 0.0 30.0 15.0
endloop
endfacet
facet normal 0.0 -1.0 0.0
outer loop
vertex 0.0 30.0 15.0
vertex 0.0 30.0 0.0
vertex 10.3074343796203 30.0 0.0
endloop
endfacet
facet normal 0.0 -1.0 0.0
outer loop
vertex 44.3317764816181 30.0 4.04999999999999
vertex 22.077472802125 30.0 0.0
vertex 33.2380465956602 30.0 0.0
endloop
endfacet
facet normal 0.0 -1.0 0.0
outer loop
vertex 22.077472802125 30.0 0.0
vertex 44.3317764816181 30.0 4.04999999999999
vertex 0.0 30.0 15.0
endloop
endfacet
facet normal 0.0 -1.0 0.0
outer loop
vertex 0.0 30.0 15.0
vertex 44.3317764816181 30.0 4.04999999999999
vertex 44.3317764816181 30.0 6.21
endloop
endfacet
facet normal 0.0 -1.0 0.0
outer loop
vertex 0.0 30.0 15.0
vertex 14.4238793070829 30.0 0.0
vertex 22.077472802125 30.0 0.0
endloop
endfacet
facet normal 0.0 -1.0 0.0
outer loop
vertex 0.0 30.0 15.0
vertex 10.3074343796203 30.0 0.0
vertex 14.4238793070829 30.0 0.0
endloop
endfacet
endsolid test_map2
